<?xml version="1.0" encoding="utf-8"?>
<!-- Generator: Adobe Illustrator 23.0.1, SVG Export Plug-In . SVG Version: 6.00 Build 0)  -->
<svg version="1.1" id="_x5F__x5F__x5F_.2" xmlns="http://www.w3.org/2000/svg" xmlns:xlink="http://www.w3.org/1999/xlink" x="0px"
	 y="0px" viewBox="0 0 580.1 428.6" style="enable-background:new 0 0 580.1 428.6;" xml:space="preserve">
<style type="text/css">
	.st0{fill:#606060;}
</style>
<g id="_x5F__x5F_">
</g>
<polygon class="st0" points="484.6,43.3 368.1,94.5 370.1,109 377,108.3 382.6,144.6 332.5,156.2 346.1,207.1 341.4,209.7 
	347.7,256 372,252.3 374.5,269.6 389.5,318.3 488.4,303.4 486.3,200.7 488.4,72.9 "/>
<polygon class="st0" points="191.9,149.8 328.5,113.3 368.7,94.5 370.5,109 377.5,108.3 382.7,144.8 332.5,156.2 346.3,207.2 
	341.7,209.7 347.9,256 372,252.3 374.6,269.6 389.7,318.4 241.6,340.4 225.4,293.3 210,174.2 200,174.2 199.9,163.8 191.9,163.3 "/>
<polygon class="st0" points="77.3,163.3 115.1,162.3 191.9,149.8 191.9,163.3 200,163.8 200,174.2 210,174.2 225.3,292.1 
	241.6,340.3 102.6,385.3 86.5,336.5 80.2,264.7 "/>
</svg>
