<?xml version="1.0" encoding="utf-8"?>
<!-- Generator: Adobe Illustrator 23.0.1, SVG Export Plug-In . SVG Version: 6.00 Build 0)  -->
<svg version="1.1" xmlns="http://www.w3.org/2000/svg" xmlns:xlink="http://www.w3.org/1999/xlink" x="0px" y="0px"
	 viewBox="0 0 580.1 428.6" style="enable-background:new 0 0 580.1 428.6;" xml:space="preserve">
<style type="text/css">
	.st0{display:none;}
	.st1{display:inline;}
	.st2{display:inline;fill:#606060;}
	.st3{display:inline;clip-path:url(#SVGID_2_);fill:#0F0E11;}
	.st4{fill-rule:evenodd;clip-rule:evenodd;fill:#606060;}
	.st5{display:inline;fill-rule:evenodd;clip-rule:evenodd;fill:#606060;}
	.st6{display:none;fill:none;stroke:#0F0E11;stroke-miterlimit:10;}
	.st7{fill:#606060;}
</style>
<g id="图层_4">
	<polygon class="st6" points="224.5,314 248.7,308.1 256.9,332.4 312.7,324.3 312,319 335,315.4 335.9,320.3 402,311.4 401.1,303.1
		422.2,295.7 426.2,308.1 458,304.8 518,285.8 512,252.2 517,250.7 505.8,71.1 500,62 487.1,51.8 474,46.9 462.6,46.9 458.1,46.9
		445.2,50.6 380.7,97.8 380.7,104.3 355,110.6 320.7,107.1 251.7,128 235.2,146.6 236,161 204.3,165 203.5,150 187.7,139
		104.9,152.1 104.9,158.1 99.1,159 101.8,177 104.9,180.9 99.1,187.4 95.4,185.1 76.7,184 76.7,188.2 61.9,189 64.8,305.5
		101.8,303.8 116.1,297 139.3,296 146.8,317.9 100.8,333.3 91.3,353 100.8,381.2 153,364.4 151,358.6 170.9,351.4 173,357
		227,338.9 	"/>
	<polygon class="st7" points="306,287.2 309.7,316.7 311.5,319 312.3,324.2 256.7,333 247.6,308 255.3,284 298,278.3 	"/>
	<polygon class="st7" points="311.5,286.2 322.4,285 325.1,305.6 313.8,306.9 	"/>
	<polygon class="st7" points="328.1,277.5 357.8,267.9 394.2,262 405.9,301.2 400.7,303.4 401.4,312 335.6,320.8 334.7,315.9
		332.9,316 329.8,289.1 334.7,287.5 332.1,280.6 328.8,281 	"/>
	<polygon class="st7" points="428.7,256.4 432.5,292.5 405.9,301 394.2,262 	"/>
	<polygon class="st7" points="356.5,232.2 364.3,235 374.4,236.1 379.6,236 388.2,233.2 394.5,230 402.6,242 404.4,257 355.5,264.3
		327.9,274.5 320.7,275.6 318.4,262 322.2,262 344.5,248 351.8,244.4 	"/>
	<polygon class="st7" points="393.5,219.5 412.3,217.1 413.3,225 404.4,226 405.9,235.8 403,236 405.9,239.5 409,259.5 428.7,256.2
		427.6,247.2 434.3,246.1 432.3,233.9 420,224 417.4,221.9 415.5,214.1 412.3,212 405.9,212.6 399.3,214 396.6,216 	"/>
	<polygon class="st7" points="313.2,230 329.5,227.6 346.7,220 362,227.6 359.2,233 356.4,232.2 351.8,244.4 344,248.3 322,262
		318.2,262 318.2,260 316.3,259.3 315,249.5 326,248 325,245.3 320.5,245.3 319.9,241 314.2,241 	"/>
	<polygon class="st7" points="384.1,223.2 388.4,233.1 379.4,236 372.7,236.1 364.2,235 365.5,224 374.8,225 	"/>
	<polygon class="st7" points="438.6,235 440.1,245.3 467.7,241.6 467.7,243.6 463.6,244.9 463.6,247.2 460.5,247.6 459.7,246
		450.9,247.2 451.3,253.1 498.9,246.5 496.7,226 	"/>
	<polygon class="st7" points="435,249.2 446.8,247.6 447.3,253.4 435.9,255 	"/>
	<polygon class="st7" points="457.4,305.6 487.8,295 516.8,286.2 511.2,252.4 516.8,251 505.8,72 498.8,62 487.8,52.5 480.5,50.1
		484.1,87 487.1,86.9 489.9,104.6 495.7,103.8 496.2,114.7 491.4,115 491.4,117.6 488.8,117.9 490.7,132.3 467.4,135.8 468.2,143
		446.4,146 448.1,159.3 487.8,154 489.3,166.4 498.8,165 499.5,173.4 494.6,174 495.7,180.2 500.2,179.5 501.3,185.6 498.8,186
		499.5,191.9 502.2,191.9 505.8,217.1 502.2,218.1 502.2,221.4 498.8,221.9 499.5,230 508.4,229.1 508.4,235.4 501.3,236
		501.3,239.9 498.8,239.9 498.8,246.4 428.8,256.4 432.5,292.5 421.7,296 426.1,308.7 	"/>
	<polygon class="st7" points="438.1,225 488,217.1 490.5,215.9 494,212.6 497.4,206.3 496.7,199.3 495.1,193 492.9,190 489.4,186
		484.5,183.8 432.9,191.6 428.9,193 414,193 414,205.2 423.7,205.2 423.7,207.2 424.9,216 426.3,218.8 428.9,221.9 432.9,224 	"/>
	<polygon class="st7" points="404.3,172.4 412.4,171 412.9,172.4 424.1,171 421.6,149 432.3,147.7 432.6,150.1 437.1,149.6
		437.1,146.7 441.4,146 442.9,159.9 487.8,154.1 489.9,172.9 469.9,176.8 433.1,182 417.5,183.9 409.6,181 404.9,177 404.3,174 	"/>
	<polygon class="st7" points="464.3,120.8 478.9,119.3 479.3,123.3 482.2,123 483.3,133.4 469.7,135.4 468.2,124.6 465.4,125.1
		464.3,123.5 	"/>
	<polygon class="st7" points="462.3,107 462.3,104.3 464.9,104.1 464.9,106.4 467.1,106.3 467.4,110.3 471.3,110.3 472.5,109.1
		479.5,109.9 480.5,116.2 463.8,118.7 463.8,114.6 460.3,114.7 460.3,107.2 	"/>
	<polygon class="st7" points="490.1,108.3 483.1,109.2 483.3,115.3 496.2,114.7 495.6,103.9 489.9,104.6 	"/>
	<polygon class="st7" points="465,66.6 466.3,70 466.3,73 467.4,80.1 468.6,89 468.6,91.7 471.6,98.2 472.7,106.3 486.3,105.1
		484.1,87 481.1,56.3 	"/>
	<polygon class="st7" points="430,62.4 435.6,70.9 440.4,66.6 445.4,64 454.8,62 459.2,62 461.1,62.4 463.7,64.6 465,66.4
		481.1,56.3 480.5,50 474.2,47.4 469.1,47 462.7,47 452.6,48 442.1,53.3 	"/>
	<polygon class="st7" points="459.2,67 460,72.7 439.4,74.5 439.4,70.5 443.8,68.5 	"/>
	<polygon class="st7" points="432.2,79 460.6,75 460.9,80.5 432.9,84.3 	"/>
	<polygon class="st7" points="436.7,87 437.9,95.6 460.5,92.3 459.5,83.5 	"/>
	<polygon class="st7" points="434.4,99.7 435.2,105.1 463.9,100.6 463,95.2 	"/>
	<polygon class="st7" points="422.5,104.6 432.3,104.1 431.8,96.4 421.2,98.8 	"/>
	<polygon class="st7" points="460.8,117.9 462.8,135.4 450.3,137 450.3,134 441.9,135.8 441.5,131.7 454,129.7 452.2,117.9
		435.3,121 434.7,117 428.6,117 429.7,110.7 456.2,107 458.1,108.8 458.1,113.7 458.5,116 	"/>
	<polygon class="st7" points="396.4,130 397.7,128 411.7,126 421,124.5 424.4,123.5 427.1,121.5 428.8,117 434.8,117 436.7,132.3
		434.1,133 434.8,141 418.7,143.9 417.5,135 413.2,135.5 418.2,166.6 414,167 411.4,151.9 399.7,153.5 	"/>
	<polygon class="st7" points="391.4,143.7 392.7,152 383.9,154 382.7,145.4 	"/>
	<polygon class="st7" points="376.5,128 391.4,125.4 393.3,139.2 379,142.4 	"/>
	<polygon class="st7" points="398.3,111.7 399.2,122.1 421.9,119 421.2,108.8 	"/>
	<polygon class="st7" points="384.2,95.5 391.9,114.9 400.5,107 410.2,103.2 414.7,101.1 420.4,96 425.2,88.9 426.1,85.9
		429.7,77.7 432.6,74 435.5,70.9 430,62.4 	"/>
	<polygon class="st7" points="353.7,111 358.1,126.4 372.1,124 383.4,122.1 387.2,121.3 391.9,114.7 384.2,95.2 380.1,98
		380.1,105.4 	"/>
	<polygon class="st7" points="369.8,129 375.6,152 372.7,151.9 363.4,153 358.8,154.1 347.6,160.3 340.3,168.9 316.5,159.3
		315.4,150.5 317.8,149.7 316.5,144.5 327.4,141 328.9,146.7 333.9,145.1 331.1,137 	"/>
	<polygon class="st7" points="367.6,168 373.9,167 380.5,167 388.8,169.1 394.4,174 396.9,178.9 396.9,182.6 396.9,188 401,191.6
		390.1,209.1 385.3,205.2 377.2,218.4 371.5,218.8 361.9,216 360.8,218.4 354.8,215 355.5,212.6 352.1,210 350,207.2 346.1,194.2
		343.6,195.4 339.6,187 343.6,176.8 347.2,177.6 350,174 349.2,169.1 366.7,164.7 	"/>
	<polygon class="st7" points="332.1,174.8 328.7,187 301.3,187.7 297.1,184.3 295.2,172.9 308.7,168 	"/>
	<polygon class="st7" points="331.5,193 340.8,210 327,221.9 305.3,224 303.7,218.4 312.7,206 325.5,204 324.1,193 	"/>
	<polygon class="st7" points="307,237.5 309.3,252.4 308.1,252.4 308.1,255 310.1,255 310.1,260 308.5,261.2 296.1,261.3 293.4,240
			"/>
	<polygon class="st7" points="258.8,247.2 262.4,266.8 296.1,261.3 293.4,240 285.2,241 285.2,242.8 279.2,243.2 279.8,251.6
		276.7,251.9 276.1,246.5 273.6,246.8 272.9,242.2 267.7,242.8 268,247.5 266.5,247.7 267.3,253.8 265.1,254 263.9,246.4 	"/>
	<polygon class="st7" points="134.1,322.8 139.2,327 141.4,335 143,335 143.7,336.3 145.5,335 153.6,358 149.9,359.8 151.5,364.5
		99.8,381.5 90.6,353.4 100.4,334 	"/>
	<polygon class="st7" points="165.6,326 167.1,312.3 208.4,298.3 223.5,314.2 226.9,339 172.7,357.3 170.2,351.8 171.5,351
		170.2,344.7 171.5,343.1 	"/>
	<polygon class="st7" points="147.6,329.5 160.9,324.2 162.5,329.2 160.9,329.8 163.1,335.6 164.6,335 167.1,343.1 153.8,348.9
		151.2,340 152.7,340 150.7,334 149.4,334.6 	"/>
	<polygon class="st7" points="241.1,249.8 255.3,247.2 257.7,260 260.9,259.3 262.4,267.3 243.3,269.5 	"/>
	<polygon class="st7" points="223.1,261.3 237,259.3 238,269.5 224,271.9 	"/>
	<polygon class="st7" points="215,248 217.7,272.8 202.5,275.6 192.3,280.6 191.6,253.4 195,253.4 195,249.5 204.6,249 204.6,250.2
		207.9,250 207.9,248.3 	"/>
	<polygon class="st7" points="142.7,266 160.4,264.9 160.4,268.9 174.3,269 174.3,278.3 178.5,278.3 178.5,274 177,274 177,271
		192.1,270.5 192.1,280.6 165.3,293.8 149.4,294.5 143.8,278.3 	"/>
	<polygon class="st7" points="118.7,290.2 134.3,289.1 134.3,293 118.7,294.2 	"/>
	<polygon class="st7" points="123.5,245.3 128.4,245.3 129.1,243.2 134.8,244.3 136.1,278.3 127.1,278.3 125.5,272.9 125.5,267.9
		120.7,267 	"/>
	<polygon class="st7" points="111.3,267.3 114.8,276.2 115.7,297.8 100.2,304 98.8,284 101.8,284 100.2,268.5 	"/>
	<polygon class="st7" points="63.1,253.4 82.3,252.4 82.3,266.3 78.2,266.6 78.2,269.5 90.7,269.1 90.7,271.9 76.9,272.8
		76.9,275.6 91.3,275.6 91.3,276.7 94.7,276.7 94.7,280 90.7,280.6 90.7,285 84.4,285.2 84.4,288.5 98.9,287.5 100.1,304
		64.7,305.6 	"/>
	<polygon class="st7" points="97.2,255.5 97.2,266 85.4,266.3 85.4,260 89.7,260 89.7,256 	"/>
	<polygon class="st7" points="109.5,263.2 109.5,258.8 118.8,235 112.7,227.6 108.8,219.5 98.9,220.6 98.9,232.2 81.7,233
		81.7,229.2 95.2,229.1 95.2,218.4 86.3,218.4 86.3,220 81.7,220.4 81,216 62,217.1 63.4,253.4 100.6,252 100.6,263.2 	"/>
	<polygon class="st7" points="76.1,188.9 76.1,184.2 95.5,185.6 98,188 101.6,184.2 114.7,195.4 108.6,201.6 108.6,215.3 98,216
		97.4,212 73.7,212.6 73.7,216.3 62,217.1 61.5,188.9 	"/>
	<polygon class="st7" points="126.2,194.6 152.4,204.8 150.5,210 153.7,213.1 153.7,217.1 151.3,222.7 148.6,226.5 143.7,229.6
		135.8,232.2 129.7,231.6 126.2,230.3 123.3,227.6 117.3,213.7 117.3,210.4 118.8,206.8 121.2,202.9 124.4,199.5 	"/>
	<polygon class="st7" points="140.9,178.3 141.3,187 121,187.7 114.6,195.4 101.6,184.2 103.6,181 100.9,177.6 99,159.8 104.2,159
		104.2,152.4 144.4,146.1 145,159.3 132.6,159.3 132.6,161.9 141.6,161.9 141.6,170.7 133.8,170.7 133.8,167 130.4,167 130.4,174.4
		126.7,174.4 126.7,178.3 	"/>
	<polygon class="st7" points="172.8,141.4 173.2,151.4 168.6,151.4 169.8,170.7 167.4,171 168,192.5 157.1,193 145.9,188.6
		144.6,146.1 	"/>
	<polygon class="st7" points="187.4,138.7 203.1,150 203.1,155 184.3,156.1 184.3,168.7 183,170.5 173.1,170.5 172.5,154.1
		187,153.5 187,151 173.3,151.4 172.9,141.4 	"/>
	<polygon class="st7" points="173.5,192 187.8,191.4 201.7,183.9 230,178.6 227.8,162.4 203.8,165.4 202.9,155 187.3,155.9
		187.3,173.4 173.5,173.4 	"/>
	<polygon class="st7" points="256.2,126.8 319.9,107 353.3,110.7 355.6,118.7 344.9,122.5 346.7,128 337,130.6 335.1,125.8
		332,126.8 333.8,134 330,134.6 329,137.3 325.3,138.7 324.1,134.6 327.5,133.5 326.5,129.5 322.6,130.6 321,124 314.5,126
		317.7,136.4 307.4,139 308.8,143.4 302.1,145.7 301.1,142 295,143.7 294,139 284.2,142 280.5,131.1 278.3,132 282.8,147
		264.2,153.1 262.9,149 258.3,151 256.8,146.5 261.6,144.5 	"/>
	<polygon class="st7" points="278.2,154.1 283,169.9 313.7,160.3 308.8,143.4 299.3,146.7 299.7,147.7 296.5,148.8 296,147.7
		289.4,149.8 289.7,151 287.2,151.7 286.6,150.5 281.2,152 281.4,153.1 	"/>
	<polygon class="st7" points="274.4,154 278.7,171 265.7,175 260.5,158.1 	"/>
	<polygon class="st7" points="234.2,147.4 251.2,128 256.3,126.9 261.5,144.5 256.8,146.5 265.8,174.9 252.9,178.9 241.3,176.3
		229.9,178.6 227.8,162.4 235.3,161.4 	"/>
	<polygon class="st7" points="159.4,197.3 188.8,196.3 188.8,215.5 159.4,215.9 	"/>
	<polygon class="st7" points="141.6,238 148.7,235 151.9,232.6 156.1,227.6 158.8,223 185,221.9 185.7,233.1 179.8,233.5
		179.8,236.8 173.3,237.3 173.3,247 159.8,248 160.2,260.4 142.9,261.2 	"/>
	<polygon class="st7" points="165.6,251 177.2,250.2 177.7,257.6 180.8,257.6 180.8,250 188.6,249.8 189.2,263.3 191.8,263.3
		192.1,270.5 183.1,270.7 183.1,263.7 180.8,263.7 180.8,265 166.1,265.3 	"/>
	<polygon class="st7" points="193.2,200.3 204.9,190 238.5,182.6 252.4,186 255.7,200 246.5,205.2 228.3,212.6 214.6,214.1
		203,214.1 194.6,212 	"/>
	<rect x="180.2" y="239" class="st7" width="9.8" height="7.1"/>
	<polygon class="st7" points="188.6,221 212.3,220.4 214.4,244.4 203.6,246 194.4,246 194.4,233 188.6,233 	"/>
	<polygon class="st7" points="217.8,220.4 223.2,219.5 223.2,223.3 229.8,223.3 229.8,219.5 234.7,218.8 237.3,244.4 219.8,245.3
		"/>
	<polygon class="st7" points="237.5,215 259.2,208.8 263.5,241.4 240.8,245 	"/>
	<polygon class="st7" points="262,208 305,194 323.8,193 325.6,204 312.6,206.1 301.7,220.8 274.7,225.6 276.1,234.5 268.7,235.6
		267,227 264.7,227.6 	"/>
	<polygon class="st7" points="280.2,229.2 289.1,227.6 290.2,237 281.4,238.2 	"/>
	<polygon class="st7" points="291.2,222.7 302,220.8 303.5,218.8 305.3,224 306.4,235 293.3,236.7 	"/>
	<polygon class="st7" points="257.6,182.3 284.7,176 287.5,189 281.5,190.9 279.8,198.3 262.5,202.3 261.4,199.4 259.8,199.4
		257.1,185.2 258.2,184.9 	"/>
</g>
</svg>
