<?xml version="1.0" encoding="utf-8"?>
<!-- Generator: Adobe Illustrator 23.0.1, SVG Export Plug-In . SVG Version: 6.00 Build 0)  -->
<svg version="1.1" xmlns="http://www.w3.org/2000/svg" xmlns:xlink="http://www.w3.org/1999/xlink" x="0px" y="0px"
	 viewBox="0 0 580.1 428.6" style="enable-background:new 0 0 580.1 428.6;" xml:space="preserve">
<style type="text/css">
	.st0{display:none;}
	.st1{display:inline;}
	.st2{display:inline;fill:#606060;}
	.st3{display:inline;clip-path:url(#SVGID_2_);fill:#0F0E11;}
	.st4{fill-rule:evenodd;clip-rule:evenodd;fill:#606060;}
	.st5{display:inline;fill-rule:evenodd;clip-rule:evenodd;fill:#606060;}
	.st6{fill:none;stroke:#0F0E11;stroke-miterlimit:10;}
	.st7{fill:#606060;}
	.st8{display:none;fill:#606060;}
</style>
<g id="图层_6">
	<polygon class="st7" points="496.6,294.4 375.7,312.9 370.1,301.5 368.7,284.9 358.6,270.6 362.7,258.9 372,245 376.2,229.9
		374.7,214.9 369.3,204.9 362.1,196.5 349.3,189.3 348.7,181.7 487.6,160.9 	"/>
	<polygon class="st8" points="496.6,294.4 375.7,312.9 370.1,301.5 368.7,284.9 358.6,270.6 362.7,258.9 372,245 376.2,229.9
		374.7,214.9 369.3,204.9 362.1,196.5 349.3,189.3 348.7,181.7 487.6,160.9 	"/>
	<polygon class="st7" points="388.3,91.6 398.6,105.9 409.2,103.1 449.7,96.9 445.3,65.9 421.7,66.9 	"/>
	<polygon class="st8" points="388.3,91.6 398.6,105.9 409.2,103.1 449.7,96.9 445.3,65.9 421.7,66.9 	"/>
	<polygon class="st7" points="483.9,93.8 483.9,101.9 459.7,104.2 458.2,91.5 463.3,90.9 462.3,84.9 448.7,86.5 445.5,65.9
		448.7,66.9 462.9,72.5 472.6,79.6 480.5,87.9 	"/>
	<polygon class="st8" points="483.9,93.8 483.9,101.9 459.7,104.2 458.2,91.5 463.3,90.9 462.3,84.9 448.7,86.5 445.5,65.9
		448.7,66.9 462.9,72.5 472.6,79.6 480.5,87.9 	"/>
	<polygon class="st7" points="344.1,122.9 387.7,91.8 397.4,105.9 389,105.9 392.5,128.9 366.4,133.9 	"/>
	<polygon class="st8" points="344.1,122.9 387.7,91.8 397.4,105.9 389,105.9 392.5,128.9 366.4,133.9 	"/>
	<polygon class="st7" points="406.7,114.5 432.1,110.9 432.1,116.9 407.4,120.4 	"/>
	<polygon class="st8" points="406.7,114.5 432.1,110.9 432.1,116.9 407.4,120.4 	"/>
	<polygon class="st7" points="448.7,105.9 483.9,102.9 485.5,131.3 487.6,159.9 443.5,166.5 442.5,159.3 445.6,158.2 444.6,153.5
		440.8,154.3 436.5,126.1 451.4,123.9 	"/>
	<polygon class="st8" points="448.7,105.9 483.9,102.9 485.5,131.3 487.6,159.9 443.5,166.5 442.5,159.3 445.6,158.2 444.6,153.5
		440.8,154.3 436.5,126.1 451.4,123.9 	"/>
	<polygon class="st7" points="367,162.8 372.6,161.9 374.7,176.9 349.3,180.7 342.7,136.2 343.6,123.8 365.9,134.8 369.2,155.4
		365.6,156.9 	"/>
	<polygon class="st8" points="367,162.8 372.6,161.9 374.7,176.9 349.3,180.7 342.7,136.2 343.6,123.8 365.9,134.8 369.2,155.4
		365.6,156.9 	"/>
	<polygon class="st7" points="375.7,135.9 403.7,131.3 409.2,171.9 381.7,175.9 	"/>
	<polygon class="st8" points="375.7,135.9 403.7,131.3 409.2,171.9 381.7,175.9 	"/>
	<polygon class="st7" points="407.1,130.9 434,126.9 437.6,152.7 436.2,153 436.9,157.9 435.1,158.2 436.2,168 413.1,171.3 	"/>
	<polygon class="st8" points="407.1,130.9 434,126.9 437.6,152.7 436.2,153 436.9,157.9 435.1,158.2 436.2,168 413.1,171.3 	"/>
</g>
</svg>
