<?xml version="1.0" encoding="utf-8"?>
<!-- Generator: Adobe Illustrator 23.0.1, SVG Export Plug-In . SVG Version: 6.00 Build 0)  -->
<svg version="1.1" xmlns="http://www.w3.org/2000/svg" xmlns:xlink="http://www.w3.org/1999/xlink" x="0px" y="0px"
	 viewBox="0 0 580.1 428.6" style="enable-background:new 0 0 580.1 428.6;" xml:space="preserve">
<style type="text/css">
	.st0{display:none;}
	.st1{display:inline;}
	.st2{display:inline;fill:#606060;}
	.st3{display:inline;clip-path:url(#SVGID_2_);fill:#0F0E11;}
	.st4{fill-rule:evenodd;clip-rule:evenodd;fill:#606060;}
	.st5{display:inline;fill-rule:evenodd;clip-rule:evenodd;fill:#606060;}
	.st6{fill:none;stroke:#0F0E11;stroke-miterlimit:10;}
	.st7{fill:#606060;}
</style>
<g id="F6">
	<g>
		<polygon class="st7" points="498.6,291 377.7,309.5 372.1,298.1 370.7,281.5 360.6,267.2 364.7,255.5 374,241.6 378.2,226.5
			376.7,211.5 371.3,201.5 364.1,193.1 382.9,197.5 380.1,177.9 464.8,166.1 465.6,167.5 476.7,165.5 483.5,210.7 487.5,210.2
			482,166.1 490.4,164.5 		"/>
		<polygon class="st7" points="498.6,291 377.7,309.5 372.1,298.1 370.7,281.5 360.6,267.2 364.7,255.5 374,241.6 378.2,226.5
			376.7,211.5 371.3,201.5 364.1,193.1 382.9,197.5 380.1,177.9 464.8,166.1 465.6,167.5 476.7,165.5 483.5,210.7 487.5,210.2
			482,166.1 490.4,164.5 		"/>
		<polygon class="st7" points="387.2,90.5 396.9,104.8 410.7,103.3 423,101.7 428.6,94.4 451.2,91.5 447.3,62.5 423.7,63.5 		"/>
		<polygon class="st7" points="387.2,90.5 396.9,104.8 410.7,103.3 423,101.7 428.6,94.4 451.2,91.5 447.3,62.5 423.7,63.5 		"/>
		<polygon class="st7" points="485.9,90.4 488.5,130.5 471.5,132.6 469.5,116.8 473.1,115.9 472.7,110.4 468.1,111.5 466.9,103.5
			462,104.5 460.2,88.1 465.3,87.5 464.3,81.5 450.7,83.1 447.5,62.5 450.7,63.5 464.9,69.1 474.6,76.2 482.5,84.5 		"/>
		<polygon class="st7" points="485.9,90.4 488.5,130.5 471.5,132.6 469.5,116.8 473.1,115.9 472.7,110.4 468.1,111.5 466.9,103.5
			462,104.5 460.2,88.1 465.3,87.5 464.3,81.5 450.7,83.1 447.5,62.5 450.7,63.5 464.9,69.1 474.6,76.2 482.5,84.5 		"/>
		<polygon class="st7" points="346.1,119.5 379.7,95.5 386,103.5 388.7,101.7 390.4,104.5 392.5,124.5 465.6,113.2 468.9,141.5
			458.4,143 459.6,159 446.2,160.6 446.5,163 429,165.3 428.6,163 424,163.5 424,159.8 414.8,161.8 414.3,157.3 408,158.5
			409.1,168.5 383.9,171.6 383.7,168.9 370.6,170.2 370.6,172.7 351.3,175.5 		"/>
		<polygon class="st7" points="346.1,119.5 379.7,95.5 386,103.5 388.7,101.7 390.4,104.5 392.5,124.5 465.6,113.2 468.9,141.5
			458.4,143 459.6,159 446.2,160.6 446.5,163 429,165.3 428.6,163 424,163.5 424,159.8 414.8,161.8 414.3,157.3 408,158.5
			409.1,168.5 383.9,171.6 383.7,168.9 370.6,170.2 370.6,172.7 351.3,175.5 		"/>
		<polygon class="st7" points="408.7,111.1 434.1,107.5 434.1,113.5 409.4,117 		"/>
		<polygon class="st7" points="408.7,111.1 434.1,107.5 434.1,113.5 409.4,117 		"/>
		<polygon class="st7" points="471.9,136.3 488.4,134.3 489.6,155.9 469.3,158.9 467.6,146.6 473.1,145.4 		"/>
		<polygon class="st7" points="471.9,136.3 488.4,134.3 489.6,155.9 469.3,158.9 467.6,146.6 473.1,145.4 		"/>
	</g>
</g>
</svg>
