<?xml version="1.0" encoding="utf-8"?>
<!-- Generator: Adobe Illustrator 23.0.1, SVG Export Plug-In . SVG Version: 6.00 Build 0)  -->
<svg version="1.1" id="B1" xmlns="http://www.w3.org/2000/svg" xmlns:xlink="http://www.w3.org/1999/xlink" x="0px" y="0px"
	 viewBox="0 0 580.1 428.6" style="enable-background:new 0 0 580.1 428.6;" xml:space="preserve">
<style type="text/css">
	.st0{display:none;}
	.st1{display:inline;}
</style>
<g class="st0">
	<rect x="101.5" y="29" class="st1" width="381" height="362.2"/>
</g>
<polygon points="100.4,114.7 198.7,114.7 198.7,29 101.5,29 "/>
<polygon points="100.4,114.7 198.7,114.7 198.7,155.8 99.9,155.8 "/>
<polygon points="351.2,137.8 198.7,137.2 198.7,29 468.7,29 468.8,156 358.7,156.3 358.7,137.8 "/>
<rect x="120.6" y="155.8" width="78.1" height="47.3"/>
<polygon points="198.7,205.8 198.7,297.2 221.7,297.2 221.7,382.1 99.6,381.2 99.6,285.4 120.6,285.4 120.6,205.8 "/>
<rect x="221.7" y="282" width="59.9" height="50.1"/>
<rect x="221.7" y="332.1" width="59.9" height="50.4"/>
<polygon points="281.6,301.5 281.6,382.4 469.9,382.5 469.9,285.4 442.6,285.4 442.6,281.9 342.4,282 342.4,301.5 "/>
<rect x="281.6" y="282" width="62" height="19.5"/>
<polygon points="221.7,228.6 277.5,228.6 277.5,256 253.2,256 253.2,261 221.7,261 "/>
<rect x="221.7" y="261" width="31.5" height="21"/>
<rect x="253.2" y="256" width="65.8" height="26"/>
<rect x="318.9" y="256" width="39.6" height="26"/>
<polygon points="277.5,167 277.5,193.1 303.5,193 303.5,167 "/>
<rect x="303.5" y="167" width="28.6" height="26"/>
<polygon points="332,167 332,193 358.7,193.3 358.7,167 "/>
<polygon points="277.5,228.6 277.5,256 303.5,256 303.5,228.6 "/>
<rect x="303.5" y="228.6" width="28.6" height="27.4"/>
<polygon points="332,228.6 332,256 358.6,256 358.7,228.6 "/>
<rect x="221.7" y="167" width="55.8" height="26.2"/>
<polygon points="221.7,137 246.7,137.2 246.7,167 221.7,167 "/>
<rect x="246.7" y="137.2" width="58.4" height="29.7"/>
<polygon points="305.1,137.2 358.7,137.8 358.7,167 305.1,167 "/>
<polygon points="361.7,159.5 447.5,159.3 447.5,254.7 453.6,254.7 453.6,281.4 445.2,281.4 445.2,278.1 361.6,278.2 "/>
<polygon points="453.6,254.7 470.6,254.8 470.6,281.4 453.6,281.4 "/>
<rect x="99.6" y="254.2" width="21" height="31.2"/>
</svg>
