<?xml version="1.0" encoding="utf-8"?>
<!-- Generator: Adobe Illustrator 23.0.1, SVG Export Plug-In . SVG Version: 6.00 Build 0)  -->
<svg version="1.1" id="B1" xmlns="http://www.w3.org/2000/svg" xmlns:xlink="http://www.w3.org/1999/xlink" x="0px" y="0px"
	 viewBox="0 0 580.1 428.6" style="enable-background:new 0 0 580.1 428.6;" xml:space="preserve">
<g id="_x31_0楼长方形">
	<rect x="55.2" y="41.2" width="118.1" height="77.2"/>
	<rect x="198.7" y="137.6" width="182.4" height="61"/>
	<rect x="198.7" y="229.9" width="182.4" height="61"/>
	<rect x="199" y="291" width="89.5" height="96.8"/>
	<rect x="288.6" y="290.7" width="78.9" height="25.4"/>
	<polyline points="525.3,387.8 525.3,290.9 367.5,290.9 367.5,316.1 288.6,316.1 288.6,387.8 	"/>
	<polygon points="173.3,41.2 173.3,137.6 381,137.6 381,160 525.3,160 525.3,137.6 525.3,130.1 525.3,41.2 	"/>
	<rect x="55.2" y="118.4" width="118.1" height="41.4"/>
	<rect x="79.3" y="159.7" width="94" height="45.1"/>
	<polygon points="173.3,290.9 173.3,268.4 173.3,214.8 79.3,214.8 79.3,268.4 54.8,268.4 54.8,387.8 80.6,387.8 173.3,387.8 
		199,387.8 199,290.9 	"/>
	<polygon points="503.4,264.3 503.4,170 391,170 391,280.9 501.9,280.9 503.4,280.9 525.3,280.9 525.3,264.3 	"/>
</g>
</svg>
