<?xml version="1.0" encoding="utf-8"?>
<!-- Generator: Adobe Illustrator 23.0.1, SVG Export Plug-In . SVG Version: 6.00 Build 0)  -->
<svg version="1.1" id="F7" xmlns="http://www.w3.org/2000/svg" xmlns:xlink="http://www.w3.org/1999/xlink" x="0px" y="0px"
	 viewBox="0 0 580.1 428.6" style="enable-background:new 0 0 580.1 428.6;" xml:space="preserve">
<style type="text/css">
	.st0{fill:#606060;}
</style>
<g>
	<polygon class="st0" points="343.6,117.2 349.6,183.4 362,190.4 369,199.4 374.4,209.7 375.6,224.3 371.3,239.6 362,253.9 
		357.8,264.8 367.8,279.4 369,295.4 375.6,308.2 497.5,289.2 484.5,88.4 481.1,81.4 472.6,73.2 463.5,66.8 445.4,59.4 421.7,60.4 	
		"/>
	<polygon class="st0" points="497.5,289.2 375.6,308.2 369,295.4 367.8,279.4 357.8,264.8 362,253.9 371.3,239.6 375.6,224.3 
		374.4,209.7 369,199.4 371.9,193.1 376.6,195.6 381.8,194.8 379.5,178.8 385.1,178.8 384.7,173 474.6,159.3 483.1,215.4 
		487.5,215.4 480.9,163.5 489.2,161.8 	"/>
	<polygon class="st0" points="343.6,117.2 378.8,91.6 421.7,60.4 445.4,59.4 463.5,66.8 472.6,73.2 481.1,81.4 484.5,88.4 
		488.7,153.8 408.1,165.8 389,168.7 388.3,166.8 382.8,168.9 382.6,166.2 362.6,172.8 363.6,179.5 362,190.4 349.6,183.4 	"/>
</g>
</svg>
