<?xml version="1.0" encoding="utf-8"?>
<!-- Generator: Adobe Illustrator 23.0.1, SVG Export Plug-In . SVG Version: 6.00 Build 0)  -->
<svg version="1.1" id="B1" xmlns="http://www.w3.org/2000/svg" xmlns:xlink="http://www.w3.org/1999/xlink" x="0px" y="0px"
	 viewBox="0 0 580.1 428.6" style="enable-background:new 0 0 580.1 428.6;" xml:space="preserve">
<style type="text/css">
	.st0{fill:#606060;}
</style>
<polygon points="130.3,166.3 109.7,166 111.1,39.2 478.3,39.8 478.6,166.3 457.3,166.3 457.3,264.5 480.3,264.5 479.3,391.5 
	109.3,391.5 109.3,264.5 130.3,264.5 "/>
<polygon class="st0" points="224.3,232.3 279.8,232.3 279.3,259.6 254.7,259.6 254.3,268.3 224.3,268.3 "/>
<polygon class="st0" points="282.5,233.9 282.3,259.3 306.1,259.3 306.1,233.9 "/>
<rect x="224.3" y="270.3" class="st0" width="30" height="17.4"/>
<rect x="255.8" y="261.3" class="st0" width="65.2" height="26"/>
<rect x="322.3" y="261.3" class="st0" width="39.8" height="26"/>
<rect x="379.3" y="249.3" class="st0" width="65.8" height="36"/>
<rect x="308.2" y="233.6" class="st0" width="26.5" height="26"/>
<rect x="336.7" y="233.5" class="st0" width="24.3" height="26"/>
<polygon class="st0" points="282.5,172.9 282.3,198.3 306.1,198.3 306.1,172.9 "/>
<rect x="308.2" y="172.6" class="st0" width="26.5" height="26"/>
<rect x="336.7" y="172.5" class="st0" width="24.3" height="26"/>
<rect x="224.3" y="172.3" class="st0" width="55.8" height="26.2"/>
<polygon class="st0" points="227.3,142.3 249.3,142.6 249.3,170 228.2,170 "/>
<rect x="251.1" y="142.6" class="st0" width="56.6" height="27.5"/>
<polygon class="st0" points="310.3,142.6 361.3,143.1 361.3,170 310.3,170 "/>
<rect x="379.3" y="166.3" class="st0" width="65.5" height="80.4"/>
<rect x="377.3" y="51.3" class="st0" width="89.5" height="112.4"/>
<rect x="448.3" y="266.3" class="st0" width="18.9" height="21.4"/>
<polygon class="st0" points="120.3,324.3 120.3,380.1 207.3,380.1 206.9,323.8 "/>
<rect x="120.3" y="266.3" class="st0" width="17" height="23"/>
<polygon class="st0" points="139.3,164.1 139.3,247.1 209.3,246.7 209.3,163.3 "/>
<polygon class="st0" points="139.3,248.4 139.3,284.1 209.3,284.1 209.3,248.1 "/>
<polygon class="st0" points="120.3,290.6 120.3,322.1 146.3,322.1 146.3,290.3 "/>
<polygon class="st0" points="148.3,285.6 148.3,322.1 207.3,322.1 207.3,285.3 "/>
<polygon class="st0" points="227.3,290.1 290.3,289.3 290.3,380 227.3,380 "/>
<polygon class="st0" points="294.3,290.1 357.3,289.3 357.3,380 294.3,380 "/>
<polygon class="st0" points="377.3,290.1 466.3,289.3 466.3,380 377.3,380 "/>
<rect x="120.3" y="51.3" class="st0" width="238" height="89"/>
</svg>
