<?xml version="1.0" encoding="utf-8"?>
<!-- Generator: Adobe Illustrator 23.0.1, SVG Export Plug-In . SVG Version: 6.00 Build 0)  -->
<svg version="1.1" id="B1" xmlns="http://www.w3.org/2000/svg" xmlns:xlink="http://www.w3.org/1999/xlink" x="0px" y="0px"
	 viewBox="0 0 580.1 428.6" style="enable-background:new 0 0 580.1 428.6;" xml:space="preserve">
<style type="text/css">
	.st0{fill:#606060;}
</style>
<polygon points="124.4,163.3 103.7,163.3 103.7,36.5 472.4,37.1 472.6,163.6 451.4,163.6 451.4,261.8 474.4,261.8 473.4,388.8 
	103.4,388.8 103.4,261.8 124.4,261.8 "/>
<polygon class="st0" points="103.7,127.2 194.4,127.2 194.4,180.6 124.4,180.1 124.4,163.3 103.7,163.3 "/>
<rect x="273.2" y="45.5" class="st0" width="63.8" height="75.7"/>
<rect x="416.4" y="45.5" class="st0" width="45.9" height="106.4"/>
<polyline class="st0" points="348.4,45.5 405.3,45.5 405.3,121 348.4,121 "/>
<polygon class="st0" points="262.4,45.5 262.4,118.2 210.3,118.2 210.3,109.6 191.3,109.6 191.3,45.5 "/>
<rect x="115.4" y="45.5" class="st0" width="64.7" height="64.1"/>
<rect x="124.4" y="180.1" class="st0" width="70" height="42.3"/>
<rect x="227.4" y="318.1" class="st0" width="60.5" height="70.7"/>
<rect x="300" y="318.1" class="st0" width="92.2" height="70.7"/>
<rect x="392.2" y="312.9" class="st0" width="82.2" height="75.9"/>
<polygon class="st0" points="392.2,163.6 451.4,163.6 451.4,210.8 451.4,214.3 441.3,214.5 392.2,214.5 "/>
<polygon class="st0" points="392.2,261.8 451.4,261.8 451.4,217 451.4,214.3 444.9,214.5 392.2,214.5 "/>
<polygon class="st0" points="392.2,312.9 474.4,312.9 474.4,264.4 474.4,261.4 465.4,261.6 392.2,261.6 "/>
<polygon class="st0" points="124.4,222.1 194.4,222.1 194.4,251.1 192.8,256.9 188.8,259.6 183.4,261.9 124.4,261.9 "/>
<polygon class="st0" points="103.4,261.8 103.4,318.1 161.4,318.1 161.4,300 177.1,300 177.1,261.8 "/>
<rect x="103.4" y="318.1" class="st0" width="69" height="70.7"/>
<rect x="172.4" y="318.1" class="st0" width="55" height="70.7"/>
<g>
	<polygon class="st0" points="221.5,228.5 277.3,228.5 277.3,255.9 253,255.9 253,260.9 221.5,260.9 	"/>
	<rect x="221.5" y="260.9" class="st0" width="31.5" height="21"/>
	<rect x="253" y="255.9" class="st0" width="65.8" height="26"/>
	<rect x="318.8" y="255.9" class="st0" width="39.6" height="26"/>
	<polygon class="st0" points="277.3,166.9 277.3,193.1 303.3,192.9 303.3,166.9 	"/>
	<rect x="303.3" y="166.9" class="st0" width="28.6" height="26"/>
	<polygon class="st0" points="331.9,166.9 331.9,192.9 358.5,193.2 358.5,166.9 	"/>
	<polygon class="st0" points="277.3,228.5 277.3,255.9 303.3,255.9 303.3,228.5 	"/>
	<rect x="303.3" y="228.5" class="st0" width="28.6" height="27.4"/>
	<polygon class="st0" points="331.9,228.5 331.9,255.9 358.4,255.9 358.5,228.5 	"/>
	<rect x="221.5" y="166.9" class="st0" width="55.8" height="26.2"/>
	<polygon class="st0" points="221.5,136.9 246.5,137.2 246.5,166.9 221.5,166.9 	"/>
	<polyline class="st0" points="246.5,137.2 305,137.2 305,166.9 246.5,166.9 	"/>
	<polygon class="st0" points="305,137.2 358.5,137.7 358.5,166.9 305,166.9 	"/>
</g>
</svg>
