<?xml version="1.0" encoding="utf-8"?>
<!-- Generator: Adobe Illustrator 23.0.1, SVG Export Plug-In . SVG Version: 6.00 Build 0)  -->
<svg version="1.1" id="图层_3" xmlns="http://www.w3.org/2000/svg" xmlns:xlink="http://www.w3.org/1999/xlink" x="0px" y="0px"
	 viewBox="0 0 580.1 428.6" style="enable-background:new 0 0 580.1 428.6;" xml:space="preserve">
<style type="text/css">
	.st0{fill:#606060;}
</style>
<polygon class="st0" points="82.6,163.3 120.4,162.3 197.2,149.8 333.9,113.3 373.5,94.5 489.9,43.3 493.7,72.9 491.6,200.7 
	493.7,303.4 395,318.4 246.9,340.3 108,385.3 91.8,336.5 85.1,257 "/>
<polygon class="st0" points="489.9,42.4 375,93.9 389.9,217.3 403.6,216.3 415.1,315.2 493.7,303.4 491.6,199.7 493.7,71.9 "/>
<polygon class="st0" points="219.3,143.9 333.9,113.3 375,93.9 389.9,217.3 403.6,216.3 415.1,315.2 246.9,340.3 "/>
<polygon class="st0" points="82.6,163.3 120.4,162.3 197.2,149.8 219.3,143.9 246.9,340.3 108,385.3 91.8,336.5 85,257.9 "/>
</svg>
