<?xml version="1.0" encoding="utf-8"?>
<!-- Generator: Adobe Illustrator 23.0.1, SVG Export Plug-In . SVG Version: 6.00 Build 0)  -->
<svg version="1.1" id="B1" xmlns="http://www.w3.org/2000/svg" xmlns:xlink="http://www.w3.org/1999/xlink" x="0px" y="0px"
	 viewBox="0 0 580.1 428.6" style="enable-background:new 0 0 580.1 428.6;" xml:space="preserve">
<g id="_x31_2层">
	<rect x="199.1" y="137.8" width="175.8" height="61"/>
	<rect x="194.4" y="52.8" width="179.1" height="67"/>
	<rect x="54.5" y="41.2" width="114.9" height="55.5"/>
	<rect x="54.5" y="96.7" width="114.9" height="59.1"/>
	<rect x="78.7" y="155.8" width="90.7" height="55.7"/>
	<path d="M158.9,279.8H78.7v-68.4h90.7v57.9C169.4,275.1,164.7,279.8,158.9,279.8z"/>
	<rect x="199.1" y="230.1" width="175.8" height="61"/>
	<rect x="131.5" y="304.5" width="94.9" height="71.3"/>
	<rect x="236.9" y="304.5" width="95" height="71.3"/>
	<rect x="342.3" y="304.5" width="89.1" height="71.3"/>
	<rect x="393.6" y="156.3" width="58.7" height="93.4"/>
	<polygon points="489.3,262.8 489.3,284.5 448.1,284.5 448.1,380.9 513.1,380.9 513.1,289.4 513.1,284.5 513.1,262.8 	"/>
	<rect x="54.5" y="263.7" width="24.2" height="24.7"/>
	<g>
		<rect x="54.5" y="288.4" width="65.6" height="99.6"/>
		<rect x="78.7" y="279.7" width="41.4" height="8.7"/>
	</g>
	<path d="M398.1,41.2l-0.7,37.9c15.5-0.5,35,1.7,52.4,13.1c17.5,11.5,26.4,25.3,32.1,39.8l31.2,1.3V41.2H398.1z"/>
</g>
</svg>
