<?xml version="1.0" encoding="utf-8"?>
<!-- Generator: Adobe Illustrator 23.0.1, SVG Export Plug-In . SVG Version: 6.00 Build 0)  -->
<svg version="1.1" id="B1" xmlns="http://www.w3.org/2000/svg" xmlns:xlink="http://www.w3.org/1999/xlink" x="0px" y="0px"
	 viewBox="0 0 580.1 428.6" style="enable-background:new 0 0 580.1 428.6;" xml:space="preserve">
<polygon points="105.4,100.3 104.7,162 198.7,162.9 198.7,100.3 "/>
<polygon points="105.7,35.3 105.4,100.3 198.7,100.3 198.7,35.3 "/>
<rect x="375.7" y="163.3" width="43.5" height="79.4"/>
<rect x="452.3" y="260.5" width="22.9" height="29.2"/>
<polygon points="125.3,213.2 198.7,213.2 198.7,213.2 198.7,264.6 193.9,271.5 187.7,274 125.3,274 "/>
<polygon points="125.3,278.9 104.3,278.9 104.3,387.5 166.3,387.5 166.3,274 125.3,274 "/>
<rect x="104.3" y="260.4" width="21" height="18.4"/>
<polygon points="125.3,162.3 125.3,213.2 198.7,213.2 198.7,162.9 "/>
<rect x="184.7" y="298.1" width="212.4" height="71.9"/>
<polygon points="416,282.3 416.4,387.5 474.8,387.5 475.2,289.7 452.3,289.7 452.3,282.3 "/>
<rect x="211" y="52.3" width="156.7" height="68.7"/>
<polygon points="381.3,36.1 381.3,85.6 391.3,87.3 402,90 416,97.8 425.9,107 434.6,119.9 437.5,131.9 437.5,143.1 437.5,161.9 
	472.8,161.9 472.8,36.1 "/>
<g>
	<polygon points="221.8,228 277.6,228 277.6,255.4 253.3,255.4 253.3,260.4 221.8,260.4 	"/>
	<rect x="221.8" y="260.4" width="31.5" height="21"/>
	<rect x="253.3" y="255.4" width="65.8" height="26"/>
	<rect x="319.1" y="255.4" width="39.6" height="26"/>
	<polygon points="277.6,166.4 277.6,192.6 303.6,192.4 303.6,166.4 	"/>
	<rect x="303.6" y="166.4" width="28.6" height="26"/>
	<polygon points="332.2,166.4 332.2,192.4 358.8,192.7 358.8,166.4 	"/>
	<polygon points="277.6,228 277.6,255.4 303.6,255.5 303.6,228 	"/>
	<rect x="303.6" y="228" width="28.6" height="27.4"/>
	<polygon points="332.2,228 332.2,255.4 358.7,255.4 358.8,228 	"/>
	<rect x="221.8" y="166.4" width="55.8" height="26.2"/>
	<polygon points="221.8,136.4 246.8,136.7 246.8,166.4 221.8,166.4 	"/>
	<polyline points="246.8,136.7 305.2,136.7 305.2,166.4 246.8,166.4 	"/>
	<polygon points="305.2,136.7 358.8,137.3 358.8,166.4 305.2,166.4 	"/>
</g>
</svg>
