<?xml version="1.0" encoding="utf-8"?>
<!-- Generator: Adobe Illustrator 23.0.1, SVG Export Plug-In . SVG Version: 6.00 Build 0)  -->
<svg version="1.1" id="图层_2" xmlns="http://www.w3.org/2000/svg" xmlns:xlink="http://www.w3.org/1999/xlink" x="0px" y="0px"
	 viewBox="0 0 580.1 428.6" style="enable-background:new 0 0 580.1 428.6;" xml:space="preserve">
<style type="text/css">
	.st0{fill:#606060;}
</style>
<polygon class="st0" points="80.2,162.3 118,161.3 194.8,148.8 331.5,112.3 371.1,93.5 487.5,42.4 491.3,71.9 489.2,199.7 
	491.3,302.5 392.6,317.5 244.5,339.3 105.6,384.3 89.4,335.5 82.6,256.1 "/>
<polygon class="st0" points="487.5,42.4 371.1,93.5 373.5,108 379.9,107.3 385.5,143.6 335.4,155.2 349.1,206.1 344.3,208.8 
	350.6,255 375,251.3 377.4,268.6 392.4,317.3 491.3,302.5 489.2,199.7 491.3,71.9 "/>
<polygon class="st0" points="194.9,148.8 331.5,112.3 371.1,93.5 373.5,108 379.9,107.3 385.7,143.8 335.4,155.2 349.2,206.2 
	344.7,208.8 350.8,255 374.9,251.3 377.5,268.6 392.6,317.5 244.5,339.4 228.3,292.3 212.9,173.3 202.9,173.3 202.8,162.8 
	194.9,162.3 "/>
<polygon class="st0" points="80.2,162.3 118,161.3 194.8,148.8 194.8,162.3 202.9,162.8 202.9,173.3 212.9,173.3 228.2,291.1 
	244.5,339.3 105.6,384.3 89.4,335.5 83.1,263.8 "/>
</svg>
