<?xml version="1.0" encoding="utf-8"?>
<!-- Generator: Adobe Illustrator 23.0.1, SVG Export Plug-In . SVG Version: 6.00 Build 0)  -->
<svg version="1.1" id="B1" xmlns="http://www.w3.org/2000/svg" xmlns:xlink="http://www.w3.org/1999/xlink" x="0px" y="0px"
	 viewBox="0 0 580.1 428.6" style="enable-background:new 0 0 580.1 428.6;" xml:space="preserve">
<style type="text/css">
	.st0{fill:#606060;}
</style>
<g>
	<polygon points="124.5,163.3 103.5,163.3 103.5,36.5 474.5,36.5 474.5,163.6 451.5,163.6 451.5,261.8 474.5,261.8 474.5,388.8 
		103.5,388.8 103.5,261.8 124.5,261.8 	"/>
	<rect x="367.8" y="242.2" class="st0" width="83.7" height="41.7"/>
	<polygon class="st0" points="367.8,163.3 451.5,163.6 451.5,242.2 367.8,242.2 	"/>
	<polygon class="st0" points="474.5,163.6 474.5,36.5 366.9,36.5 367.8,163.3 	"/>
	<rect x="451.5" y="261.8" class="st0" width="23" height="22.2"/>
	<polygon class="st0" points="103.5,319.3 103.5,388.8 192.6,388.8 192.3,319.3 	"/>
	<rect x="103.5" y="261.8" class="st0" width="21" height="22.2"/>
	<polygon class="st0" points="124.5,163.3 192.6,163.3 192.6,237.2 124.5,237.2 	"/>
	<rect x="124.5" y="237.2" class="st0" width="68.1" height="42.8"/>
	<polygon class="st0" points="103.5,134.6 164.6,134.8 164.6,163.4 103.5,163.3 	"/>
	<polygon class="st0" points="164.6,134.7 192.6,134.9 192.6,163.3 164.6,163.4 	"/>
	<rect x="103.5" y="283.9" class="st0" width="25.1" height="35.4"/>
	<rect x="128.6" y="280" class="st0" width="63.9" height="39.3"/>
	<rect x="210.8" y="279.4" class="st0" width="70.8" height="109.3"/>
	<rect x="281.8" y="279.4" class="st0" width="66.1" height="109.3"/>
	<rect x="367.8" y="283.9" class="st0" width="106.8" height="104.8"/>
	<polygon class="st0" points="103.5,36.5 275.6,36.5 275,135.2 103.5,134.6 	"/>
	<polygon class="st0" points="275.6,36.5 347.6,36.9 347.8,135.2 275.2,134.6 	"/>
	<polygon class="st0" points="210.8,226 266.6,226 266.6,253.4 242.3,253.4 242.3,258.4 210.8,258.4 	"/>
	<rect x="210.8" y="258.4" class="st0" width="31.5" height="21"/>
	<rect x="242.3" y="253.4" class="st0" width="65.8" height="26"/>
	<rect x="308.1" y="253.4" class="st0" width="39.6" height="26"/>
	<polygon class="st0" points="266.6,164.4 266.6,190.6 292.6,190.4 292.6,164.4 	"/>
	<rect x="292.6" y="164.4" class="st0" width="28.6" height="26"/>
	<polygon class="st0" points="321.2,164.4 321.2,190.4 347.9,190.7 347.9,164.4 	"/>
	<polygon class="st0" points="266.6,226 266.6,253.4 292.6,253.4 292.6,226 	"/>
	<rect x="292.6" y="226" class="st0" width="28.6" height="27.4"/>
	<polygon class="st0" points="321.2,226 321.2,253.4 347.8,253.4 347.9,226 	"/>
	<rect x="210.8" y="164.4" class="st0" width="55.8" height="26.2"/>
	<polygon class="st0" points="210.8,134.4 235.9,134.7 235.9,164.4 210.8,164.4 	"/>
	<polyline class="st0" points="235.9,134.7 294.3,134.7 294.3,164.4 235.9,164.4 	"/>
	<polygon class="st0" points="294.3,134.7 347.9,135.2 347.9,164.4 294.3,164.4 	"/>
	<rect x="124.5" y="280" class="st0" width="4.1" height="3.9"/>
</g>
</svg>
