<?xml version="1.0" encoding="utf-8"?>
<!-- Generator: Adobe Illustrator 23.0.1, SVG Export Plug-In . SVG Version: 6.00 Build 0)  -->
<svg version="1.1" id="B1" xmlns="http://www.w3.org/2000/svg" xmlns:xlink="http://www.w3.org/1999/xlink" x="0px" y="0px"
	 viewBox="0 0 580.1 428.6" style="enable-background:new 0 0 580.1 428.6;" xml:space="preserve">
<g id="_x31_3层">
	<rect x="198.9" y="137.9" width="182.4" height="61"/>
	<rect x="406.4" y="41" width="118.9" height="61.3"/>
	<rect x="406.4" y="160.1" width="94.5" height="86.7"/>
	<rect x="406.4" y="289.4" width="118.6" height="91.4"/>
	<rect x="198.9" y="291.1" width="92" height="92"/>
	<rect x="290.7" y="291.1" width="90.6" height="92"/>
	<rect x="406.4" y="102.2" width="118.9" height="57.9"/>
	<rect x="198.9" y="230.3" width="182.4" height="61"/>
	<rect x="54.8" y="41.2" width="326.4" height="96.7"/>
	<polygon points="500.8,263.8 500.8,246.8 406.4,246.8 406.4,289.4 497.3,289.4 500.8,289.4 525,289.4 525,263.8 	"/>
	<rect x="54.8" y="137.7" width="119.3" height="21.9"/>
	<rect x="79.3" y="243.6" width="94.4" height="40"/>
	<rect x="54.9" y="324.6" width="118.8" height="58.5"/>
	<rect x="87.7" y="283.6" width="85.9" height="41"/>
	<polygon points="79.3,283.6 79.3,264.1 54.9,264.1 54.9,283.6 54.9,324.6 87.7,324.6 87.7,283.6 	"/>
	<rect x="79.3" y="159.6" width="94.4" height="84"/>
</g>
</svg>
