<?xml version="1.0" encoding="utf-8"?>
<!-- Generator: Adobe Illustrator 23.0.1, SVG Export Plug-In . SVG Version: 6.00 Build 0)  -->
<svg version="1.1" id="F1" xmlns="http://www.w3.org/2000/svg" xmlns:xlink="http://www.w3.org/1999/xlink" x="0px" y="0px"
	 viewBox="0 0 580.1 428.6" style="enable-background:new 0 0 580.1 428.6;" xml:space="preserve">
<style type="text/css">
	.st0{fill-rule:evenodd;clip-rule:evenodd;fill:#606060;}
	.st1{fill:#606060;}
</style>
<path class="st0" d="M104.7,188l-3.2-28.3l7-1.8l-1.2-6.8l84.5-13.3l17,11.1l2.6,30.3l31.3-4.9l8.1-3.1L248,161l-5.3,1.6l-2.4-15.7
	l16.8-20.3l69.6-21.1l36.5,3.8l26.4-6.3v-7.6L456,49.3c7.6-3.2,11.6-4.8,11.9-4.8c11.8-0.9,21.8,0.8,30,5.3c2.4,1.3,5.7,3.9,9.7,7.8
	c2,2.6,3.8,4.9,5.3,6.8c2.2,2.8,4,5.5,5.8,7.5c-2,0-3.5,0.1-4.6,0.2l2.9,28l0.5,29l-4.2,20l2.3,22.9l-14,1.9l6.7,47l13.3-1.9
	l4.2,30.3l-2.9,0.7l3.2,16.7l-21.9,7.5l-11.9,23.1l-24.4,7.7c-6.5,0.9-12.2,1.5-17.3,2c-5,0.5-9.7,0.9-14,1.4l-16.5-6.5l-10.3,3.6
	v8.6l-35.9,4.2l-29.2,3.8l-1.3-4.2l-24.2,3.9v5.8l-55.5,7.1l-34.3,7.9l-31.5,10.7l-20.4,7.1l-3.1-5.6l-21,7.8l1.3,4.5l-51.6,15.9
	l-9.6-28.2L69,304.2l-4.9-115.5l14.6-0.8v-4.7l18.5,1.3L104.7,188z"/>
<polygon class="st0" points="261.2,289.1 255,309.7 263.5,334.9 276.1,333 274.4,318.7 267.2,319.8 267.2,315 272.8,315 
	276.1,314.5 275,305.4 277.3,305.4 278.3,314.5 279.6,314.3 280,319.8 281.4,319.8 281,314.1 294,312.3 295.1,320.1 297.2,320.1 
	296,312.1 293.6,297.3 272.8,300.5 270.7,287.4 "/>
<polygon class="st1" points="243.1,174.3 264.8,166.2 266.2,169.4 284.3,163.5 282.5,157.7 311.9,148.8 317.9,169 261.2,187.4 
	244.1,178.5 "/>
<polygon class="st0" points="343.4,317.7 339.5,290.9 342.6,289.7 341.1,284.8 339.5,285.2 338.5,280.8 367.8,271.4 388.7,268.9 
	392.3,281.9 375.3,288.2 378.3,296.9 379.8,301.2 375.9,302.8 374.4,298.5 367.8,301.2 370.6,308.8 373.7,307.6 377.3,317.7 
	344.7,322.2 "/>
<path class="st0" d="M139.3,295.7l-0.8-27l57.6-2.6v8.5h-0.9c0.3,3.1,0.6,5.7,0.9,7.8l-27.5,12.7L139.3,295.7z"/>
<path class="st0" d="M340.1,107l6.8,24.2l13.8-4.3l1.6,6.4l-42.8,13.4l4.4,13.6l27.5,13.3c1.8-6.3,8-11.6,18.5-16.2l0.2-22.9l-7-25
	L340.1,107z"/>
<path class="st0" d="M64.1,188.7l14.6-0.7v-4.7l18.4,1.3l7.6,3.4l7,12.9v17.8c0.7,4.9,4,10.2,9.7,16l-7.1,10.2l-11.1,0.8l-0.4-16.2
	l-1.5-17.2l-19.4,0.9l-0.4-10l-17.1,0.9L64.1,188.7z"/>
<polygon class="st0" points="225.4,195.9 247.3,191.8 247.5,193.4 252,192.5 253.8,206.4 249.2,207 249.5,209.3 227.1,215.6 "/>
<polygon class="st0" points="162.4,142.4 163.3,171.9 177.5,170.9 177.5,160.5 180.4,160.5 180.4,170.9 189.5,170.3 189.5,163.3 
	195.2,163.3 195.2,173.5 163.3,175.3 163.7,200.5 193.3,199.7 212.1,184.5 208.9,148.9 191.8,137.7 "/>
<polygon class="st0" points="122,148.8 122,163.3 136.4,162.8 136.4,158.6 154,158.5 154.1,150.8 154.1,143.8 "/>
<polygon class="st0" points="131.6,175.1 131.6,178.9 154.7,177.6 154.7,169.4 144.1,169.4 144.1,165.6 140.2,165.6 140.2,169.4 
	128.9,169.4 128.9,175.1 "/>
<polygon class="st0" points="267.1,155.3 262.7,141.9 258.6,142.9 257.6,138.8 275.5,133.4 276.9,137.9 287.9,134.6 283.4,118.7 
	256.7,126.8 240.2,147 242.2,163.2 "/>
<polygon class="st0" points="436.6,218.7 456.1,215.9 460.2,244.1 435.3,247.7 436.3,254.6 439.3,254.2 440.8,260.8 437.1,261.5 
	439,268 429.3,270.8 427.1,265 422.3,266.6 419,243.2 415,241.7 413.7,236.4 417.5,236 414.5,226.8 423.8,225.2 424.8,232.8 
	438.5,230.3 "/>
<polyline class="st0" points="442.6,273.8 444.2,289.3 450.7,307.2 468.2,305.2 458.2,274.4 453.7,276.3 451.9,271.3 "/>
<polygon class="st0" points="107.5,151.3 113.2,182.1 121.8,189 149.6,190.5 155,181.6 155,177.4 125.6,179 122,175.6 122,148.8 "/>
<polygon class="st0" points="103.5,335.7 126.9,327.9 128.7,334.4 132.2,333.3 130,326.7 132.8,325.8 144.5,333.8 154.7,367.1 
	139.5,371.6 133.9,355.5 132.8,355.8 129.6,347.4 126.5,348.4 129.3,357.1 128.4,357.5 129.6,361.4 128.4,361.9 126.9,357.9 
	124.4,359 123.3,355.5 116.4,357.9 117.4,361.2 112.1,363.1 "/>
<path class="st0" d="M137.1,240.1c10.7,0.9,18.9-4.3,24.8-15.7l52.9-1.9l2.4,24.6l-17.6,1.5l-0.9-14.6l-21.9,1.5l0.4,13.6l-13.9,0.7
	l0.5,14.4l-25.2,0.7L137.1,240.1z"/>
<path class="st0" d="M247.2,216.6l2.1,30.9l6.9-0.9l-0.9-4.6l9.9-1.4l-1.2-9.5l58.6-9.3l32-4.4c-4.1-5.9-6.5-10.1-7.3-12.7
	s-1.7-6.3-2.7-11.1l-11.1,1.8l-13.9-1L247.2,216.6z"/>
<path class="st0" d="M430.1,148.3l25.2-3.6l2,14.9l-8.2,1.5l7.1,54.9l-45.9,6.6v1.5h-1.9l0.3,2.7l-0.6,0.5l-4-5.1
	c16.6-12.6,20.3-29.1,11.1-49.3l17.8-3.8L430.1,148.3z"/>
<polygon class="st0" points="461.5,284.5 483.2,277.2 476,256.4 523.4,249.2 526.3,266.8 504.5,274.3 492.6,297.4 468.2,305.2 "/>
<path class="st0" d="M502,59.3l1.6,16.2l-3.4,0.5l-1-10.2l-5,0.4l1.1,10.5l-3.1,0.4l0.3,2.8l6.2-0.7l2.8,23.5l3-1l-0.4-7l11.8-1.8
	l-1.8-20.7l4.7-0.2c-7.3-9.4-11.1-14.1-11.3-14.3l-3.8,1L502,59.3z"/>
<polygon class="st0" points="270.8,287.4 306.7,282.1 315.4,289.6 314.4,291.1 319,320.9 319,326.5 298.4,329.5 296,311.8 
	293.6,297.2 272.9,300.4 "/>
<polygon class="st0" points="229.6,342.4 227.2,316.5 212.4,300.3 170.9,314.2 166.6,327.6 177.6,360.2 187.7,356.8 182.3,339.9 
	182.3,336.3 172.5,329.5 173,317.5 189.3,327.6 210.2,320.9 212.9,329.7 214.1,329.5 219.3,345.9 "/>
<path class="st0" d="M67,257l13.1-0.6L82,288c13.9-0.9,21.4-1.4,22.4-1.4l-1.1-31.7l10.5-0.4l3.3,16.3l0.4,26.4h-1.5l-14.5,7.3
	L69,304.1L67,257z"/>
<polygon class="st0" points="446.3,95.5 447.1,100.4 461.8,97.9 463.8,109 476,106.9 476.4,90.3 "/>
<path class="st0" d="M459.4,113.1l0.9,7.9l4.4-0.7l0.5,3.6l17.2-2.6c1.1-4.1,3-7.5,5.5-10.2c3.7-4.1,8.2-6.6,13.8-8.3l-2.8-23.6
	l-6.3,0.6l-2.4-17l9.1-1.3L498,50c-7.5-4.3-17.5-6.1-29.9-5.3l5.6,11l6.9,0.6l4.1,7.8l-2.2,6.9l0.4,21.2l-3,16.5L459.4,113.1z"/>
<path class="st0" d="M444.8,80.3c4.3-9.6,8.4-14.8,12.2-15.5c3.8-0.7,10-1.7,18.6-3l1.7,13.9L444.8,80.3z"/>
<polygon class="st0" points="64.8,204.1 81.9,203.2 82.2,213.2 87.6,212.9 87.6,218.9 97.7,218.5 97.7,222.1 94.7,222.2 94.9,241.8 
	87.6,242.1 87.6,245.9 66.9,247.4 "/>
<path class="st0" d="M390.5,125.5h8.9c-0.3-9.2,1.9-16.1,6.5-20.9c6.9-7.1,12.7-11.7,15.3-12.6c1.8-0.7,4.1-1.5,6.9-2.6
	c7.9-5.8,12.6-10.2,14.1-13.1c1.5-2.9,2.5-5.2,3.2-6.9l5.1-6l6.8-4.8l-1.6-8.9l-66.3,46c0,0.9,0,1.9,0,3.1c0,1.2,0,2.5,0,4.5
	c0,0.7,0.1,1.7,0.1,2.4c0.1,1.2,0.1,2.3,0.2,3.8C390,112.1,390.2,117.5,390.5,125.5z"/>
<polygon class="st0" points="449.8,83.2 451.3,92 475.1,88 473.8,79.1 "/>
<polygon class="st0" points="287.9,134.6 290.8,133.6 291.3,135.5 304.9,131.3 308.9,130 311,138.3 311.9,141.3 271.6,153.5 
	269.6,146.7 264.8,148.4 262.7,141.9 258.6,142.9 257.6,138.8 275.5,133.4 276.9,137.9 "/>
<polygon class="st0" points="125.3,212 131.5,225.2 127.3,227.1 121.2,214.4 "/>
<polygon class="st0" points="103.5,335.7 93.6,354.9 103.1,382.9 114.3,379.4 105.9,352.1 108.2,350.8 "/>
<polygon class="st0" points="403.8,128.9 411.3,127.2 411.9,137.3 405,138.3 "/>
<polygon class="st0" points="148.4,329.1 156,350.6 166.8,347 160,324.8 "/>
<polygon class="st0" points="428.1,97.2 429.4,106 436.7,104.8 435.4,96.1 "/>
<polygon class="st0" points="430,110.5 431.4,119 438.4,118 437.9,113.8 443.6,112.6 442.9,108.2 437.4,109.1 "/>
<polygon class="st0" points="320.2,290.5 333.1,288.2 337.1,318.9 324.9,320.8 "/>
<polygon class="st0" points="393,268 401.5,294.4 416.5,289.6 408.2,266.3 "/>
<polygon class="st0" points="215.7,197.1 217,213.7 223.3,213.7 223.3,196.2 "/>
<path class="st0" d="M266.9,258.5l1.1,8.8l33.9-5.2l-1.1-5.2l-2.1,0.4l-0.7-3.4l2.8-0.6c-1-5.4-1.5-8.3-1.5-8.8l-12.7,1.8l0.4,8.7
	l-4.5,0.8V250l-1.6-0.9l-1.3-5.4h-10v5.3l-3.7,0.8L266.9,258.5z"/>
<rect x="377.2" y="144.6" class="st0" width="9.3" height="10.6"/>
<polygon class="st0" points="392.4,144.7 400.8,143.8 401.7,153.5 399.3,156.5 392.4,154.1 "/>
<polygon class="st0" points="405.5,114.2 407.1,123.3 415,121.9 413.3,113 "/>
<path class="st0" d="M425.9,276.8l16.7-3l1.6,15.5l6.5,17.9l-14,1.4c-3.4-9.5-5.3-14.5-5.6-15.2
	C430.8,292.8,429.1,287.3,425.9,276.8z"/>
<polygon class="st0" points="458.2,274.4 462.4,273 460.8,268 465.2,266.3 467.1,271.3 470.5,281.6 461.5,284.5 "/>
<polygon class="st0" points="176.7,205.8 176,211.1 199.6,215.1 200.5,209.8 "/>
<polygon class="st0" points="128.6,255 129.6,269 121.2,269.4 121.2,257.6 126.8,242.5 132.2,245 "/>
<polygon class="st0" points="167.3,253.1 181.1,252.5 181.6,266.8 167.3,267.4 167.3,263.1 170.3,263.1 170.3,257.8 167.3,257.8 "/>
<polygon class="st0" points="185.3,251.9 185.9,266.6 196.1,266.1 196,251.3 "/>
<polygon class="st0" points="180.5,238.9 180.7,249.1 194.8,248.9 194.8,241.7 185.3,241.7 185.3,238.6 180.5,238.6 "/>
<polygon class="st0" points="226.2,247.7 240.3,246.1 238.5,223.2 224.5,224.3 "/>
<polygon class="st0" points="363.2,109.3 364.9,115.3 389.8,109.3 389.5,103.1 "/>
<polygon class="st0" points="423.4,97.8 424.6,107.1 417.1,108 416,98.6 "/>
<polygon class="st0" points="428,133.5 429.3,142.2 448.2,139.4 448.1,137.2 449.8,133.8 452.7,133.3 477.8,129.2 477.8,122 
	451.9,125.9 452.2,129.5 "/>
<polygon class="st0" points="392.4,281.7 394.2,287.5 398.7,285.7 401.5,294.2 396.9,296.1 383.8,300.5 382.2,295.9 379.6,286.6 "/>
<polygon class="st0" points="189.3,327.5 198.1,353.2 187.7,356.7 182.1,340 182.1,336.2 172.5,329.4 173,317.4 "/>
<polygon class="st0" points="202.1,251.6 202.8,279.5 219.4,274.8 217.7,249.6 "/>
<polygon class="st0" points="249.7,253.2 251.1,269.2 262,267.7 260.4,251.7 "/>
<polygon class="st0" points="380.5,313 389.6,309.3 390.7,312.3 381.3,316 "/>
<polygon class="st0" points="406.2,142.8 407.6,154.7 415.1,153.7 413.2,141.8 "/>
<rect x="153.9" y="209.1" class="st0" width="7.6" height="7.3"/>
<polygon class="st0" points="86.8,277 94.1,276.6 94.1,278.2 97.4,278.3 97.4,281.7 94.1,281.7 94.1,287.2 86.8,287.7 "/>
<polygon class="st0" points="185.5,254.5 189.2,254.5 189.2,258.1 185.7,258.1 "/>
<path class="st0" d="M367.5,226.3c13.1,4.7,25.5,3.2,36.4-4l4,5.1c-12,9.6-26.5,11.4-42.7,5.3l1.1-3.1L367.5,226.3z"/>
<polygon class="st0" points="417.6,112.3 419,121.2 426.5,119.9 425.5,111.1 "/>
<polygon class="st0" points="455.7,113.3 456.5,120.5 451.3,121.5 452.2,129.6 423.7,134.2 426.1,151.5 419.5,152.5 415.9,129.2 
	418,125.4 443.3,121.2 447,114.8 "/>
<polygon class="st0" points="484.1,154.8 488.3,184.2 502.5,182.8 498.5,152.7 "/>
<polygon class="st0" points="512.8,93.4 514.2,100.8 517,100.5 517.2,113.4 500.5,115.8 498.4,103.9 504.6,101.7 504.2,94.7 "/>
<polygon class="st0" points="206.5,322.1 209.5,330.6 198.3,334.3 198.8,335.7 192.9,337.9 192.4,336.3 189.3,327.6 "/>
<polygon class="st0" points="308.7,241.3 309.7,251.4 314.5,250.7 315,254.4 313.3,254.7 315,262.3 325,262.3 321.2,239.7 "/>
<ellipse class="st0" cx="381.4" cy="184.6" rx="13.9" ry="13.8"/>
<polygon class="st0" points="335.4,188.6 337.9,184.1 340.3,178.8 321.3,169.2 317.9,173.7 313.6,177.3 314.5,188.6 "/>
<polygon class="st0" points="354.7,193.7 358.9,207 364,205.5 359.3,191.5 "/>
<polygon class="st0" points="400.9,194.8 403.4,195.9 405.6,196.9 399.9,210.3 395.1,208.1 "/>
<polygon class="st0" points="85.9,267 85.9,273.1 98.7,273.1 98.7,267 95,267 95,260.4 85.9,260.1 "/>
<polygon class="st0" points="286.9,227.4 288.6,240.5 301.2,238.4 299.3,225.5 "/>
<polygon class="st0" points="263.2,288.9 263.8,295.1 268.4,294.2 267.7,288.3 "/>
<path class="st0" d="M421.9,152.1c0.9,9.1,1.5,13.8,1.9,14.1l4.6-0.5l-2.2-14.3L421.9,152.1z"/>
<polygon class="st0" points="408.3,296.8 409.5,300.1 416.4,297.8 415.7,294.4 "/>
<polygon class="st0" points="229.6,253.7 230.4,260.5 240.3,259.2 239.7,252.5 "/>
<path class="st0" d="M503,67.3c0.1,0,2.5-0.3,7.3-1l0.6,6.3l-7.4,1C503,69.5,502.9,67.3,503,67.3z"/>
<path class="st0" d="M439.8,93c1.6,0,2.9-1.3,2.9-2.9c0-1.6-1.3-2.9-2.9-2.9c-1.6,0-2.9,1.3-2.9,2.9C436.9,91.7,438.2,93,439.8,93z"
	/>
<polygon class="st0" points="376.7,124.8 377.7,133.9 385.8,133.5 384.5,123.7 "/>
<polygon class="st0" points="480,284.1 483.2,292.9 487.6,291.4 484.7,282.3 "/>
<polygon class="st0" points="443.3,253.4 444.4,259.8 455.4,258.5 454.4,252.1 "/>
<polygon class="st0" points="500.9,119.7 501.6,125.3 502.7,130.9 508,130.4 506.8,124.6 507.7,118.6 "/>
<path class="st0" d="M461.2,249.6c1.7,0.1,4.4,0.3,8,0.6l0.7,5.1l5.8-0.9l0.3,2.1l22.5-3.4l-2.2-13.8l27.5-4.3l-2.3-16.1l-13.1,1.9
	l-6.7-46.7l14.1-1.8l-2.4-23.2l4.3-20l-0.5-15.7l-16.7,2.4l-2.1-12c-12.7,5.5-18.3,15.7-16.7,30.6l-27.3,4.3l2.8,20.9l-8.4,1.3
	l7.2,55.3l2.1,14.5c0.9,6.1,1.5,10.5,1.8,13.2c0.3,2.8,0.6,4.6,0.8,5.6"/>
<polygon class="st1" points="336.3,106.6 343.6,131.3 316.6,139.7 313.4,128.8 317.7,127.6 313.8,115.2 316,114.3 314.4,109.2 
	326.6,105.5 "/>
<path class="st1" d="M358.3,220.8c4.6,3.1,7.7,4.9,9.3,5.5l-6.7,19L333.4,260l-3.8-27l-9.1,1.2v1.7l-11.6,2l-1.5-8.5L358.3,220.8z"
	/>
<polygon class="st1" points="261.4,192.3 299.3,181 301.4,185.8 281.1,198.3 278.4,193.8 274.4,196.3 275.6,201.4 261.4,205.6 "/>
</svg>
