<?xml version="1.0" encoding="utf-8"?>
<!-- Generator: Adobe Illustrator 23.0.1, SVG Export Plug-In . SVG Version: 6.00 Build 0)  -->
<svg version="1.1" id="B1" xmlns="http://www.w3.org/2000/svg" xmlns:xlink="http://www.w3.org/1999/xlink" x="0px" y="0px"
	 viewBox="0 0 580.1 428.6" style="enable-background:new 0 0 580.1 428.6;" xml:space="preserve">
<rect x="378.4" y="244.9" width="83.7" height="41.7"/>
<rect x="378.4" y="166" width="83.7" height="78.9"/>
<polygon points="476.4,166.3 476.1,49.3 377.3,49.2 378.4,166.1 "/>
<rect x="462.2" y="264.5" width="23" height="22.2"/>
<polygon points="114.2,322.1 114.2,384.4 203.2,384.4 203,322.1 "/>
<rect x="114.2" y="264.5" width="21" height="22.2"/>
<rect x="135.2" y="166" width="68" height="73.9"/>
<rect x="135.2" y="239.9" width="68" height="42.8"/>
<rect x="114.7" y="137.3" width="61.1" height="28.7"/>
<rect x="175.8" y="137.3" width="27.4" height="28.7"/>
<rect x="114.2" y="286.6" width="25.1" height="35.4"/>
<rect x="139.3" y="282.8" width="63.9" height="39.3"/>
<rect x="221.5" y="282.2" width="70.8" height="102.2"/>
<rect x="292.4" y="282.2" width="66" height="102.2"/>
<rect x="378.4" y="286.6" width="100.6" height="97.8"/>
<polygon points="125.9,49.2 358.1,49.5 358.3,138 124.7,137.4 "/>
<g>
	<polygon points="221.5,228.7 277.3,228.7 277.3,256.1 253,256.1 253,261.1 221.5,261.1 	"/>
	<rect x="221.5" y="261.1" width="31.5" height="21"/>
	<rect x="253" y="256.1" width="65.8" height="26"/>
	<rect x="318.8" y="256.1" width="39.6" height="26"/>
	<polygon points="277.3,167.1 277.3,193.3 303.3,193.1 303.3,167.1 	"/>
	<rect x="303.3" y="167.1" width="28.6" height="26"/>
	<polygon points="331.9,167.1 331.9,193.1 358.5,193.4 358.5,167.1 	"/>
	<polygon points="277.3,228.7 277.3,256.1 303.3,256.2 303.3,228.7 	"/>
	<rect x="303.3" y="228.7" width="28.6" height="27.4"/>
	<polygon points="331.9,228.7 331.9,256.1 358.4,256.1 358.5,228.7 	"/>
	<rect x="221.5" y="167.1" width="55.8" height="26.2"/>
	<polygon points="221.5,137.1 246.5,137.4 246.5,167.1 221.5,167.1 	"/>
	<polyline points="246.5,137.4 305,137.4 305,167.1 246.5,167.1 	"/>
	<polygon points="305,137.4 358.5,138 358.5,167.1 305,167.1 	"/>
</g>
<rect x="135.2" y="282.8" width="4.1" height="3.9"/>
</svg>
