<?xml version="1.0" encoding="utf-8"?>
<!-- Generator: Adobe Illustrator 23.0.1, SVG Export Plug-In . SVG Version: 6.00 Build 0)  -->
<svg version="1.1" id="F3" xmlns="http://www.w3.org/2000/svg" xmlns:xlink="http://www.w3.org/1999/xlink" x="0px" y="0px"
	 viewBox="0 0 580.1 428.6" style="enable-background:new 0 0 580.1 428.6;" xml:space="preserve">
<style type="text/css">
	.st0{fill:#606060;}
</style>
<polygon class="st0" points="224.5,313.6 248.8,307.7 257,332 312.8,323.8 312.1,318.6 335.1,315 336,319.8 402.1,311 401.1,302.7 
	422.3,295.3 426.3,307.7 458.1,304.3 518.1,285.4 512.1,251.7 517.1,250.3 505.8,70.7 500.1,61.6 487.2,51.4 474.1,46.5 462.7,46.5 
	458.2,46.5 445.3,50.2 380.8,97.3 380.8,103.9 355.1,110.2 320.8,106.7 251.8,127.6 235.3,146.2 236.1,160.6 204.4,164.6 
	203.6,149.6 187.8,138.6 105,151.7 105,157.6 99.2,158.6 101.9,176.6 105,180.5 99.2,187 95.5,184.7 76.8,183.6 76.8,187.7 
	62,188.6 64.9,305.1 101.9,303.4 116.2,296.6 128.6,295.3 137.1,320.8 101.9,332.9 91.4,352.6 100.9,380.7 153.1,364 151.1,358.2 
	171,351 173.1,356.6 227.1,338.5 "/>
<polygon class="st0" points="137.1,320.8 145.3,330.4 153.2,357.4 151.1,358.2 153.1,364 100.9,380.7 91.4,352.6 101.9,332.9 "/>
<polygon class="st0" points="150,328.2 156.3,347.3 167.4,343.4 160.2,323.9 "/>
<polygon class="st0" points="169.4,310.7 211,296.3 224.5,313.6 227.1,338.5 173.1,356.6 160.4,320.6 "/>
<polygon class="st0" points="255.1,287.2 248.8,307.7 257,332 312.8,323.8 308,288.2 299.9,280 261.2,285.9 261.2,287.2 
	257.5,288.2 256.9,286.6 "/>
<polygon class="st0" points="313.9,287.4 316,307.9 326.9,306.4 325,286 "/>
<polygon class="st0" points="330.4,283.2 333.5,282.2 334.2,286.4 331.1,287.6 336.2,319.2 356.8,316.2 348.1,290.8 351.5,290.2 
	350.9,286.4 369,280.8 366.1,270.2 363.9,267.7 361.1,267.7 330.4,277.8 "/>
<polygon class="st0" points="368,267.3 369,269.2 372.2,278.1 375.4,278.8 386.6,275.2 391.6,290.2 405.9,285 411.1,299.2 
	422.3,295.3 418,281.9 415.9,281.9 410.3,265.6 408,265.6 407,261.4 "/>
<polygon class="st0" points="354.4,288.6 368.5,283.9 370.7,289.4 372.2,289 370.3,283.2 383.1,279.1 384.4,283.2 388.6,281.3 
	391.6,290.2 405.9,285 411.1,299.2 401.1,302.7 402.1,311 357.1,317 348,290.7 352.9,290.2 356,299.2 358.1,298.3 "/>
<polygon class="st0" points="516.3,238.3 517.1,250.3 512.1,251.7 518.1,285.4 489.6,294.2 458.1,304.3 426.3,307.7 410.9,260.8 
	410,253.2 "/>
<polygon class="st0" points="512.1,175.2 516,238.3 429.4,250.4 425.1,227.2 420.8,228.1 419.5,221 413.2,222.2 411.8,212.8 
	414,212.8 417,214.2 418.2,216 418.2,218 422.9,216.9 421,200.8 434.1,186.5 "/>
<polygon class="st0" points="398.1,226.3 403.9,220.2 413,220.2 411.8,212.7 407,212.7 402.1,213.4 393.7,220.2 "/>
<polygon class="st0" points="405,225.2 413.8,224.2 413.2,222.2 419.6,221 420.8,228 425,227.3 429.4,250.4 410,253.2 406.8,237.1 
	"/>
<path class="st0" d="M363.9,233.5c6.6,1.1,12.3,1.4,16.9,0.7c4.6-0.7,8.9-2.3,12.9-5l6.2,10l3.4,16.4l-36,4.8l-9.1-13L363.9,233.5z"
	/>
<path class="st0" d="M372.2,226.5l7.7-0.3l7.4-2.1l0.8,8.3c-2,1-4.5,1.6-7.4,2c-2.9,0.4-5.9,0.4-9.1,0.1L372.2,226.5z"/>
<polygon class="st0" points="323,266.2 347.2,252.1 352.2,264.9 325,273.6 "/>
<polygon class="st0" points="292.2,266.3 293,275.5 301,273.6 312.8,274.4 311.3,265.4 302.3,265.4 "/>
<polygon class="st0" points="285.8,268.1 286.8,276.2 264.9,279.8 263.3,271 "/>
<path class="st0" d="M209,281.3l43.4-7.6c-0.2,3.9-0.6,6.6-1,8.2c-2,7.3-7,12.1-15.1,14.4C225.6,299.3,216.5,294.3,209,281.3z"/>
<polygon class="st0" points="199.8,283.2 199.8,294.7 176.5,302.8 174,294.7 "/>
<polygon class="st0" points="142.1,299.3 168.6,297.2 171,304.7 146.2,313 145.3,305.9 "/>
<polygon class="st0" points="112.4,267.5 116.1,279.1 116.2,296.6 101.9,303.4 64.9,305.1 63.2,235.7 104.7,234.2 115,229.2 
	116.9,230.9 118.3,241.4 110,259.3 111.2,264 100.4,264 100.4,255.8 101.5,255.8 101.5,252.7 83,253.8 83,267.1 81.7,267.1 
	81.7,270.2 98.4,269.2 98.4,279.1 91.5,279.1 91.5,284.2 101.5,284.2 101.5,270.2 104.7,270.2 104.7,269.2 109.3,269.2 109.3,267.5 
	"/>
<polygon class="st0" points="76.8,187.4 89,189.2 102.5,193 108.3,200.8 112,224.2 109.8,224.2 109.8,227.5 114,227.5 115,229.2 
	104.8,234.4 63.2,235.7 62,188.6 "/>
<polygon class="st0" points="76.8,183.6 95.5,184.7 99.2,187 105,180.5 101.9,176.6 99.2,158.6 105,157.6 107,169.3 112.4,182.5 
	120.2,188.2 108.4,201.8 102.5,193 89,189.2 76.8,187.4 "/>
<polygon class="st0" points="105,151.7 146.3,145.2 146.3,159.2 133.4,159.3 133.4,162.1 144,162.1 144,169.2 133.4,170.2 
	133.4,174.1 128.4,175.2 128.4,177.5 141.9,177.5 142.5,186.7 120.2,188.2 112.4,182.5 107,169.2 105,157.6 "/>
<polygon class="st0" points="170,141.4 146.3,145.1 146.6,188.7 153,192.4 157.3,196.7 170,195.8 168.9,163.4 171,163 "/>
<polygon class="st0" points="121.4,202.4 125,199.2 130.5,196.8 135,195.9 140.5,195.9 149,199.3 154.5,209.2 154.5,215.8 
	151.7,222.2 149,225.8 145.9,227.9 141.2,229.5 136.3,231.4 130.5,230.9 127.1,229.5 124.5,226.4 118.1,213.6 119.2,206.4 "/>
<polygon class="st0" points="123.8,242.6 131.3,244.3 132.4,284.2 122.2,285 120.4,270.8 122.2,265.7 116.9,263.8 "/>
<path class="st0" d="M137,266.4c0.3,0,8.1-0.4,23.4-1.1v3.9h15.4v9.2h3.8l0.4,5.8l-15.5,8.1l-26.7,1.9
	C137.1,275.7,136.8,266.4,137,266.4z"/>
<polygon class="st0" points="135.9,238.3 140.6,238.3 146.8,236.1 152.5,232.2 154,231.4 158.2,226.5 159.5,223.4 186,222.2 
	186,233 181.1,233.6 181.1,237 177.1,237 177.1,234.9 174.2,234.9 174.2,248 164.6,248.3 164.6,247.1 160.5,247.6 161.5,261.2 
	136.6,262.7 "/>
<polygon class="st0" points="164.5,256.4 167,256.4 167,262.3 164.8,262.3 165,266.4 178.7,265.3 178.4,250.6 164.3,251.4 "/>
<polygon class="st0" points="218.2,263.1 219.1,272.1 196.4,276.2 180.3,284.2 178.9,265.2 "/>
<polygon class="st0" points="196.2,249.7 202,249.5 202,250.4 209.5,250.2 209.5,248.7 216.5,248 218.2,263.1 197,264.2 "/>
<polygon class="st0" points="182.1,250.2 193,250 193,253.1 196.4,252.9 197,264.2 182.1,264.9 181.2,252.9 "/>
<polygon class="st0" points="181,240.8 191.5,240.8 191.5,247.3 181.2,247.5 "/>
<polygon class="st0" points="190.4,221.7 213.5,220.2 216.2,244 211,245.6 205,246.2 205,244.9 202.4,244.9 202.4,246.2 
	196.2,246.7 195.4,233.7 191,233.7 "/>
<polygon class="st0" points="220,223.2 222,222.8 224.5,222.2 228.3,222.2 231.2,222.2 233.4,221.7 236,221.7 237.2,242.3 
	234.3,243 232.1,243.3 229.7,243.7 227,244 224.5,244 222,244.3 "/>
<polygon class="st0" points="239.7,216.1 260.3,209.2 264,236.9 259.4,237.6 259.9,243 242.1,246.2 "/>
<polygon class="st0" points="243.5,250.4 244.6,267.7 295.2,260.2 292.5,243 280,244.5 280.5,252.2 277,252.6 276.6,245.6 
	274.3,246.2 273.8,239.6 268,240.2 268,241.8 264,242.7 264,246.2 254.8,247.8 254.8,249.2 252,249.6 251.7,247.8 247.4,248.7 
	247.7,249.6 "/>
<polygon class="st0" points="313.9,239.9 315.1,248.3 334,245.8 335,252.7 321.7,260.7 295.2,260.1 292.6,243 "/>
<polygon class="st0" points="292.6,228.3 301.5,227 302,230.3 304.9,229.9 304.5,226.6 312,225.2 313.9,240 294.8,242.7 "/>
<polygon class="st0" points="348.7,218 361,224.9 358.4,230.2 357.2,230.9 352.3,243 335,252.7 334.1,245.8 325.7,246.9 325.7,244 
	320.6,244 320.6,239.6 317.8,239.6 317.4,238.3 319,237.6 319,235.4 316.7,235.4 315.9,224.9 345,220.2 "/>
<polygon class="st0" points="281.8,229.5 287.9,228.9 289.1,238.3 283.3,239.3 "/>
<polygon class="st0" points="263.3,208.7 266.9,237.3 277,236.1 276,226.5 333.5,219.2 344.3,218 347,215.1 343.7,210.8 
	340.8,205.2 338.5,199.3 337.4,193.4 331,195.2 314,193.4 "/>
<polygon class="st0" points="377.9,217.1 372.2,217.4 366.6,216.3 361.2,214.2 356.6,212.2 353.2,209.2 350.7,206.4 346.6,193 
	346.9,186.7 347.6,182.5 349.6,178.5 352.8,174.6 357.3,170.7 368,166.6 374,166.1 379.9,166.1 384.4,166.6 389,168.1 392.1,170.2 
	394.9,173 396.6,177.5 397.6,182.5 397.2,187.4 401.6,190.2 391.8,208.7 385.6,205.2 "/>
<polygon class="st0" points="405.5,172.8 406.8,176.2 410.3,180.2 414.6,183.2 418.7,184 419.5,184.9 447.7,181.4 444.8,159.9 
	443.4,145.7 438.5,146.3 438.5,149.2 434.2,150.2 433.9,147.1 420,149.2 422.6,171.7 414.6,172.8 414.6,171.2 "/>
<polygon class="st0" points="405.5,172.8 406.8,176.2 410.3,180.2 414.6,183.2 418.7,184 419.5,184.9 447.7,181.4 444.8,159.9 
	443.4,145.7 438.5,146.3 438.5,149.2 434.2,150.2 433.9,147.1 420,149.2 422.6,171.7 414.6,172.8 414.6,171.2 "/>
<polygon class="st0" points="490.8,130.6 493.7,155 492,155.2 493.7,165.4 490.3,166.1 491,172.5 447.5,179.7 446.6,173.4 
	451.8,172.5 447.5,145.7 469.2,142.2 468.5,134.2 "/>
<polygon class="st0" points="490.9,54.3 485,62 492.3,116.9 480,118.5 481.4,132.2 490.8,130.6 493.8,155 499.3,154.2 501.5,168.1 
	494.7,169.2 495.8,177.5 512.4,175.2 505.8,70.2 500.1,61.6 "/>
<polygon class="st0" points="166.3,208 169.3,216.2 194.7,214.1 195.8,209.2 209,209.2 209.5,198.9 196.3,199.3 192.5,205.2 
	189.7,205.2 187.9,200.2 "/>
<polygon class="st0" points="223.9,194.9 223.4,190.2 233,188.9 233.8,193.7 248.7,191.9 250,203.2 243.6,204.2 244,208 
	235.6,210.6 222,211.9 216.9,212.8 214.9,195.9 "/>
<polygon class="st0" points="260.2,186.7 259,193.4 261.2,202.6 296.8,192.2 292.6,177.5 "/>
<polygon class="st0" points="333,179.2 327.7,188.2 310.1,187.9 305.1,178.2 313.2,169.1 "/>
<polygon class="st0" points="177.7,156.5 177.7,170.6 184.8,170.6 184.8,163.6 186.7,163.6 186.3,156.9 188.6,156.9 189.3,173.3 
	177.7,173.3 177.7,174.5 174.9,174.5 174.9,195.6 189.8,194.6 204.4,186.8 215.5,184.7 214.1,163.4 204.4,164.6 203.6,149.6 
	187.8,138.6 170,141.4 170.6,154.6 177.7,154.9 "/>
<polygon class="st0" points="238.6,160.2 241.4,178.9 215.5,184.7 214.1,163.4 "/>
<polygon class="st0" points="259,149.8 260.7,155.8 248.7,159.3 249.6,163.3 239.6,166.1 238.7,160.2 236,160.2 235.1,146.2 
	251.8,127.6 307.6,110.2 316,138.2 294.6,145.1 293.4,141.8 288.3,143.1 286.2,135.2 284.5,136.1 288.3,148.5 272.2,152.9 
	271,149.8 264.9,152.2 263.3,148.5 "/>
<polygon class="st0" points="253.5,181 268,177.3 268.6,178.5 282.2,174.6 280.7,169 279.4,169 278.6,166.5 279.8,166.1 
	276.5,154.2 262.8,158.9 263.3,160.2 260.1,161.4 259.4,160.6 239.5,166.2 241.5,178.9 247,178.5 250,179.2 "/>
<polygon class="st0" points="285.5,152.8 292.2,150.8 292.2,149.5 298,147.7 298.5,148.8 305.2,146.7 305.2,145.5 311.6,143.5 
	315.6,156.8 315.6,159.3 308.8,161.9 303.6,167.9 285.5,173 284,167.4 285,167.4 284.6,164.3 283.3,164.9 279.9,153.2 285,151.7 "/>
<polygon class="st0" points="321.1,150.6 317.4,151.9 319,156.8 318.3,161.4 336.4,169.2 349.4,164.9 354.5,160.2 377.7,154.8 
	373,137.5 371.9,135.2 372.2,128.8 375.4,123.6 362.5,123.6 352.5,126.7 353.7,131.7 337.2,136.9 337.2,136.1 332.9,137.5 
	335.2,146.4 329.8,147.9 327.7,140.2 319,143.1 "/>
<polygon class="st0" points="355.1,110.2 353.8,112.2 348.1,114.2 352.4,126.6 343.7,129.6 342.5,125.7 335.2,127.4 336.3,131.7 
	331.1,133.3 331.5,135.2 325.6,137.8 323.6,131.7 318.3,133.3 319.1,136.5 315.8,137.8 307.6,110.2 321.4,106.5 "/>
<polygon class="st0" points="376.4,129.2 388.6,125.1 392.6,136.2 380,141 "/>
<polygon class="st0" points="380.8,103.9 380.8,97.3 396.4,85.9 408.6,103.6 394.7,111.2 387.2,120.7 381.4,123.6 362.4,123.6 
	352.3,126.7 348,114.2 354,112.2 355.1,110.2 "/>
<polygon class="st0" points="381.4,144.4 393.2,140.2 397,158.2 389.6,156.1 384.4,155.8 "/>
<polygon class="st0" points="398,112.5 422.9,108.9 424.4,119.5 398.8,122.8 "/>
<polygon class="st0" points="439.6,54.4 396.4,85.9 408.6,103.5 416.8,98.8 421,94 423.2,90.9 429.8,76.5 433,72.7 444.2,64 
	442.6,59.2 "/>
<polygon class="st0" points="398.8,127.4 397.3,129.6 400.4,153.3 411.8,151.6 414.1,166.1 418.3,165.7 413.2,125.3 "/>
<polygon class="st0" points="456.7,106.5 458.7,108.2 459.4,113.2 458.7,114.2 459.4,115.5 460.9,116.9 462,116.9 462,120 
	451.5,121.5 452.2,125 462.7,123.4 462.7,127.2 462,127.4 463.2,135.7 451,137.4 450,133.4 442.5,134.5 441.9,130.6 438.2,131.9 
	439.3,140.8 420,143.7 418.7,134.8 414.5,135.7 413.2,125.1 424,123.4 427.3,121.5 429.4,117.3 432.6,111.2 434.5,109.9 
	438.2,109.2 "/>
<polygon class="st0" points="436.3,98.6 437.2,105.6 467.3,101.1 465.7,94 "/>
<polygon class="st0" points="437.2,85.9 438.5,94.7 460.5,91.6 459.7,82.2 "/>
<polygon class="st0" points="433.7,77.6 463.6,73.2 464.5,79.2 434.6,83.7 "/>
<polygon class="st0" points="442.7,68.1 460.6,65.1 461.2,69.5 443.8,72.2 "/>
<polygon class="st0" points="450.8,61.2 455,60.2 462.7,59.8 471.3,60.2 477.5,61.2 478.6,64 479.4,66.6 478.1,68.5 485.8,67.3 
	485,62 490.9,54.3 487.2,51.4 474.1,46.5 469.6,46.5 458.2,46.5 456.4,47 448.2,49.4 445.3,50.2 439.6,54.4 442.5,59.2 444.3,64 "/>
<polygon class="st0" points="468.9,71.3 475.4,70.2 480.9,105.6 474.9,106.7 "/>
<polygon class="st0" points="485.7,67.3 492.3,116.9 474,119.3 472.7,110.2 482.5,108.5 476.9,69.5 478.5,68.2 "/>
<polygon class="st0" points="468,104.7 462.1,105.6 461.1,107.3 461.7,111.2 464.6,115.5 465.4,121.9 466.4,124.2 469.3,124 
	470,129.3 467.5,129.6 468.4,134.2 481.4,132 480,118.8 474,119.3 472.6,110.2 "/>
</svg>
