<?xml version="1.0" encoding="utf-8"?>
<!-- Generator: Adobe Illustrator 23.0.1, SVG Export Plug-In . SVG Version: 6.00 Build 0)  -->
<svg version="1.1" id="图层_2" xmlns="http://www.w3.org/2000/svg" xmlns:xlink="http://www.w3.org/1999/xlink" x="0px" y="0px"
	 viewBox="0 0 580.1 428.6" style="enable-background:new 0 0 580.1 428.6;" xml:space="preserve">
<style type="text/css">
	.st0{fill:#606060;}
</style>
<polygon class="st0" points="223.2,318.8 247.4,312.9 255.6,337.2 311.5,329.1 310.7,323.8 333.7,320.2 334.7,325.1 400.7,316.2 
	399.8,307.9 420.9,300.5 424.9,312.9 456.7,309.6 516.7,290.6 510.8,257 515.7,255.5 504.5,75.9 498.7,66.8 485.9,56.6 472.7,51.7 
	461.3,51.7 456.8,51.7 443.9,55.4 379.4,102.6 379.4,109.1 353.7,115.4 319.4,111.9 250.5,132.8 233.9,151.4 234.7,165.8 
	203.1,169.8 202.3,154.8 186.4,143.8 103.6,156.9 103.6,162.9 97.9,163.8 100.5,181.8 103.6,185.7 97.9,192.2 94.2,189.9 
	75.5,188.8 75.5,193 60.7,193.8 63.5,310.3 100.5,308.6 114.8,301.8 138,300.8 145.5,322.7 99.5,338.1 90,357.8 99.5,386 
	151.7,369.2 149.7,363.4 169.6,356.2 171.7,361.9 225.7,343.7 "/>
<polygon class="st0" points="304.8,292 308.4,321.5 310.7,323.8 311.5,329.1 255.4,337.8 246.4,312.8 254.1,288.8 296.8,283.1 "/>
<polygon class="st0" points="310.2,291 321.1,289.8 323.9,310.4 312.5,311.7 "/>
<polygon class="st0" points="326.8,282.3 356.6,272.7 393,266.8 404.7,306.2 399.8,307.9 400.7,316.2 334.7,325.1 333.7,320.2 
	331.6,320.6 328.6,293.9 333.4,292.3 330.9,285.4 327.5,285.8 "/>
<polygon class="st0" points="427.5,261.2 431.2,297.3 404.7,306.2 392.9,266.8 "/>
<polygon class="st0" points="355.3,237 363,239.8 373.1,240.9 378.3,240.8 387,238 393.3,234.8 401.3,246.8 403.1,261.8 
	354.2,269.1 326.6,279.3 319.5,280.4 317.1,266.8 320.9,266.8 343.2,252.8 350.6,249.2 "/>
<polygon class="st0" points="392.3,224.3 411,221.9 412,229.8 403.1,230.8 404.6,240.6 401.7,240.8 404.6,244.3 407.7,264.3 
	427.5,261 426.4,252 433,250.9 431,238.7 418.7,228.8 416.1,226.7 414.3,218.9 411,216.8 404.6,217.4 398,218.8 395.4,220.8 "/>
<polygon class="st0" points="311.9,234.8 328.2,232.4 345.5,224.8 360.8,232.4 357.9,237.8 355.1,237 350.6,249.2 342.8,253.1 
	320.7,266.8 316.9,266.8 316.9,264.8 315,264.1 313.7,254.3 324.7,252.8 323.7,250.1 319.2,250.1 318.6,245.8 312.9,245.8 "/>
<polygon class="st0" points="382.8,228 387.1,237.9 378.2,240.8 371.4,240.9 363,239.8 364.2,228.8 373.5,229.8 "/>
<polygon class="st0" points="437.3,239.8 438.9,250.1 466.5,246.4 466.5,248.4 462.4,249.7 462.4,252 459.3,252.4 458.5,250.8 
	449.6,252 450,257.9 497.7,251.3 495.5,230.8 "/>
<polygon class="st0" points="433.7,254.1 445.6,252.4 446,258.2 434.6,259.8 "/>
<polygon class="st0" points="456.7,309.6 486.6,300.1 516.7,290.6 510.8,257 515.7,255.5 504.5,75.9 498.7,66.8 485.9,56.6 
	479.3,54.2 482.8,91.8 485.8,91.7 488.6,109.4 494.4,108.6 494.9,119.5 490.2,119.8 490.2,122.4 487.5,122.7 489.5,137.1 
	466.1,140.6 467,147.8 445.1,150.8 446.8,164.1 486.5,158.8 488,171.2 497.6,169.8 498.3,178.2 493.3,178.8 494.4,185 499,184.3 
	500,190.4 497.6,190.8 498.3,196.7 501,196.7 504.5,221.9 501,222.9 501,226.2 497.6,226.7 498.3,234.8 507.1,233.9 507.1,240.2 
	500,240.8 500,244.7 497.6,244.7 497.6,251.2 427.5,261.2 431.2,297.3 420.5,300.9 424.8,313.5 "/>
<polygon class="st0" points="436.8,229.8 486.8,221.9 489.2,220.7 492.7,217.4 496.1,211.1 495.4,204.1 493.8,197.8 491.6,194.8 
	488.1,190.8 483.2,188.6 431.7,196.4 427.7,197.8 412.7,197.8 412.7,210 422.4,210 422.4,212 423.6,220.8 425,223.6 427.7,226.7 
	431.7,228.8 "/>
<polygon class="st0" points="403,177.2 411.1,175.8 411.6,177.2 422.9,175.8 420.4,153.8 431,152.5 431.3,154.9 435.8,154.4 
	435.8,151.5 440.2,150.8 441.6,164.7 486.6,158.9 488.6,177.7 468.6,181.6 431.8,186.8 416.2,188.7 408.4,185.8 403.7,181.8 
	403,178.8 "/>
<polygon class="st0" points="463.1,125.6 477.6,124.1 478.1,128.1 481,127.8 482.1,138.2 468.4,140.2 467,129.5 464.1,129.9 
	463.1,128.3 "/>
<polygon class="st0" points="461,111.8 461,109.1 463.6,108.9 463.6,111.2 465.9,111.1 466.2,115.1 470.1,115.1 471.3,113.9 
	478.2,114.7 479.2,121 462.6,123.5 462.6,119.4 459.1,119.5 459.1,112 "/>
<polygon class="st0" points="488.9,113.2 481.8,114 482.1,120.1 494.9,119.5 494.4,108.7 488.7,109.4 "/>
<polygon class="st0" points="463.7,71.4 465.1,74.8 465.1,77.8 466.1,84.9 467.3,93.8 467.3,96.5 470.3,103 471.5,111.1 485,109.9 
	482.8,91.8 479.8,61.1 "/>
<polygon class="st0" points="428.5,66.7 434.3,75.7 439.1,71.5 444.1,68.8 453.6,66.8 457.9,66.8 459.8,67.2 462.4,69.4 463.7,71.2 
	480,61 479.3,54.2 472.7,51.7 466.1,51.7 456.8,51.7 443.9,55.4 437.1,60.4 "/>
<polygon class="st0" points="458,71.8 458.8,77.5 438.2,79.3 438.2,75.3 442.5,73.3 "/>
<polygon class="st0" points="431,83.8 459.4,79.8 459.7,85.4 431.6,89.1 "/>
<polygon class="st0" points="435.4,91.8 436.7,100.4 459.2,97.1 458.3,88.3 "/>
<polygon class="st0" points="433.1,104.5 433.9,109.9 462.6,105.4 461.8,100 "/>
<polygon class="st0" points="421.2,109.4 431,108.9 430.6,101.2 419.9,103.6 "/>
<polygon class="st0" points="459.5,122.7 461.6,140.2 449,141.8 449,138.8 440.7,140.6 440.3,136.5 452.7,134.5 450.9,122.7 
	434,125.8 433.4,121.8 427.4,121.8 428.4,115.5 455,111.8 456.8,113.6 456.8,118.6 457.2,120.8 "/>
<polygon class="st0" points="395.1,134.8 396.5,132.8 410.5,130.8 419.7,129.3 423.1,128.3 425.8,126.3 427.5,121.8 433.5,121.8 
	435.4,137.1 432.8,137.8 433.5,145.8 417.5,148.7 416.2,139.8 411.9,140.3 416.9,171.4 412.7,171.8 410.2,156.7 398.4,158.3 "/>
<polygon class="st0" points="390.1,148.5 391.4,156.8 382.6,158.8 381.5,150.2 "/>
<polygon class="st0" points="375.2,132.8 390.1,130.2 392,144 377.8,147.2 "/>
<polygon class="st0" points="397,116.5 397.9,126.9 420.7,123.8 419.9,113.6 "/>
<polygon class="st0" points="383,100.1 390.6,119.7 399.3,111.8 408.9,108 413.4,105.9 419.1,100.8 423.9,93.7 424.9,90.7 
	428.4,82.5 431.3,78.8 434.3,75.7 428.5,66.7 "/>
<polygon class="st0" points="353.7,115.4 356.8,131.2 370.9,128.8 382.1,126.9 386,126.1 390.6,119.5 383,100.1 379.4,102.6 
	379.4,109.1 "/>
<polygon class="st0" points="368.5,133.8 374.3,156.8 371.4,156.7 362.1,157.8 357.5,158.9 346.3,165.1 339,173.7 315.2,164.1 
	314.1,155.3 316.6,154.5 315.2,149.3 326.2,145.8 327.6,151.5 332.6,149.9 329.9,141.8 "/>
<polygon class="st0" points="366.3,172.8 372.6,171.8 379.2,171.8 387.6,173.9 393.2,178.8 395.7,183.7 395.7,187.4 395.7,192.8 
	399.8,196.4 388.9,213.9 384,210 376,223.2 370.3,223.6 360.7,220.8 359.5,223.2 353.6,219.8 354.2,217.4 350.8,214.8 348.7,212 
	344.8,199 342.4,200.2 338.4,191.8 342.4,181.6 345.9,182.4 348.7,178.8 348,173.9 365.4,169.5 "/>
<polygon class="st0" points="330.9,179.6 327.5,191.8 300,192.5 295.8,189.1 293.9,177.7 307.4,172.8 "/>
<polygon class="st0" points="330.3,197.8 339.5,214.8 325.7,226.7 304,228.8 302.4,223.2 311.4,210.8 324.3,208.8 322.8,197.8 "/>
<polygon class="st0" points="305.7,242.3 308,257.2 306.9,257.2 306.9,259.8 308.8,259.8 308.8,264.8 307.3,266 294.9,266.1 
	292.2,244.8 "/>
<polygon class="st0" points="257.5,252 261.1,271.6 294.9,266.1 292.1,244.8 283.9,245.8 283.9,247.6 277.9,248.1 278.5,256.4 
	275.4,256.7 274.8,251.3 272.3,251.6 271.6,247 266.4,247.6 266.7,252.3 265.2,252.5 266,258.6 263.8,258.8 262.7,251.2 "/>
<polygon class="st0" points="132.3,327.1 137.9,331.8 140.1,339.8 141.7,339.8 142.5,341.1 144.2,339.8 151.8,362.7 149.7,363.4 
	151.7,369.2 99.5,386 90,357.8 99.5,338.1 "/>
<polygon class="st0" points="164.3,330.8 165.8,317.1 207.1,303.1 223.2,318.8 225.7,343.7 171.5,362.1 168.9,356.6 170.3,355.8 
	168.9,349.5 170.3,347.9 "/>
<polygon class="st0" points="146.4,334.3 159.7,329 161.2,334 159.7,334.6 161.9,340.4 163.3,339.8 165.9,347.9 152.6,353.7 
	149.9,344.8 151.4,344.8 149.5,338.8 148.2,339.4 "/>
<polygon class="st0" points="239.8,254.6 254,252 256.4,264.8 259.7,264.1 261.1,272.1 242,274.3 "/>
<polygon class="st0" points="221.8,266.1 235.7,264.1 236.7,274.3 222.8,276.7 "/>
<polygon class="st0" points="213.8,252.8 216.4,277.6 201.3,280.4 191,285.4 190.3,258.2 193.7,258.2 193.7,254.3 203.4,253.8 
	203.4,255 206.6,254.8 206.6,253.1 "/>
<polygon class="st0" points="141.5,270.8 159.1,269.7 159.1,273.7 173.1,273.8 173.1,283.1 177.3,283.1 177.3,278.8 175.7,278.8 
	175.7,275.8 190.9,275.3 190.9,285.4 164,298.6 148.1,299.3 142.5,283.1 "/>
<polygon class="st0" points="117.4,295.1 133.1,293.9 133.1,297.8 117.4,299 "/>
<polygon class="st0" points="122.3,250.1 127.1,250.1 127.9,248.1 133.5,249.1 134.9,283.1 125.8,283.1 124.2,277.7 124.2,272.7 
	119.4,271.8 "/>
<polygon class="st0" points="110,272.1 114.3,280.7 114.8,301.8 100.5,308.6 98.9,308.8 97.5,288.8 100.5,288.8 98.9,273.3 "/>
<polygon class="st0" points="61.8,258.2 81.1,257.2 81.1,271.1 77,271.4 77,274.3 89.4,273.9 89.4,276.7 75.6,277.6 75.6,280.4 
	90,280.4 90,281.5 93.4,281.5 93.4,284.8 89.4,285.4 89.4,289.8 83.2,290 83.2,293.3 97.6,292.3 98.9,308.8 63.5,310.4 "/>
<polygon class="st0" points="95.9,260.3 95.9,270.8 84.1,271.1 84.1,264.8 88.4,264.8 88.4,260.8 "/>
<polygon class="st0" points="108.2,268 108.2,263.6 117.5,239.8 111.4,232.4 107.5,224.3 97.6,225.4 97.6,237 80.4,237.8 80.4,234 
	94,233.9 94,223.2 85.1,223.2 85.1,224.8 80.4,225.2 79.7,220.8 60.7,221.9 62.1,258.2 99.3,256.8 99.3,268 "/>
<polygon class="st0" points="75.5,193 75.5,188.8 94.2,189.9 97.9,192.2 101.2,188.5 113.5,200.2 107.4,206.4 107.4,220.1 
	96.7,220.8 96.1,216.8 72.4,217.4 72.4,221.1 60.7,221.9 60.7,193.8 "/>
<polygon class="st0" points="125,199.4 151.1,209.7 149.3,214.8 152.5,217.9 152.5,221.9 150,227.5 147.4,231.3 142.4,234.4 
	134.6,237 128.4,236.4 125,235.1 122,232.4 116.1,218.5 116.1,215.2 117.5,211.6 119.9,207.7 123.1,204.3 "/>
<polygon class="st0" points="139.6,183.1 140,191.8 119.8,192.5 113.4,200.2 101.2,188.5 103.6,185.7 100.5,181.8 97.9,163.8 
	103.6,162.9 103.6,156.9 143.2,150.7 143.7,164.1 131.4,164.1 131.4,166.7 140.4,166.7 140.4,175.5 132.5,175.5 132.5,171.8 
	129.2,171.8 129.2,179.2 125.4,179.2 125.4,183.1 "/>
<polygon class="st0" points="171.5,146.2 171.9,156.2 167.3,156.2 168.6,175.5 166.1,175.8 166.8,197.3 155.8,197.8 144.7,193.4 
	143.2,150.7 "/>
<polygon class="st0" points="186.4,143.8 202.3,154.8 202.5,159.8 183,160.9 183,173.5 181.7,175.3 171.8,175.3 171.2,158.9 
	185.8,158.3 185.8,155.8 172,156.2 171.5,146.2 "/>
<polygon class="st0" points="172.3,196.8 186.6,196.2 200.5,188.7 228.7,183.4 226.5,166.9 203.1,169.8 202.5,159.8 186.1,160.7 
	186.1,178.2 172.3,178.2 "/>
<polygon class="st0" points="254.9,131.5 318.6,111.8 352.5,115.3 354.4,123.5 343.6,127.3 345.5,132.8 335.7,135.4 333.8,130.6 
	330.7,131.6 332.6,138.8 328.7,139.4 327.8,142.1 324,143.5 322.9,139.4 326.2,138.3 325.3,134.3 321.3,135.4 319.7,128.8 
	313.3,130.8 316.4,141.2 306.1,143.8 307.5,148.2 300.9,150.5 299.8,146.8 293.7,148.5 292.7,143.8 282.9,146.8 279.2,136 
	277.1,136.8 281.5,151.8 262.9,157.9 261.6,153.8 257,155.8 255.6,151.3 260.3,149.3 "/>
<polygon class="st0" points="276.9,158.9 281.7,174.7 312.5,165.1 307.5,148.2 298,151.5 298.4,152.5 295.2,153.6 294.7,152.5 
	288.1,154.6 288.5,155.8 285.9,156.5 285.3,155.3 279.9,156.8 280.1,157.9 "/>
<polygon class="st0" points="273.1,158.8 277.4,175.8 264.4,179.8 259.3,162.9 "/>
<polygon class="st0" points="232.9,152.2 250.5,132.8 254.9,131.5 260.3,149.3 255.6,151.3 264.5,179.8 251.6,183.7 240,181.1 
	228.7,183.4 226.5,166.9 234,165.8 "/>
<polygon class="st0" points="158.1,202.1 187.5,201.1 187.5,220.3 158.1,220.7 "/>
<polygon class="st0" points="140.3,242.8 147.4,239.8 150.7,237.4 154.9,232.4 157.5,227.8 183.8,226.7 184.5,238 178.5,238.3 
	178.5,241.6 172,242.1 172,251.8 158.5,252.8 158.9,265.2 141.6,266 "/>
<polygon class="st0" points="164.4,255.8 176,255 176.4,262.4 179.5,262.4 179.5,254.8 187.4,254.6 187.9,268.1 190.5,268.1 
	190.8,275.3 181.8,275.5 181.8,268.5 179.5,268.5 179.5,269.8 164.8,270.1 "/>
<polygon class="st0" points="191.9,205.1 203.7,194.8 237.2,187.4 251.2,190.8 254.4,204.8 245.3,210 227,217.4 213.3,218.9 
	201.8,218.9 193.3,216.8 "/>
<rect x="178.9" y="243.8" class="st0" width="9.8" height="7.1"/>
<polygon class="st0" points="187.3,225.8 211,225.2 213.1,249.2 202.3,250.8 193.2,250.8 193.2,237.8 187.3,237.8 "/>
<polygon class="st0" points="216.5,225.2 221.9,224.3 221.9,228.1 228.5,228.1 228.5,224.3 233.5,223.6 236,249.2 218.5,250.1 "/>
<polygon class="st0" points="236.3,219.8 257.9,213.6 262.2,246.2 239.5,249.8 "/>
<polygon class="st0" points="260.7,212.8 303.7,198.8 322.5,197.8 324.4,208.8 311.3,210.9 300.4,225.6 273.5,230.4 274.8,239.3 
	267.4,240.4 265.8,231.8 263.4,232.4 "/>
<polygon class="st0" points="278.9,234 287.9,232.4 288.9,241.8 280.1,243 "/>
<polygon class="st0" points="290,227.5 300.7,225.6 302.2,223.6 304,228.8 305.2,239.8 292,241.5 "/>
<polygon class="st0" points="256.4,187.1 283.4,180.8 286.2,193.8 280.2,195.7 278.5,203.1 261.2,207.1 260.1,204.2 258.5,204.2 
	255.8,190 257,189.7 "/>
</svg>
