<?xml version="1.0" encoding="utf-8"?>
<!-- Generator: Adobe Illustrator 23.0.1, SVG Export Plug-In . SVG Version: 6.00 Build 0)  -->
<svg version="1.1" id="F5" xmlns="http://www.w3.org/2000/svg" xmlns:xlink="http://www.w3.org/1999/xlink" x="0px" y="0px"
	 viewBox="0 0 580.1 428.6" style="enable-background:new 0 0 580.1 428.6;" xml:space="preserve">
<style type="text/css">
	.st0{fill:#606060;}
</style>
<polygon class="st0" points="224.5,314.2 248.8,308.4 257,332.6 312.8,324.5 312.1,319.3 335.1,315.7 336,320.5 402.1,311.6 
	401.1,303.4 422.3,296 426.3,308.4 458.1,305 518.1,286.1 512.1,252.4 517.1,251 505.8,71.3 500.1,62.3 487.2,52 474.1,47.2 
	462.7,47.2 458.2,47.2 445.3,50.9 380.8,98 380.8,104.6 355.1,110.9 320.8,107.3 251.8,128.3 235.3,146.9 236.1,161.3 204.4,165.3 
	203.6,150.3 187.8,139.3 105,152.4 105,158.3 99.2,159.3 101.9,177.3 105,181.2 99.2,187.7 95.5,185.4 76.8,184.3 76.8,188.4 
	62,189.3 64.9,305.8 101.9,304.1 116.2,297.3 139.4,296.3 146.9,318.1 100.9,333.5 91.4,353.3 100.9,381.4 153.1,364.6 151.1,358.9 
	171,351.6 173.1,357.3 227.1,339.2 "/>
<polygon class="st0" points="146.9,318.1 147.6,323.9 136.1,328.4 142.7,335.3 150.6,357.6 151.1,358.9 153.1,364.6 99.8,381.5 
	90.6,353.4 100.9,333.5 "/>
<polygon class="st0" points="162.5,327.8 166.3,319 165.6,317 158.1,320 157,316.7 208.4,298.3 224.5,314.2 226.9,339 172.7,357.3 
	171.2,351.6 176.7,349.4 175.8,345.7 169.1,347.4 "/>
<polygon class="st0" points="148,331.3 157.8,328.2 164,347.4 154.2,350.8 "/>
<polygon class="st0" points="308.8,290 312.3,319.2 312.1,319.3 312.8,324.5 257,332.6 248.8,308.4 255.3,284 298,278.3 "/>
<polygon class="st0" points="315,290.2 325.9,289 328.6,309.6 317.3,310.9 "/>
<polygon class="st0" points="332,283.2 331.1,279 364.2,268.8 414,261.6 422.3,296 401.1,303.4 402.1,311.6 336,320.5 335.1,315.7 
	332.8,292 332.8,289.1 335.6,288 334.2,284 333.5,282.3 "/>
<polygon class="st0" points="517.1,251 512.1,252.4 518.1,286.1 458.1,305 426.3,308.4 422.3,296 414,261.6 412.7,251.7 
	404.4,236.1 406.9,236 405.9,226.2 414.9,225.3 414,218.4 404.3,220 410.8,211.2 414.9,201.1 416,194.8 416,189.4 421.7,189 
	419.2,166.8 414.5,167.2 413.3,153.5 417.6,153 414.9,136 443,131.6 443.5,135.4 451,134.1 451.4,136 456,135.4 454.2,124 
	463.3,123 463.9,126.4 467.6,126 468.2,129 470.6,129 469.8,123 467,123.1 465.9,120.6 483.3,118 485.4,133.4 492.4,132.5 
	489.5,113.2 508.3,110.8 "/>
<polygon class="st0" points="465.7,72.3 469,69.2 483.9,68 489.9,113 457,117.8 456,106 465.7,102.6 469,96.6 470.1,90.9 468.1,80 
	"/>
<polygon class="st0" points="451,106 452.6,118 440.2,120.7 441,127.7 450.7,126.5 451,130.2 455.1,129.6 456,135.4 451.4,136 
	451,134.1 443.5,135.4 443,131.6 414.9,136 416.4,145.9 411.4,146.7 408,125.4 416.3,124 425,122.7 427.3,121.3 435.5,108.6 "/>
<polygon class="st0" points="415.2,72.9 426.5,87.9 432.5,78 439.4,72.2 448.4,68.7 459.2,68.7 465.7,72.2 468.9,69.2 483.9,68 
	481.8,50 474.1,47.2 458.2,47.2 445.3,50.9 "/>
<polygon class="st0" points="355.1,110.9 380.8,104.6 380.8,98 415.2,72.9 426.5,87.9 421.7,95 417.6,98 409.7,105.1 404.3,106 
	399.8,107.7 394.2,112.7 389.9,117.8 386.5,121.3 379,123.6 360,127.5 "/>
<polygon class="st0" points="436.8,77.6 437.1,82 460,79 459.6,74.5 "/>
<polygon class="st0" points="437.5,85.2 460,81.7 461.3,90.3 439.2,94 "/>
<rect x="426.6" y="95.9" class="st0" width="5.3" height="4.9"/>
<polygon class="st0" points="435.5,97.9 464.3,93.3 464.8,98.8 436.2,103.7 "/>
<polygon class="st0" points="404,109.8 423.1,106.4 424.9,118.8 404.9,122.3 399,120.1 398.3,113 "/>
<polygon class="st0" points="375,127.6 391.7,124.4 393.9,139.3 377.3,142.2 "/>
<polygon class="st0" points="399.6,129.6 404.3,129.2 404.4,133.5 400.3,134 "/>
<polygon class="st0" points="398.3,137.1 407.2,135.7 408.7,149.9 400.4,151 "/>
<polygon class="st0" points="382.7,146.7 392.7,144.6 393.5,151.3 383.5,153 "/>
<polygon class="st0" points="319.3,124.7 305.5,129 315.4,160 335.1,163 361.1,154.7 378,153 369.8,129 353.7,133.2 349,116.4 
	356.1,114.4 355.1,110.9 320.8,107.3 314.8,109 "/>
<polygon class="st0" points="282.5,133.2 284.1,132.9 284.7,135.6 283.6,136 286.5,147 294.7,144.8 295.6,149 279.5,154.1 
	284.7,171.2 306.4,164.5 309.4,161.9 315.4,160 305.5,129 319.3,124.7 314.7,109 278.7,120.1 "/>
<polyline class="st0" points="278.7,120.1 281.9,131.2 271.4,134.5 272.2,137 280.9,134.5 284.6,148.1 273.2,151.5 272.2,149 
	264.2,151.5 263.5,149 258.6,151.2 251.1,128.6 "/>
<polygon class="st0" points="239.9,177.7 253.4,181.6 281.2,172.5 275.4,155.3 261.2,159 251.1,128.6 234.7,147 235.7,160.6 "/>
<polygon class="st0" points="325.6,177.8 336,174.7 334.4,171.4 346.4,166 347.9,170 361.2,166 369.9,165 382.7,166 385.9,168.1 
	389.9,168.9 395.6,174 398.3,180.9 399.2,186 404,189.9 395.6,202 403,207 391,221.8 386.9,224.9 377.3,227.4 369.9,227.4 
	364.3,224.9 350.1,215.9 346.4,211.2 350.9,207 347.1,194.8 325.6,199.3 "/>
<polygon class="st0" points="360,230.2 356.7,235.9 350.6,246.1 322.5,262.2 318.4,262.2 313.7,226.2 326.3,216 347.3,228.1 "/>
<polygon class="st0" points="393.5,227.4 384.2,231.8 378.3,233 371.1,233 364.2,231.8 360,230.2 356.7,235.9 350.6,246.1 
	322.5,262.2 318.4,262.2 321,275.6 328.1,274.5 355.9,265 405.3,257.9 404.3,242.8 395.5,229.8 "/>
<polygon class="st0" points="265,185 310.1,170.6 313.2,174.5 320,175.4 315.4,201.1 311.5,202 313.2,208.3 316,208.3 307,218 
	282.1,221.2 280.2,210.5 276,211.3 275.2,206.5 271,207 "/>
<polygon class="st0" points="184.1,202 188.6,201.1 201.5,190.9 239.9,183 246.7,183.7 254.7,187 254.7,188 260.5,187.3 
	263.5,210.8 257.7,212 237.3,218.4 218.3,222 185,224 "/>
<polygon class="st0" points="193.2,168.8 204.6,165.1 236,161 239.9,177.8 213.7,183.1 202.1,185.1 196.8,188.1 194,187.1 "/>
<polygon class="st0" points="159.6,171.6 188,170.8 187.3,151.5 190.4,151.5 190.4,168.8 193.2,168.8 204.6,165.1 203.5,150.3 
	187.3,138.8 158,143.6 "/>
<polygon class="st0" points="143.9,146 158,143.6 160.4,187.3 146.4,188 "/>
<polygon class="st0" points="173.5,171.2 173.5,174.6 188.6,174 188.6,187.3 190.5,191.4 188.1,192.9 173.1,193.7 160.4,187.3 
	159.6,171.5 "/>
<polygon class="st0" points="173.5,224.8 173.2,202 159.4,197.4 152,196 142.7,194.8 133.3,194.8 128.1,196 118.7,204 116,211.2 
	123.4,227.4 114.4,253 120.7,268 136.1,268.8 134.3,240.5 139.8,240 144.6,238.3 148.6,236 153.6,232.4 156.1,229 157.9,225.4 "/>
<polygon class="st0" points="120.3,149.5 143.9,146 144.7,159.4 141.9,159.4 141.9,170.5 136.1,170.5 136.1,166.9 130.2,167.2 
	130.5,174.5 121.1,174.5 120.3,149.6 "/>
<polygon class="st0" points="101.6,183.8 113.8,196 119.6,189 141.6,188.5 141.2,177.5 126.9,178.3 126.9,174.5 121.1,174.5 
	120.3,149.6 103.5,152.4 103.5,158.5 98,159.5 101.2,177.5 103.9,181.3 "/>
<polygon class="st0" points="76.9,217 109.3,216 108.7,201 113.8,196 101.7,183.7 99.2,187.7 95.5,185.4 76,184 "/>
<polygon class="st0" points="62,189.3 76.1,188.5 76.9,217 80.3,216.9 80.3,219.2 85.9,219.2 85.9,222 91.3,222 91.3,218.4 
	95.4,218.4 95.4,230.5 71.7,231.4 71.7,224 62.9,224 "/>
<polygon class="st0" points="64.1,306.1 101.9,304.1 100.2,284.8 96.7,285 96.3,273.5 89.1,273.5 89.1,271 76.4,271.5 76.4,268.2 
	85,267.9 83.7,236.7 70.3,237.5 70.3,235.1 73,235.1 73,231.3 71.7,231.3 71.7,224 62.9,224 "/>
<polyline class="st0" points="101.9,304.1 99.7,267.3 113.5,267 116.2,297.3 "/>
<polygon class="st0" points="97.1,221.2 108.9,221 109.6,242.3 104.9,253 110.5,264.2 95.8,265 95.8,267.3 84.9,268 83.5,234.1 
	98.7,234.1 98.7,230 97.1,230 "/>
<rect x="146.5" y="282" class="st0" width="12.9" height="8.1"/>
<polygon class="st0" points="162.9,252.6 191.6,251 192,262.6 188.8,263 188.8,268.2 177,269 177,267.5 163.2,268.2 163.2,263 
	165.9,263 165.6,257.9 162.9,257.9 "/>
</svg>
