<?xml version="1.0" encoding="utf-8"?>
<!-- Generator: Adobe Illustrator 23.0.1, SVG Export Plug-In . SVG Version: 6.00 Build 0)  -->
<svg version="1.1" id="F7" xmlns="http://www.w3.org/2000/svg" xmlns:xlink="http://www.w3.org/1999/xlink" x="0px" y="0px"
	 viewBox="0 0 580.1 428.6" style="enable-background:new 0 0 580.1 428.6;" xml:space="preserve">
<style type="text/css">
	.st0{fill:#606060;}
</style>
<polygon class="st0" points="343.6,117.2 349.6,183.4 362,190.4 369,199.4 374.4,209.7 375.6,224.3 371.3,239.6 362,253.9 
	357.8,264.8 367.8,279.4 369,295.4 375.6,308.2 497.5,289.2 484.5,88.4 481.1,81.4 472.6,73.2 463.5,66.8 445.4,59.4 421.7,60.4 "/>
<polygon class="st0" points="497.5,289.2 375.6,308.2 369,295.4 367.8,279.4 357.8,264.8 362,253.9 371.3,239.6 375.6,224.3 
	374.4,209.7 369,199.4 362,190.4 349.6,183.4 349,176.1 488.8,155.2 "/>
<polygon class="st0" points="388.8,84.3 399.5,100.3 410.1,97.4 450.6,91.3 445.4,59.4 421.8,60.4 "/>
<polygon class="st0" points="484.5,88.4 485,96.6 460.6,98.6 459.1,85.9 464.2,85.3 463.2,79.3 448.9,80.9 445.4,59.4 450.2,61.1 
	463.5,66.8 472.6,73.2 481.1,81.4 "/>
<polygon class="st0" points="343.6,117.2 388.3,84.7 398.3,100.3 390,100.3 393.5,123.3 366.8,129.1 "/>
<polygon class="st0" points="407.6,108.9 433,105.3 433,111.2 408.3,114.7 "/>
<polygon class="st0" points="449.6,100.3 485,97 486.9,125.9 488.7,154.2 444.4,160.9 443.4,153.6 446.5,152.5 445.5,147.8 
	441.8,148.6 437.5,120.4 452.3,118.3 "/>
<polygon class="st0" points="367.9,157.1 373.5,156.3 375.7,171.3 348.9,175.1 346.2,146.1 343.6,117.2 366.8,129.1 370.1,149.7 
	366.5,151.3 "/>
<polygon class="st0" points="376.6,130.3 404.7,125.6 410.1,166.3 382.6,170.3 "/>
<polygon class="st0" points="408.1,125.3 435,121.3 438.5,147 437.1,147.4 437.8,152.3 436,152.5 437.1,162.4 414.1,165.7 "/>
</svg>
