<?xml version="1.0" encoding="utf-8"?>
<!-- Generator: Adobe Illustrator 23.0.1, SVG Export Plug-In . SVG Version: 6.00 Build 0)  -->
<svg version="1.1" id="F6" xmlns="http://www.w3.org/2000/svg" xmlns:xlink="http://www.w3.org/1999/xlink" x="0px" y="0px"
	 viewBox="0 0 580.1 428.6" style="enable-background:new 0 0 580.1 428.6;" xml:space="preserve">
<style type="text/css">
	.st0{fill:#606060;}
</style>
<polygon class="st0" points="344.1,123.8 350.1,189.9 362.5,196.9 369.5,205.9 374.9,216.3 376.1,230.9 371.7,246.1 362.5,260.4 
	358.3,271.4 368.3,285.9 369.5,301.9 376.1,314.7 498,295.8 484.9,94.9 481.6,87.9 473.1,79.7 463.9,73.3 445.9,65.9 422.2,66.9 "/>
<polygon class="st0" points="498,295.8 376.1,314.7 369.5,301.9 368.3,285.9 358.3,271.4 362.4,260.6 371.7,246.1 376.1,230.7 
	374.9,216.3 369.5,205.9 362.5,196.9 350.1,189.9 349.3,180.7 489.2,160.7 "/>
<polygon class="st0" points="388.3,91.6 398.6,105.9 409.2,103.1 449.7,96.9 445.9,65.9 421.7,66.9 "/>
<polygon class="st0" points="484.9,94.9 485.4,101.8 459.7,104.2 458.2,91.5 463.3,90.9 462.3,84.9 448.5,86.5 445.9,65.9 
	448.9,67.1 463.9,73.3 473.1,79.7 481.6,87.9 "/>
<polygon class="st0" points="345.1,123 387.7,91.8 397.4,105.9 389,105.9 392.5,128.9 366.4,133.9 "/>
<polygon class="st0" points="406.7,114.5 432.1,110.9 432.1,116.9 407.4,120.4 "/>
<polygon class="st0" points="448.7,105.9 485.4,102.7 487.2,130.4 489.1,159.7 443.5,166.5 442.5,159.3 445.6,158.2 444.6,153.5 
	440.8,154.3 436.5,126.1 451.4,123.9 "/>
<polygon class="st0" points="367,162.8 372.6,161.9 374.7,176.9 349.3,180.7 342.7,136.2 344.1,123.8 365.9,134.8 369.2,155.4 
	365.6,156.9 "/>
<polygon class="st0" points="375.7,135.9 403.7,131.3 409.2,171.9 381.7,175.9 "/>
<polygon class="st0" points="407.1,130.9 434,126.9 437.6,152.7 436.2,153 436.9,157.9 435.1,158.2 436.2,168 413.1,171.3 "/>
</svg>
