<?xml version="1.0" encoding="utf-8"?>
<!-- Generator: Adobe Illustrator 23.0.1, SVG Export Plug-In . SVG Version: 6.00 Build 0)  -->
<svg version="1.1" id="_x5F__x5F__x5F_.2" xmlns="http://www.w3.org/2000/svg" xmlns:xlink="http://www.w3.org/1999/xlink" x="0px"
	 y="0px" viewBox="0 0 580.1 428.6" style="enable-background:new 0 0 580.1 428.6;" xml:space="preserve">
<style type="text/css">
	.st0{display:none;}
	.st1{display:inline;fill:#606060;}
	.st2{fill:#606060;}
</style>
<g id="_x5F__x5F_">
</g>
<g class="st0">
	<polygon class="st1" points="191.9,149.8 328.5,113.3 368.7,94.5 370.5,109 377.5,108.3 382.7,144.8 332.5,156.2 346.3,207.2 
		341.7,209.7 347.9,256 372,252.3 374.6,269.6 389.7,318.4 241.6,340.4 225.4,293.3 210,174.2 200,174.2 199.9,163.8 191.9,163.3 	
		"/>
	<polygon class="st1" points="77.3,163.3 115.1,162.3 191.9,149.8 191.9,163.3 200,163.8 200,174.2 210,174.2 225.3,292.1 
		241.6,340.3 102.6,385.3 86.5,336.5 80.2,264.7 	"/>
	<polygon class="st1" points="484.6,43.3 368.1,94.5 370.1,109 377,108.3 382.6,144.6 332.5,156.2 346.1,207.1 341.4,209.7 
		347.7,256 372,252.3 374.5,269.6 389.5,318.3 488.4,303.4 486.3,200.7 488.4,72.9 	"/>
</g>
<polygon class="st2" points="79.5,171.4 131.7,168.8 133.5,298.7 108.2,307.8 79.5,308.7 "/>
<polygon class="st2" points="196.9,165.2 131.7,168.8 133.5,298.7 188.6,278.7 208.5,277.9 212.2,277.1 209.4,254.7 212.6,254.5 
	211.9,246.3 214.7,246.3 214.2,241.3 215.9,241.3 214.7,227.1 212.6,227.1 212.2,223.5 206.5,223.5 205.6,211 201.2,211 
	201.2,207.2 204.9,206.7 204.5,197.8 200,198.3 "/>
<polygon class="st2" points="56.6,309.5 56.2,314.6 63.2,337 86,329.6 84.7,308.6 "/>
<polygon class="st2" points="135.5,302.7 136.2,306.6 151.8,301.7 150.5,297.9 "/>
<polygon class="st2" points="162.3,293.9 163.2,298 172.2,295.5 170.9,291.3 "/>
<polygon class="st2" points="176.4,287.7 178.5,292.9 201.2,286.5 200,283.5 188.8,284.1 "/>
<polygon class="st2" points="95.4,325.7 177.2,298.7 182.3,316.1 178.9,317.2 179.6,320.7 177.2,321.7 179.6,329.7 176.2,330.7 
	172.2,319.5 116.6,337 112.2,327.6 98.7,332.6 "/>
<polygon class="st2" points="179.8,297.9 190.3,331.8 231.2,317.7 227.7,306.6 209.3,312.5 204.5,299.5 207.9,297.9 207.9,289.6 "/>
<polygon class="st2" points="393.2,136 424.2,131.3 424.2,126.1 435.2,124.7 435.2,127.7 450.2,126.1 453.2,142.7 455.2,142.7 
	455.2,134.7 457.7,134.7 455.2,122.7 451.2,122.7 451.2,119 466.9,116.1 469.2,131.7 466.9,132.5 471.9,166.2 492.7,162.2 
	495.2,306.6 225.4,348.8 130.2,380 116.6,337 172.2,319.5 176.2,330.7 179.4,329.7 185.9,327.6 187.5,332.7 231.2,317.7 
	227.6,306.6 226.8,304.7 233.8,304.6 233.8,302.1 257.5,299.5 258.2,304.2 266.1,302.7 266.8,313.7 311.2,308.7 302.3,238.8 
	354.9,231.1 382.2,226.7 385.7,229.7 387,235.7 389.6,235.2 388.2,223.3 398.1,221.8 394.2,193.4 400.2,180.7 419.9,177.3 
	415.7,148.4 395.6,151.7 "/>
<polygon class="st2" points="223.5,245.2 239.8,242.7 241.2,257.1 244.4,256.1 246.2,267.2 276.7,263.2 280.5,296.8 265.7,298.6 
	266.1,302.7 258.2,304.2 257.5,299.5 228.3,302.7 "/>
<polygon class="st2" points="239.8,242.7 256.2,240.2 257.2,245.2 260.2,245.2 261.2,253.2 264.8,252.8 264.1,244.4 273.8,242.7 
	275.2,251.7 278.5,251.1 278.5,249.3 281.7,248.7 280.9,244.7 283.6,244.4 286.1,258.2 287.9,257.7 285.7,241 299.5,238.7 
	307.8,305.7 270.2,311.4 269,298.1 280.5,296.8 276.7,263.2 246.2,267.2 244.4,256.1 241.2,257.1 "/>
<polygon class="st2" points="229.4,212.7 222,219 224.7,241.3 246.7,238.6 243.2,209 "/>
<polygon class="st2" points="248.5,208.1 254.2,207.3 253.9,203.9 297.8,191.8 298.2,205.5 287.4,207.4 289.7,222.8 259.6,227.4 
	260.2,236.7 252.5,237.4 "/>
<polygon class="st2" points="263.6,230.4 263.6,235.7 265.5,235.7 265.5,239.6 278,238.5 277,228.5 "/>
<polygon class="st2" points="283.6,227.5 297.2,225.7 298.2,235.2 285.2,237.4 "/>
<path class="st2" d="M300.1,224.7l29.3-3.9l12.6-8.4c5.4,3.9,10,6.1,13.8,6.5c3.8,0.4,8.4-0.8,13.7-3.6l1.9,9.3l-70.2,10.4
	L300.1,224.7z"/>
<path class="st2" d="M373.2,213.2c6.6-6.4,10.3-12.5,11.1-18.5s-1.3-12.5-6.2-19.6l4.8-3.7l26.2-3.9l-1.8-12l9.2-1.7l3.7,23.6
	l-19.7,3.4l-6.2,12.9H390l4.2,27.1l-19.5,4L373.2,213.2z"/>
<path class="st2" d="M324.5,193.6c0.2,4.1,0.9,7.6,2,10.7c1.2,3.1,3,6,5.4,8.9l-3.7,3.8l-38.5,5.8l-2.3-15.4l10.8-1.9l-0.4-13.7
	L324.5,193.6z"/>
<polygon class="st2" points="347.8,200.2 374,194.7 376.4,203.1 368.2,211 359.2,212.5 349.7,208.9 "/>
<polygon class="st2" points="328.8,191 337.7,187.7 343,203.9 333.4,206.4 "/>
<polygon class="st2" points="343.5,182.1 371.4,175.7 375.5,191.2 346.6,197.7 "/>
<polygon class="st2" points="341.6,167.5 344.1,175.5 362.6,170.4 362.6,159.2 349.8,163.4 "/>
<polygon class="st2" points="399.8,151 401.6,165.7 397.6,166.2 395.5,151.7 389.6,153.1 392.7,167.1 376,169.7 371.8,145.2 
	383.5,143.1 378.7,116.2 446,104.7 449.4,122.7 440.4,124.1 439.7,120.2 424.2,122.7 424.2,131.3 393.2,136 395.5,151 "/>
<polygon class="st2" points="214.2,200 222.1,197.7 224.2,205 216,206.8 "/>
<polygon class="st2" points="254.2,188.7 269.9,184.7 271.8,191.6 256,195.5 "/>
<polygon class="st2" points="364.2,127.7 376,125.7 378.9,139.7 367.4,141.4 "/>
<polygon class="st2" points="472.2,120.7 484.5,119 486.3,130.5 474.5,131.7 "/>
<polygon class="st2" points="379.2,103.2 415,96.7 415.9,105.5 380.2,112.2 "/>
<polygon class="st2" points="417.4,75 448.5,70.2 449.4,77.7 419,82 "/>
<polygon class="st2" points="421.2,98.2 450.2,92.7 451.2,99.8 422.2,103.9 "/>
<polygon class="st2" points="272.2,183.9 285.6,180.7 287.6,187.1 274.2,190.6 "/>
<polygon class="st2" points="288.2,175.9 308.7,171.4 309.8,175.1 323.3,180.7 321.4,185.5 319.2,184.7 318.1,186 310.4,182.6 
	312.2,180.9 291.3,186.7 290.2,182.6 "/>
<polygon class="st2" points="225.2,196.9 233.9,194.7 235.4,201.6 227,203.7 "/>
<polygon class="st2" points="240.2,192.9 249.7,190.4 251.5,197.3 242,199.7 "/>
<polygon class="st2" points="312.1,172.5 320.2,175.7 322.4,172 319.2,170.4 "/>
<polygon class="st2" points="312.1,172.5 320.2,175.7 322.4,172 319.2,170.4 "/>
<polygon class="st2" points="211.2,177.6 260.8,163.7 265.5,179.7 243.2,186.3 238.3,186 224.7,191.5 214.2,192.7 "/>
<polyline class="st2" points="260.8,163.7 263.9,162.8 262.5,157.8 272.2,154.7 273.8,160 317,147.7 321.6,162.2 265.5,179.7 "/>
<polygon class="st2" points="348.5,150.7 320.6,159.9 317,147.7 328.1,144.7 321.7,121.2 337.4,116.4 "/>
<polygon class="st2" points="198.1,177.3 247.2,166.2 240.5,144.7 195.5,149.6 "/>
<polygon class="st2" points="240.5,144.7 262.8,137.6 265.9,145.6 269.6,144.1 271,148.4 256.8,153.2 255.8,149.7 259.4,148.4 
	258.5,146.4 247.4,150.7 246.5,148.4 242.2,150 "/>
<polygon class="st2" points="274.5,143.5 278.2,142.7 279.2,145.8 288.8,142.7 284.7,129.9 271.5,134.2 "/>
<polyline class="st2" points="284.7,129.9 271.5,134.2 274.5,143.5 278.2,142.7 279.2,145.8 288.8,142.7 "/>
<polygon class="st2" points="288.7,128.6 292.3,141.7 300,139.7 298.9,135.2 303.1,133.8 304.1,136 317.2,132.5 316.3,129.1 
	323.3,126.7 321.8,121.2 300,125.1 "/>
<polygon class="st2" points="349.2,130.8 352.7,144.7 363,143.5 360.5,128.7 "/>
<polygon class="st2" points="353.2,147.8 353.2,151.7 360.1,150.5 359.2,146.8 "/>
<polygon class="st2" points="353.2,147.8 353.2,151.7 360.1,150.5 359.2,146.8 "/>
<polygon class="st2" points="424.2,91.5 424.2,93.8 434.6,92.2 434.6,89.7 "/>
<polygon class="st2" points="423.2,85.5 423.2,87.8 433.6,86.2 433.6,83.7 "/>
<polygon class="st2" points="437.2,86.5 437.2,88.8 449.4,86.6 449.4,84.4 "/>
<polygon class="st2" points="359.2,91.3 363.7,115.8 375.5,114 371.4,89.9 "/>
<polygon class="st2" points="331.1,88.7 364.3,73.7 365.2,85.7 355,87.7 360.7,124.4 340.8,126.8 337.4,116.4 336.7,113.2 "/>
<polygon class="st2" points="364.3,73.7 365.2,85.7 368.2,85.7 369.4,87.7 376.5,86.7 378.4,97.2 414.4,91.7 408.8,54.9 "/>
<polygon class="st2" points="437.6,41.7 408.8,54.9 411.2,71.6 452.6,65.3 452.6,62.7 475.2,59.7 474.2,50.7 "/>
<polygon class="st2" points="458.8,103.5 448,105.7 450.2,115.8 483.2,109.7 475.2,59.7 452.6,62.7 452.6,65.3 "/>
</svg>
