<?xml version="1.0" encoding="utf-8"?>
<!-- Generator: Adobe Illustrator 23.0.1, SVG Export Plug-In . SVG Version: 6.00 Build 0)  -->
<svg version="1.1" xmlns="http://www.w3.org/2000/svg" xmlns:xlink="http://www.w3.org/1999/xlink" x="0px" y="0px"
	 viewBox="0 0 580.1 428.6" style="enable-background:new 0 0 580.1 428.6;" xml:space="preserve">
<style type="text/css">
	.st0{display:none;}
	.st1{display:inline;}
	.st2{display:inline;fill:#606060;}
	.st3{display:inline;clip-path:url(#SVGID_2_);fill:#0F0E11;}
	.st4{display:none;fill-rule:evenodd;clip-rule:evenodd;fill:#606060;}
	.st5{fill-rule:evenodd;clip-rule:evenodd;fill:#606060;}
	.st6{fill:#606060;}
</style>
<!--<g id="B1" class="st0">-->
	<!--<g id="_x5F__x5F_" class="st1">-->
	<!--</g>-->
	<!--&lt;!&ndash;<g>&ndash;&gt;-->
		<!--&lt;!&ndash;<polygon class="st2" points="191.9,149.8 328.5,113.3 368.7,94.5 370.5,109 377.5,108.3 382.7,144.8 332.5,156.2 346.3,207.2 &ndash;&gt;-->
			<!--&lt;!&ndash;341.7,209.7 347.9,256 372,252.3 374.6,269.6 389.7,318.4 241.6,340.4 225.4,293.3 210,174.2 200,174.2 199.9,163.8 191.9,163.3 &ndash;&gt;-->
					<!--&lt;!&ndash;"/>&ndash;&gt;-->
		<!--&lt;!&ndash;<polygon class="st2" points="77.3,163.3 115.1,162.3 191.9,149.8 191.9,163.3 200,163.8 200,174.2 210,174.2 225.3,292.1 &ndash;&gt;-->
			<!--&lt;!&ndash;241.6,340.3 102.6,385.3 86.5,336.5 80.2,264.7 		"/>&ndash;&gt;-->
		<!--&lt;!&ndash;<polygon class="st2" points="484.6,43.3 368.1,94.5 370.1,109 377,108.3 382.6,144.6 332.5,156.2 346.1,207.1 341.4,209.7 &ndash;&gt;-->
			<!--&lt;!&ndash;347.7,256 372,252.3 374.5,269.6 389.5,318.3 488.4,303.4 486.3,200.7 488.4,72.9 		"/>&ndash;&gt;-->
	<!--&lt;!&ndash;</g>&ndash;&gt;-->
	<!--&lt;!&ndash;<polygon class="st2" points="79.5,171.4 131.7,168.8 133.5,298.7 108.2,307.8 79.5,308.7 	"/>&ndash;&gt;-->
	<!--<polygon class="st2" points="196.9,165.2 131.7,168.8 133.5,298.7 188.6,278.7 208.5,277.9 212.2,277.1 209.4,254.7 212.6,254.5-->
		<!--211.9,246.3 214.7,246.3 214.2,241.3 215.9,241.3 214.7,227.1 212.6,227.1 212.2,223.5 206.5,223.5 205.6,211 201.2,211-->
		<!--201.2,207.2 204.9,206.7 204.5,197.8 200,198.3 	"/>-->
	<!--<polygon class="st2" points="56.6,309.5 56.2,314.6 63.2,337 86,329.6 84.7,308.6 	"/>-->
	<!--<polygon class="st2" points="135.5,302.7 136.2,306.6 151.8,301.7 150.5,297.9 	"/>-->
	<!--<polygon class="st2" points="162.3,293.9 163.2,298 172.2,295.5 170.9,291.3 	"/>-->
	<!--<polygon class="st2" points="176.4,287.7 178.5,292.9 201.2,286.5 200,283.5 188.8,284.1 	"/>-->
	<!--<polygon class="st2" points="95.4,325.7 177.2,298.7 182.3,316.1 178.9,317.2 179.6,320.7 177.2,321.7 179.6,329.7 176.2,330.7-->
		<!--172.2,319.5 116.6,337 112.2,327.6 98.7,332.6 	"/>-->
	<!--<polygon class="st2" points="179.8,297.9 190.3,331.8 231.2,317.7 227.7,306.6 209.3,312.5 204.5,299.5 207.9,297.9 207.9,289.6-->
		<!--"/>-->
	<!--<polygon class="st2" points="393.2,136 424.2,131.3 424.2,126.1 435.2,124.7 435.2,127.7 450.2,126.1 453.2,142.7 455.2,142.7-->
		<!--455.2,134.7 457.7,134.7 455.2,122.7 451.2,122.7 451.2,119 466.9,116.1 469.2,131.7 466.9,132.5 471.9,166.2 492.7,162.2-->
		<!--495.2,306.6 225.4,348.8 130.2,380 116.6,337 172.2,319.5 176.2,330.7 179.4,329.7 185.9,327.6 187.5,332.7 231.2,317.7-->
		<!--227.6,306.6 226.8,304.7 233.8,304.6 233.8,302.1 257.5,299.5 258.2,304.2 266.1,302.7 266.8,313.7 311.2,308.7 302.3,238.8-->
		<!--354.9,231.1 382.2,226.7 385.7,229.7 387,235.7 389.6,235.2 388.2,223.3 398.1,221.8 394.2,193.4 400.2,180.7 419.9,177.3-->
		<!--415.7,148.4 395.6,151.7 	"/>-->
	<!--<polygon class="st2" points="223.5,245.2 239.8,242.7 241.2,257.1 244.4,256.1 246.2,267.2 276.7,263.2 280.5,296.8 265.7,298.6-->
		<!--266.1,302.7 258.2,304.2 257.5,299.5 228.3,302.7 	"/>-->
	<!--<polygon class="st2" points="239.8,242.7 256.2,240.2 257.2,245.2 260.2,245.2 261.2,253.2 264.8,252.8 264.1,244.4 273.8,242.7-->
		<!--275.2,251.7 278.5,251.1 278.5,249.3 281.7,248.7 280.9,244.7 283.6,244.4 286.1,258.2 287.9,257.7 285.7,241 299.5,238.7-->
		<!--307.8,305.7 270.2,311.4 269,298.1 280.5,296.8 276.7,263.2 246.2,267.2 244.4,256.1 241.2,257.1 	"/>-->
	<!--<polygon class="st2" points="229.4,212.7 222,219 224.7,241.3 246.7,238.6 243.2,209 	"/>-->
	<!--<polygon class="st2" points="248.5,208.1 254.2,207.3 253.9,203.9 297.8,191.8 298.2,205.5 287.4,207.4 289.7,222.8 259.6,227.4-->
		<!--260.2,236.7 252.5,237.4 	"/>-->
	<!--<polygon class="st2" points="263.6,230.4 263.6,235.7 265.5,235.7 265.5,239.6 278,238.5 277,228.5 	"/>-->
	<!--<polygon class="st2" points="283.6,227.5 297.2,225.7 298.2,235.2 285.2,237.4 	"/>-->
	<!--<path class="st2" d="M300.1,224.7l29.3-3.9l12.6-8.4c5.4,3.9,10,6.1,13.8,6.5c3.8,0.4,8.4-0.8,13.7-3.6l1.9,9.3l-70.2,10.4-->
		<!--L300.1,224.7z"/>-->
	<!--<path class="st2" d="M373.2,213.2c6.6-6.4,10.3-12.5,11.1-18.5s-1.3-12.5-6.2-19.6l4.8-3.7l26.2-3.9l-1.8-12l9.2-1.7l3.7,23.6-->
		<!--l-19.7,3.4l-6.2,12.9H390l4.2,27.1l-19.5,4L373.2,213.2z"/>-->
	<!--<path class="st2" d="M324.5,193.6c0.2,4.1,0.9,7.6,2,10.7c1.2,3.1,3,6,5.4,8.9l-3.7,3.8l-38.5,5.8l-2.3-15.4l10.8-1.9l-0.4-13.7-->
		<!--L324.5,193.6z"/>-->
	<!--<polygon class="st2" points="347.8,200.2 374,194.7 376.4,203.1 368.2,211 359.2,212.5 349.7,208.9 	"/>-->
	<!--<polygon class="st2" points="328.8,191 337.7,187.7 343,203.9 333.4,206.4 	"/>-->
	<!--<polygon class="st2" points="343.5,182.1 371.4,175.7 375.5,191.2 346.6,197.7 	"/>-->
	<!--<polygon class="st2" points="341.6,167.5 344.1,175.5 362.6,170.4 362.6,159.2 349.8,163.4 	"/>-->
	<!--<polygon class="st2" points="399.8,151 401.6,165.7 397.6,166.2 395.5,151.7 389.6,153.1 392.7,167.1 376,169.7 371.8,145.2-->
		<!--383.5,143.1 378.7,116.2 446,104.7 449.4,122.7 440.4,124.1 439.7,120.2 424.2,122.7 424.2,131.3 393.2,136 395.5,151 	"/>-->
	<!--<polygon class="st2" points="214.2,200 222.1,197.7 224.2,205 216,206.8 	"/>-->
	<!--<polygon class="st2" points="254.2,188.7 269.9,184.7 271.8,191.6 256,195.5 	"/>-->
	<!--<polygon class="st2" points="364.2,127.7 376,125.7 378.9,139.7 367.4,141.4 	"/>-->
	<!--<polygon class="st2" points="472.2,120.7 484.5,119 486.3,130.5 474.5,131.7 	"/>-->
	<!--<polygon class="st2" points="379.2,103.2 415,96.7 415.9,105.5 380.2,112.2 	"/>-->
	<!--<polygon class="st2" points="417.4,75 448.5,70.2 449.4,77.7 419,82 	"/>-->
	<!--<polygon class="st2" points="421.2,98.2 450.2,92.7 451.2,99.8 422.2,103.9 	"/>-->
	<!--<polygon class="st2" points="272.2,183.9 285.6,180.7 287.6,187.1 274.2,190.6 	"/>-->
	<!--<polygon class="st2" points="288.2,175.9 308.7,171.4 309.8,175.1 323.3,180.7 321.4,185.5 319.2,184.7 318.1,186 310.4,182.6-->
		<!--312.2,180.9 291.3,186.7 290.2,182.6 	"/>-->
	<!--<polygon class="st2" points="225.2,196.9 233.9,194.7 235.4,201.6 227,203.7 	"/>-->
	<!--<polygon class="st2" points="240.2,192.9 249.7,190.4 251.5,197.3 242,199.7 	"/>-->
	<!--<polygon class="st2" points="312.1,172.5 320.2,175.7 322.4,172 319.2,170.4 	"/>-->
	<!--<polygon class="st2" points="312.1,172.5 320.2,175.7 322.4,172 319.2,170.4 	"/>-->
	<!--<polygon class="st2" points="211.2,177.6 260.8,163.7 265.5,179.7 243.2,186.3 238.3,186 224.7,191.5 214.2,192.7 	"/>-->
	<!--<polyline class="st2" points="260.8,163.7 263.9,162.8 262.5,157.8 272.2,154.7 273.8,160 317,147.7 321.6,162.2 265.5,179.7 	"/>-->
	<!--<polygon class="st2" points="348.5,150.7 320.6,159.9 317,147.7 328.1,144.7 321.7,121.2 337.4,116.4 	"/>-->
	<!--<polygon class="st2" points="198.1,177.3 247.2,166.2 240.5,144.7 195.5,149.6 	"/>-->
	<!--<polygon class="st2" points="240.5,144.7 262.8,137.6 265.9,145.6 269.6,144.1 271,148.4 256.8,153.2 255.8,149.7 259.4,148.4-->
		<!--258.5,146.4 247.4,150.7 246.5,148.4 242.2,150 	"/>-->
	<!--<polygon class="st2" points="274.5,143.5 278.2,142.7 279.2,145.8 288.8,142.7 284.7,129.9 271.5,134.2 	"/>-->
	<!--<polyline class="st2" points="284.7,129.9 271.5,134.2 274.5,143.5 278.2,142.7 279.2,145.8 288.8,142.7 	"/>-->
	<!--<polygon class="st2" points="288.7,128.6 292.3,141.7 300,139.7 298.9,135.2 303.1,133.8 304.1,136 317.2,132.5 316.3,129.1-->
		<!--323.3,126.7 321.8,121.2 300,125.1 	"/>-->
	<!--<polygon class="st2" points="349.2,130.8 352.7,144.7 363,143.5 360.5,128.7 	"/>-->
	<!--<polygon class="st2" points="353.2,147.8 353.2,151.7 360.1,150.5 359.2,146.8 	"/>-->
	<!--<polygon class="st2" points="353.2,147.8 353.2,151.7 360.1,150.5 359.2,146.8 	"/>-->
	<!--<polygon class="st2" points="424.2,91.5 424.2,93.8 434.6,92.2 434.6,89.7 	"/>-->
	<!--<polygon class="st2" points="423.2,85.5 423.2,87.8 433.6,86.2 433.6,83.7 	"/>-->
	<!--<polygon class="st2" points="437.2,86.5 437.2,88.8 449.4,86.6 449.4,84.4 	"/>-->
	<!--<polygon class="st2" points="359.2,91.3 363.7,115.8 375.5,114 371.4,89.9 	"/>-->
	<!--<polygon class="st2" points="331.1,88.7 364.3,73.7 365.2,85.7 355,87.7 360.7,124.4 340.8,126.8 337.4,116.4 336.7,113.2 	"/>-->
	<!--<polygon class="st2" points="364.3,73.7 365.2,85.7 368.2,85.7 369.4,87.7 376.5,86.7 378.4,97.2 414.4,91.7 408.8,54.9 	"/>-->
	<!--<polygon class="st2" points="437.6,41.7 408.8,54.9 411.2,71.6 452.6,65.3 452.6,62.7 475.2,59.7 474.2,50.7 	"/>-->
	<!--<polygon class="st2" points="458.8,103.5 448,105.7 450.2,115.8 483.2,109.7 475.2,59.7 452.6,62.7 452.6,65.3 	"/>-->
<!--</g>-->
<g id="图层_2">
	<!--<g class="st0">-->
		<!--<defs>-->
			<!--<rect id="SVGID_1_" x="-446" y="-131" width="1280" height="720"/>-->
		<!--</defs>-->
		<!--<clipPath id="SVGID_2_" class="st1">-->
			<!--<use xlink:href="#SVGID_1_"  style="overflow:visible;"/>-->
		<!--</clipPath>-->
		<!--<rect x="67" y="54" class="st3" width="471.9" height="348.6"/>-->
	<!--</g>-->
	<path class="st4" d="M112.6,202.7l-3.2-28.3l7-1.8l-1.2-6.8l84.5-13.3l17,11.1l2.6,30.3l31.3-4.9l8.1-3.1l-2.7-10.3l-5.3,1.6
		l-2.4-15.7l16.8-20.3l69.6-21.1l36.5,3.8l26.4-6.3v-7.6l66.5-46.2c7.6-3.2,11.6-4.8,11.9-4.8c11.8-0.9,21.8,0.8,30,5.3
		c2.4,1.3,5.7,3.9,9.7,7.8c2,2.6,3.8,4.9,5.3,6.8c2.2,2.8,4,5.5,5.8,7.5c-2,0-3.5,0.1-4.6,0.2l2.9,28l0.5,29l-4.2,20l2.3,22.9
		l-14,1.9l6.7,47l13.3-1.9l4.2,30.3l-2.9,0.7l3.2,16.7l-21.9,7.5L500.1,312l-24.4,7.7c-6.5,0.9-12.2,1.5-17.3,2
		c-5,0.5-9.7,0.9-14,1.4l-16.5-6.5l-10.3,3.6v8.6l-35.9,4.2l-29.2,3.8l-1.3-4.2l-24.2,3.9v5.8l-55.5,7.1l-34.3,7.9L205.8,368
		l-20.4,7.1l-3.1-5.6l-21,7.8l1.3,4.5L111,397.6l-9.6-28.2L76.9,319L72,203.5l14.6-0.8V198l18.5,1.3L112.6,202.7z"/>
	<polygon class="st5" points="269.1,303.9 262.9,324.4 271.3,349.6 284,347.7 282.3,333.4 275.1,334.6 275.1,329.7 280.7,329.7
		284,329.3 282.9,320.2 285.2,320.2 286.2,329.3 287.4,329.1 287.9,334.6 289.3,334.6 288.9,328.9 301.9,327.1 302.9,334.9
		305.1,334.9 303.9,326.8 301.5,312 280.7,315.2 278.6,302.2 	"/>
	<polygon class="st6" points="251,189 272.7,180.9 274.1,184.1 292.1,178.2 290.4,172.5 319.8,163.5 325.8,183.8 269.1,202.2
		251.9,193.3 	"/>
	<polygon class="st5" points="351.3,332.5 347.3,305.6 350.4,304.4 349,299.5 347.3,300 346.4,295.6 375.7,286.1 396.6,283.6
		400.2,296.7 383.2,303 386.2,311.6 387.6,316 383.7,317.6 382.2,313.2 375.7,316 378.5,323.6 381.5,322.3 385.2,332.5 352.6,336.9
			"/>
	<path class="st5" d="M147.1,310.5l-0.8-27l57.6-2.6v8.5H203c0.3,3.1,0.6,5.7,0.9,7.8l-27.5,12.7L147.1,310.5z"/>
	<path class="st5" d="M347.9,121.7l6.8,24.2l13.8-4.3l1.6,6.4l-42.8,13.4l4.4,13.6l27.5,13.3c1.8-6.3,8-11.6,18.5-16.2l0.2-22.9
		l-7-25L347.9,121.7z"/>
	<path class="st5" d="M72,203.5l14.6-0.7V198l18.4,1.3l7.6,3.4l7,12.9v17.8c0.7,4.9,4,10.2,9.7,16l-7.1,10.2l-11.1,0.8l-0.4-16.2
		l-1.5-17.2L90,228l-0.4-10l-17.1,0.9L72,203.5z"/>
	<polygon class="st5" points="233.3,210.6 255.2,206.6 255.4,208.1 259.9,207.3 261.7,221.1 257.1,221.8 257.4,224 235,230.3 	"/>
	<polygon class="st5" points="170.3,157.2 171.1,186.7 185.4,185.6 185.4,175.2 188.3,175.2 188.3,185.6 197.4,185 197.4,178.1
		203.1,178.1 203.1,188.2 171.1,190 171.6,215.2 201.2,214.5 219.9,199.3 216.8,163.6 199.7,152.5 	"/>
	<polygon class="st5" points="129.9,163.5 129.9,178 144.3,177.6 144.3,173.3 161.9,173.2 161.9,165.6 161.9,158.5 	"/>
	<polygon class="st5" points="139.5,189.9 139.5,193.6 162.5,192.4 162.5,184.2 152,184.2 152,180.4 148.1,180.4 148.1,184.2
		136.8,184.2 136.8,189.9 	"/>
	<polygon class="st5" points="275,170.1 270.5,156.6 266.5,157.6 265.4,153.5 283.3,148.2 284.8,152.6 295.8,149.4 291.2,133.4
		264.6,141.5 248.1,161.7 250.1,177.9 	"/>
	<polygon class="st5" points="444.7,233.5 464,230.7 468.2,258.9 443.3,262.5 444.3,269.4 447.3,268.9 448.7,275.5 445.1,276.3
		446.9,282.7 437.3,285.5 435.1,279.7 430.2,281.4 427,258 422.9,256.4 421.7,251.2 425.4,250.8 422.5,241.6 431.8,240 432.7,247.6
		446.5,245 	"/>
	<polygon class="st5" points="450.5,288.6 452.1,304.1 458.6,322 476.1,320 466.1,289.2 461.5,291 459.8,286.1 452.5,288.2 	"/>
	<polygon class="st5" points="115.4,166.1 121.1,196.8 129.7,203.8 157.5,205.3 162.9,196.4 162.9,192.2 133.5,193.8 129.8,190.4
		129.8,163.5 	"/>
	<polygon class="st5" points="111.4,350.4 134.8,342.7 136.6,349.2 140.1,348.1 137.9,341.5 140.6,340.5 152.3,348.5 162.6,381.8
		147.4,386.4 141.8,370.2 140.6,370.6 137.5,362.2 134.4,363.2 137.1,371.9 136.3,372.2 137.5,376.2 136.3,376.7 134.8,372.7
		132.3,373.7 131.1,370.2 124.3,372.7 125.3,375.9 119.9,377.9 	"/>
	<path class="st5" d="M144.9,254.8c10.7,0.9,18.9-4.3,24.8-15.7l52.9-1.9l2.4,24.6l-17.6,1.5l-0.9-14.6l-21.9,1.5l0.4,13.6
		l-13.9,0.7l0.5,14.4l-25.2,0.7L144.9,254.8z"/>
	<path class="st5" d="M255.1,231.4l2.1,30.9l6.9-0.9l-0.9-4.6l9.9-1.4l-1.2-9.5l58.6-9.3l32-4.4c-4.1-5.9-6.5-10.1-7.3-12.7
		s-1.7-6.3-2.7-11.1l-11.1,1.8l-13.9-1L255.1,231.4z"/>
	<path class="st5" d="M438,163.1l25.2-3.6l2,14.9l-8.2,1.5l7.3,54.9l-46.2,6.7v1.5h-1.9l0.3,2.7l-0.6,0.5l-4.1-4.9
		c16.6-12.6,20.3-29.2,11.1-49.5l17.8-3.8L438,163.1z"/>
	<polygon class="st5" points="469.3,299.3 490.9,292 483.8,271.2 531.1,264 534.1,281.6 512.3,289.1 500.4,312.2 476.1,320 	"/>
	<path class="st5" d="M509.9,74l1.6,16.2l-3.4,0.5l-1-10.2l-5,0.4l1.1,10.5l-3.1,0.4l0.3,2.8l6.2-0.7l2.8,23.5l3-1l-0.4-7l11.8-1.8
		L522.1,87l4.7-0.2c-7.3-9.4-11.1-14.1-11.3-14.3l-3.8,1L509.9,74z"/>
	<polygon class="st5" points="278.6,302.2 314.6,296.9 323.3,304.3 322.3,305.9 326.9,335.6 326.9,341.2 306.3,344.3 303.9,326.6
		301.5,312 280.7,315.2 	"/>
	<polygon class="st5" points="237.5,357.2 235.1,331.2 220.3,315 178.7,329 174.4,342.3 185.4,375 195.5,371.5 190.1,354.7
		190.1,351.1 180.4,344.2 180.9,332.2 197.2,342.3 218.1,335.7 220.8,344.5 222,344.2 227.2,360.6 	"/>
	<path class="st5" d="M74.9,271.8l13.1-0.6l1.8,31.6c13.9-0.9,21.4-1.4,22.4-1.4l-1.1-31.7l10.5-0.4l3.3,16.3l0.4,26.4h-1.5
		l-14.5,7.3l-32.3-0.3L74.9,271.8z"/>
	<polygon class="st5" points="454.2,110.2 454.9,115.2 469.7,112.7 471.6,123.8 483.9,121.7 484.3,105.1 	"/>
	<path class="st5" d="M467.3,127.8l0.9,7.9l4.4-0.7l0.5,3.6l17.2-2.6c1.1-4.1,3-7.5,5.5-10.2c3.7-4.1,8.2-6.6,13.8-8.3l-2.8-23.6
		l-6.3,0.6l-2.4-17l9.1-1.3l-1.3-11.4c-7.5-4.3-17.5-6.1-29.9-5.3l5.6,11l6.9,0.6l4.1,7.8l-2.2,6.9l0.4,21.2l-3,16.5L467.3,127.8z"
		/>
	<path class="st5" d="M452.7,95c4.3-9.6,8.4-14.8,12.2-15.5c3.8-0.7,10-1.7,18.6-3l1.7,13.9L452.7,95z"/>
	<polygon class="st5" points="72.7,218.9 89.7,218 90.1,228 95.5,227.7 95.5,233.6 105.6,233.3 105.6,236.8 102.5,237 102.8,256.6
		95.5,256.9 95.5,260.7 74.8,262.2 	"/>
	<path class="st5" d="M398.4,140.2h8.9c-0.3-9.2,1.9-16.1,6.5-20.9c6.9-7.1,12.7-11.7,15.3-12.6c1.8-0.7,4.1-1.5,6.9-2.6
		c7.9-5.8,12.6-10.2,14.1-13.1c1.5-2.9,2.5-5.2,3.2-6.9l5.1-6l6.8-4.8l-1.6-8.9l-66.3,46c0,0.9,0,1.9,0,3.1c0,1.2,0,2.5,0,4.5
		c0,0.7,0.1,1.7,0.1,2.4c0.1,1.2,0.1,2.3,0.2,3.8C397.8,126.9,398,132.3,398.4,140.2z"/>
	<polygon class="st5" points="457.7,98 459.1,106.8 483,102.8 481.7,93.9 	"/>
	<polygon class="st5" points="295.8,149.4 298.7,148.4 299.2,150.3 312.7,146.1 316.7,144.8 318.9,153.1 319.8,156.1 279.5,168.3
		277.5,161.4 272.7,163.1 270.6,156.6 266.5,157.6 265.4,153.5 283.3,148.2 284.8,152.6 	"/>
	<polygon class="st5" points="133.1,226.8 139.4,240 135.2,241.9 129,229.2 	"/>
	<polygon class="st5" points="111.4,350.4 101.5,369.7 111,397.6 122.2,394.2 113.7,366.8 116.1,365.6 	"/>
	<polygon class="st5" points="411.7,143.7 419.2,142 419.7,152.1 412.9,153.1 	"/>
	<polygon class="st5" points="156.3,343.9 163.9,365.3 174.7,361.8 167.8,339.5 	"/>
	<polygon class="st5" points="436,112 437.3,120.8 444.6,119.6 443.3,110.8 	"/>
	<polygon class="st5" points="437.9,125.3 439.3,133.8 446.3,132.8 445.8,128.6 451.5,127.3 450.7,122.9 445.2,123.9 	"/>
	<polygon class="st5" points="328.1,305.3 341,303 345,333.6 332.8,335.6 	"/>
	<polygon class="st5" points="400.9,282.7 409.4,309.2 424.3,304.4 416.1,281.1 	"/>
	<polygon class="st5" points="223.6,211.9 224.9,228.4 231.2,228.4 231.2,210.9 	"/>
	<path class="st5" d="M274.7,273.2l1.1,8.8l33.9-5.2l-1.1-5.2l-2.1,0.4l-0.7-3.4l2.8-0.6c-1-5.4-1.5-8.3-1.5-8.8l-12.7,1.8l0.4,8.7
		l-4.5,0.8v-5.7l-1.6-0.9l-1.3-5.4h-10v5.3l-3.7,0.8L274.7,273.2z"/>
	<rect x="385.1" y="159.4" class="st5" width="9.3" height="10.6"/>
	<polygon class="st5" points="400.3,159.5 408.7,158.5 409.6,168.2 407.2,171.3 400.3,168.9 	"/>
	<polygon class="st5" points="413.4,129 415,138.1 422.8,136.6 421.1,127.8 	"/>
	<path class="st5" d="M433.8,291.5l16.7-3l1.6,15.5l6.5,17.9l-14,1.4c-3.4-9.5-5.3-14.5-5.6-15.2C438.7,307.6,437,302,433.8,291.5z"
		/>
	<polygon class="st5" points="466.1,289.2 470.3,287.7 468.7,282.7 473.1,281.1 474.9,286.1 478.3,296.3 469.3,299.3 	"/>
	<polygon class="st5" points="184.6,220.6 183.9,225.8 207.5,229.9 208.4,224.5 	"/>
	<polygon class="st5" points="136.4,269.8 137.5,283.7 129.1,284.2 129.1,272.4 134.6,257.2 140,259.7 	"/>
	<polygon class="st5" points="175.2,267.9 188.9,267.3 189.5,281.6 175.2,282.1 175.2,277.8 178.1,277.8 178.1,272.5 175.2,272.5
		"/>
	<polygon class="st5" points="193.2,266.7 193.8,281.3 204,280.9 203.9,266.1 	"/>
	<polygon class="st5" points="188.3,253.7 188.6,263.9 202.7,263.7 202.7,256.5 193.2,256.4 193.2,253.3 188.3,253.3 	"/>
	<polygon class="st5" points="234.1,262.5 248.2,260.9 246.4,238 232.4,239 	"/>
	<polygon class="st5" points="371.1,124.1 372.7,130.1 397.7,124.1 397.4,117.9 	"/>
	<polygon class="st5" points="431.3,112.6 432.5,121.9 425,122.7 423.9,113.4 	"/>
	<polygon class="st5" points="435.9,148.3 437.2,157 456.1,154.2 455.9,152 457.6,148.5 460.6,148.1 485.6,144 485.6,136.7
		459.8,140.6 460.1,144.3 	"/>
	<polygon class="st5" points="400.3,296.5 402.1,302.2 406.6,300.5 409.4,309 404.8,310.9 391.6,315.3 390.1,310.7 387.5,301.3 	"/>
	<polygon class="st5" points="197.2,342.2 206,367.9 195.6,371.5 190,354.8 190,351 180.3,344.1 180.9,332.2 	"/>
	<polygon class="st5" points="210,266.4 210.7,294.2 227.3,289.6 225.5,264.4 	"/>
	<polygon class="st5" points="257.6,268 259,283.9 269.9,282.5 268.3,266.5 	"/>
	<polygon class="st5" points="388.4,327.7 397.5,324 398.6,327.1 389.1,330.8 	"/>
	<polygon class="st5" points="412.9,158.8 417.1,170 424.1,167.3 419.5,156.2 	"/>
	<polygon class="st5" points="478.7,302 482.6,300.5 485.6,309.7 481.9,311.2 	"/>
	<rect x="161.7" y="223.9" class="st5" width="7.6" height="7.3"/>
	<polygon class="st5" points="94.7,291.7 101.9,291.3 101.9,293 105.3,293.1 105.3,296.5 101.9,296.5 101.9,302 94.7,302.5 	"/>
	<polygon class="st5" points="193.4,269.3 197.1,269.3 197.1,272.9 193.6,272.9 	"/>
	<path class="st5" d="M375.4,241c13.1,4.7,25.5,3.4,36.4-3.9l4.1,4.9c-12,9.6-26.5,11.4-42.7,5.2l1.6-4.4L375.4,241z"/>
	<polygon class="st5" points="425.5,127.1 426.9,136 434.3,134.7 433.4,125.9 	"/>
	<polygon class="st5" points="463.6,128 464.4,135.2 459.2,136.3 460.1,144.4 431.6,149 433.9,166.3 427.4,167.3 423.8,143.9
		425.9,140.1 451.2,135.9 454.9,129.5 	"/>
	<polygon class="st5" points="492,169.6 496.2,198.9 510.4,197.5 506.4,167.5 	"/>
	<polygon class="st5" points="520.6,108.2 522,115.5 524.8,115.2 525,128.2 508.4,130.5 506.3,118.6 512.5,116.5 512.1,109.4 	"/>
	<polygon class="st5" points="214.4,336.8 217.3,345.3 206.2,349.1 206.7,350.5 200.8,352.7 200.2,351.1 197.2,342.3 	"/>
	<polygon class="st5" points="316.6,256 317.6,266.2 322.3,265.4 322.9,269.1 321.2,269.4 322.9,277.1 332.9,277.1 329.1,254.4 	"/>
	<ellipse class="st5" cx="389.3" cy="199.4" rx="13.9" ry="13.8"/>
	<polygon class="st5" points="343.3,203.4 345.7,198.8 348.2,193.6 329.2,184 325.8,188.4 321.4,192.1 322.4,203.4 	"/>
	<polygon class="st5" points="362.6,208.5 366.7,221.7 371.9,220.3 367.2,206.3 	"/>
	<polygon class="st5" points="408.7,209.6 411.2,210.7 413.5,211.6 407.8,225.1 403,222.9 	"/>
	<polygon class="st5" points="93.8,281.8 93.8,287.8 106.6,287.8 106.6,281.8 102.9,281.8 102.9,275.1 93.8,274.9 	"/>
	<polygon class="st5" points="294.7,242.2 296.5,255.2 309.1,253.2 307.2,240.2 	"/>
	<polygon class="st5" points="271,303.6 271.7,309.9 276.2,309 275.6,303 	"/>
	<path class="st5" d="M429.8,166.9c0.9,9.1,1.5,13.8,1.9,14.1l4.6-0.5l-2.2-14.3L429.8,166.9z"/>
	<polygon class="st5" points="416.2,311.6 417.4,314.9 424.3,312.5 423.6,309.2 	"/>
	<polygon class="st5" points="237.5,268.5 238.3,275.3 248.2,274 247.6,267.3 	"/>
	<path class="st5" d="M510.8,82.1c0.1,0,2.5-0.3,7.3-1l0.6,6.3l-7.4,1C510.9,84.3,510.7,82.1,510.8,82.1z"/>
	<path class="st5" d="M447.7,107.7c1.6,0,2.9-1.3,2.9-2.9c0-1.6-1.3-2.9-2.9-2.9c-1.6,0-2.9,1.3-2.9,2.9
		C444.7,106.4,446,107.7,447.7,107.7z"/>
	<polygon class="st5" points="384.6,139.5 385.5,148.7 393.6,148.2 392.4,138.5 	"/>
	<polygon class="st5" points="487.9,298.8 491,307.6 495.4,306.2 492.6,297.1 	"/>
	<polygon class="st5" points="451.2,268.2 452.3,274.6 463.2,273.2 462.3,266.8 	"/>
	<polygon class="st5" points="508.8,134.5 509.5,140 510.6,145.7 515.9,145.1 514.6,139.3 515.5,133.4 	"/>
	<path class="st5" d="M469,264.3c1.7,0.1,4.4,0.3,8,0.6l0.7,5.1l5.8-0.9l0.3,2.1l22.5-3.4l-2.2-13.8l27.5-4.3l-2.3-16.1l-13.1,1.9
		l-6.7-46.7l14.1-1.8l-2.4-23.2l4.3-20l-0.5-15.7l-16.7,2.4l-2.1-12c-12.7,5.5-18.3,15.7-16.7,30.6l-27.3,4.3l2.8,20.9l-8.4,1.3
		L464,231l2.1,14.5c0.9,6.1,1.5,10.5,1.8,13.2c0.3,2.8,0.6,4.6,0.8,5.6"/>
	<polygon class="st6" points="344.2,121.3 351.5,146.1 324.4,154.5 321.3,143.6 325.6,142.3 321.7,129.9 323.9,129.1 322.2,124
		334.5,120.3 	"/>
	<path class="st6" d="M366.1,235.6c4.6,3.1,7.7,4.9,9.3,5.5l-6.7,19l-27.4,14.8l-3.8-27l-9.1,1.2v1.7l-11.6,2l-1.5-8.5L366.1,235.6z
		"/>
	<polygon class="st6" points="269.3,207.1 307.2,195.7 309.3,200.6 289,213 286.2,208.6 282.2,211.1 283.4,216.2 269.3,220.3 	"/>
</g>
</svg>
