<?xml version="1.0" encoding="utf-8"?>
<!-- Generator: Adobe Illustrator 23.0.1, SVG Export Plug-In . SVG Version: 6.00 Build 0)  -->
<svg version="1.1" xmlns="http://www.w3.org/2000/svg" xmlns:xlink="http://www.w3.org/1999/xlink" x="0px" y="0px"
	 viewBox="0 0 580.1 428.6" style="enable-background:new 0 0 580.1 428.6;" xml:space="preserve">
<style type="text/css">
	.st0{display:none;}
	.st1{display:inline;}
	.st2{display:inline;fill:#606060;}
	.st3{display:inline;clip-path:url(#SVGID_2_);fill:#0F0E11;}
	.st4{fill-rule:evenodd;clip-rule:evenodd;fill:#606060;}
	.st5{display:inline;fill-rule:evenodd;clip-rule:evenodd;fill:#606060;}
	.st6{fill:none;stroke:#0F0E11;stroke-miterlimit:10;}
	.st7{fill:#606060;}
	.st8{display:inline;fill:#2C0189;}
	.st9{display:none;fill:none;stroke:#2C0189;stroke-miterlimit:10;}
	.st10{display:inline;fill:#005BC9;}
	.st11{display:none;fill:none;}
</style>
<g id="B1" class="st0">
	<g id="_x5F__x5F_" class="st1">
	</g>
	<g>
		<polygon class="st2" points="191.9,149.8 328.5,113.3 368.7,94.5 370.5,109 377.5,108.3 382.7,144.8 332.5,156.2 346.3,207.2 
			341.7,209.7 347.9,256 372,252.3 374.6,269.6 389.7,318.4 241.6,340.4 225.4,293.3 210,174.2 200,174.2 199.9,163.8 191.9,163.3 
					"/>
		<polygon class="st2" points="77.3,163.3 115.1,162.3 191.9,149.8 191.9,163.3 200,163.8 200,174.2 210,174.2 225.3,292.1 
			241.6,340.3 102.6,385.3 86.5,336.5 80.2,264.7 		"/>
		<polygon class="st2" points="484.6,43.3 368.1,94.5 370.1,109 377,108.3 382.6,144.6 332.5,156.2 346.1,207.1 341.4,209.7 
			347.7,256 372,252.3 374.5,269.6 389.5,318.3 488.4,303.4 486.3,200.7 488.4,72.9 		"/>
	</g>
	<polygon class="st2" points="79.5,171.4 131.7,168.8 133.5,298.7 108.2,307.8 79.5,308.7 	"/>
	<polygon class="st2" points="196.9,165.2 131.7,168.8 133.5,298.7 188.6,278.7 208.5,277.9 212.2,277.1 209.4,254.7 212.6,254.5 
		211.9,246.3 214.7,246.3 214.2,241.3 215.9,241.3 214.7,227.1 212.6,227.1 212.2,223.5 206.5,223.5 205.6,211 201.2,211 
		201.2,207.2 204.9,206.7 204.5,197.8 200,198.3 	"/>
	<polygon class="st2" points="56.6,309.5 56.2,314.6 63.2,337 86,329.6 84.7,308.6 	"/>
	<polygon class="st2" points="135.5,302.7 136.2,306.6 151.8,301.7 150.5,297.9 	"/>
	<polygon class="st2" points="162.3,293.9 163.2,298 172.2,295.5 170.9,291.3 	"/>
	<polygon class="st2" points="176.4,287.7 178.5,292.9 201.2,286.5 200,283.5 188.8,284.1 	"/>
	<polygon class="st2" points="95.4,325.7 177.2,298.7 182.3,316.1 178.9,317.2 179.6,320.7 177.2,321.7 179.6,329.7 176.2,330.7 
		172.2,319.5 116.6,337 112.2,327.6 98.7,332.6 	"/>
	<polygon class="st2" points="179.8,297.9 190.3,331.8 231.2,317.7 227.7,306.6 209.3,312.5 204.5,299.5 207.9,297.9 207.9,289.6 	
		"/>
	<polygon class="st2" points="393.2,136 424.2,131.3 424.2,126.1 435.2,124.7 435.2,127.7 450.2,126.1 453.2,142.7 455.2,142.7 
		455.2,134.7 457.7,134.7 455.2,122.7 451.2,122.7 451.2,119 466.9,116.1 469.2,131.7 466.9,132.5 471.9,166.2 492.7,162.2 
		495.2,306.6 225.4,348.8 130.2,380 116.6,337 172.2,319.5 176.2,330.7 179.4,329.7 185.9,327.6 187.5,332.7 231.2,317.7 
		227.6,306.6 226.8,304.7 233.8,304.6 233.8,302.1 257.5,299.5 258.2,304.2 266.1,302.7 266.8,313.7 311.2,308.7 302.3,238.8 
		354.9,231.1 382.2,226.7 385.7,229.7 387,235.7 389.6,235.2 388.2,223.3 398.1,221.8 394.2,193.4 400.2,180.7 419.9,177.3 
		415.7,148.4 395.6,151.7 	"/>
	<polygon class="st2" points="223.5,245.2 239.8,242.7 241.2,257.1 244.4,256.1 246.2,267.2 276.7,263.2 280.5,296.8 265.7,298.6 
		266.1,302.7 258.2,304.2 257.5,299.5 228.3,302.7 	"/>
	<polygon class="st2" points="239.8,242.7 256.2,240.2 257.2,245.2 260.2,245.2 261.2,253.2 264.8,252.8 264.1,244.4 273.8,242.7 
		275.2,251.7 278.5,251.1 278.5,249.3 281.7,248.7 280.9,244.7 283.6,244.4 286.1,258.2 287.9,257.7 285.7,241 299.5,238.7 
		307.8,305.7 270.2,311.4 269,298.1 280.5,296.8 276.7,263.2 246.2,267.2 244.4,256.1 241.2,257.1 	"/>
	<polygon class="st2" points="229.4,212.7 222,219 224.7,241.3 246.7,238.6 243.2,209 	"/>
	<polygon class="st2" points="248.5,208.1 254.2,207.3 253.9,203.9 297.8,191.8 298.2,205.5 287.4,207.4 289.7,222.8 259.6,227.4 
		260.2,236.7 252.5,237.4 	"/>
	<polygon class="st2" points="263.6,230.4 263.6,235.7 265.5,235.7 265.5,239.6 278,238.5 277,228.5 	"/>
	<polygon class="st2" points="283.6,227.5 297.2,225.7 298.2,235.2 285.2,237.4 	"/>
	<path class="st2" d="M300.1,224.7l29.3-3.9l12.6-8.4c5.4,3.9,10,6.1,13.8,6.5c3.8,0.4,8.4-0.8,13.7-3.6l1.9,9.3l-70.2,10.4
		L300.1,224.7z"/>
	<path class="st2" d="M373.2,213.2c6.6-6.4,10.3-12.5,11.1-18.5s-1.3-12.5-6.2-19.6l4.8-3.7l26.2-3.9l-1.8-12l9.2-1.7l3.7,23.6
		l-19.7,3.4l-6.2,12.9H390l4.2,27.1l-19.5,4L373.2,213.2z"/>
	<path class="st2" d="M324.5,193.6c0.2,4.1,0.9,7.6,2,10.7c1.2,3.1,3,6,5.4,8.9l-3.7,3.8l-38.5,5.8l-2.3-15.4l10.8-1.9l-0.4-13.7
		L324.5,193.6z"/>
	<polygon class="st2" points="347.8,200.2 374,194.7 376.4,203.1 368.2,211 359.2,212.5 349.7,208.9 	"/>
	<polygon class="st2" points="328.8,191 337.7,187.7 343,203.9 333.4,206.4 	"/>
	<polygon class="st2" points="343.5,182.1 371.4,175.7 375.5,191.2 346.6,197.7 	"/>
	<polygon class="st2" points="341.6,167.5 344.1,175.5 362.6,170.4 362.6,159.2 349.8,163.4 	"/>
	<polygon class="st2" points="399.8,151 401.6,165.7 397.6,166.2 395.5,151.7 389.6,153.1 392.7,167.1 376,169.7 371.8,145.2 
		383.5,143.1 378.7,116.2 446,104.7 449.4,122.7 440.4,124.1 439.7,120.2 424.2,122.7 424.2,131.3 393.2,136 395.5,151 	"/>
	<polygon class="st2" points="214.2,200 222.1,197.7 224.2,205 216,206.8 	"/>
	<polygon class="st2" points="254.2,188.7 269.9,184.7 271.8,191.6 256,195.5 	"/>
	<polygon class="st2" points="364.2,127.7 376,125.7 378.9,139.7 367.4,141.4 	"/>
	<polygon class="st2" points="472.2,120.7 484.5,119 486.3,130.5 474.5,131.7 	"/>
	<polygon class="st2" points="379.2,103.2 415,96.7 415.9,105.5 380.2,112.2 	"/>
	<polygon class="st2" points="417.4,75 448.5,70.2 449.4,77.7 419,82 	"/>
	<polygon class="st2" points="421.2,98.2 450.2,92.7 451.2,99.8 422.2,103.9 	"/>
	<polygon class="st2" points="272.2,183.9 285.6,180.7 287.6,187.1 274.2,190.6 	"/>
	<polygon class="st2" points="288.2,175.9 308.7,171.4 309.8,175.1 323.3,180.7 321.4,185.5 319.2,184.7 318.1,186 310.4,182.6 
		312.2,180.9 291.3,186.7 290.2,182.6 	"/>
	<polygon class="st2" points="225.2,196.9 233.9,194.7 235.4,201.6 227,203.7 	"/>
	<polygon class="st2" points="240.2,192.9 249.7,190.4 251.5,197.3 242,199.7 	"/>
	<polygon class="st2" points="312.1,172.5 320.2,175.7 322.4,172 319.2,170.4 	"/>
	<polygon class="st2" points="312.1,172.5 320.2,175.7 322.4,172 319.2,170.4 	"/>
	<polygon class="st2" points="211.2,177.6 260.8,163.7 265.5,179.7 243.2,186.3 238.3,186 224.7,191.5 214.2,192.7 	"/>
	<polyline class="st2" points="260.8,163.7 263.9,162.8 262.5,157.8 272.2,154.7 273.8,160 317,147.7 321.6,162.2 265.5,179.7 	"/>
	<polygon class="st2" points="348.5,150.7 320.6,159.9 317,147.7 328.1,144.7 321.7,121.2 337.4,116.4 	"/>
	<polygon class="st2" points="198.1,177.3 247.2,166.2 240.5,144.7 195.5,149.6 	"/>
	<polygon class="st2" points="240.5,144.7 262.8,137.6 265.9,145.6 269.6,144.1 271,148.4 256.8,153.2 255.8,149.7 259.4,148.4 
		258.5,146.4 247.4,150.7 246.5,148.4 242.2,150 	"/>
	<polygon class="st2" points="274.5,143.5 278.2,142.7 279.2,145.8 288.8,142.7 284.7,129.9 271.5,134.2 	"/>
	<polyline class="st2" points="284.7,129.9 271.5,134.2 274.5,143.5 278.2,142.7 279.2,145.8 288.8,142.7 	"/>
	<polygon class="st2" points="288.7,128.6 292.3,141.7 300,139.7 298.9,135.2 303.1,133.8 304.1,136 317.2,132.5 316.3,129.1 
		323.3,126.7 321.8,121.2 300,125.1 	"/>
	<polygon class="st2" points="349.2,130.8 352.7,144.7 363,143.5 360.5,128.7 	"/>
	<polygon class="st2" points="353.2,147.8 353.2,151.7 360.1,150.5 359.2,146.8 	"/>
	<polygon class="st2" points="353.2,147.8 353.2,151.7 360.1,150.5 359.2,146.8 	"/>
	<polygon class="st2" points="424.2,91.5 424.2,93.8 434.6,92.2 434.6,89.7 	"/>
	<polygon class="st2" points="423.2,85.5 423.2,87.8 433.6,86.2 433.6,83.7 	"/>
	<polygon class="st2" points="437.2,86.5 437.2,88.8 449.4,86.6 449.4,84.4 	"/>
	<polygon class="st2" points="359.2,91.3 363.7,115.8 375.5,114 371.4,89.9 	"/>
	<polygon class="st2" points="331.1,88.7 364.3,73.7 365.2,85.7 355,87.7 360.7,124.4 340.8,126.8 337.4,116.4 336.7,113.2 	"/>
	<polygon class="st2" points="364.3,73.7 365.2,85.7 368.2,85.7 369.4,87.7 376.5,86.7 378.4,97.2 414.4,91.7 408.8,54.9 	"/>
	<polygon class="st2" points="437.6,41.7 408.8,54.9 411.2,71.6 452.6,65.3 452.6,62.7 475.2,59.7 474.2,50.7 	"/>
	<polygon class="st2" points="458.8,103.5 448,105.7 450.2,115.8 483.2,109.7 475.2,59.7 452.6,62.7 452.6,65.3 	"/>
</g>
<g id="F2" class="st0">
	<g>
		<defs>
			<rect id="SVGID_1_" x="-446" y="-131" width="1280" height="720"/>
		</defs>
		<clipPath id="SVGID_2_" class="st1">
			<use xlink:href="#SVGID_1_"  style="overflow:visible;"/>
		</clipPath>
		<rect x="67" y="54" class="st3" width="471.9" height="348.6"/>
	</g>
	<path class="st4" d="M112.6,202.7l-3.2-28.3l7-1.8l-1.2-6.8l84.5-13.3l17,11.1l2.6,30.3l31.3-4.9l8.1-3.1l-2.7-10.3l-5.3,1.6
		l-2.4-15.7l16.8-20.3l69.6-21.1l36.5,3.8l26.4-6.3v-7.6l66.5-46.2c7.6-3.2,11.6-4.8,11.9-4.8c11.8-0.9,21.8,0.8,30,5.3
		c2.4,1.3,5.7,3.9,9.7,7.8c2,2.6,3.8,4.9,5.3,6.8c2.2,2.8,4,5.5,5.8,7.5c-2,0-3.5,0.1-4.6,0.2l2.9,28l0.5,29l-4.2,20l2.3,22.9
		l-14,1.9l6.7,47l13.3-1.9l4.2,30.3l-2.9,0.7l3.2,16.7l-21.9,7.5L500.1,312l-24.4,7.7c-6.5,0.9-12.2,1.5-17.3,2
		c-5,0.5-9.7,0.9-14,1.4l-16.5-6.5l-10.3,3.6v8.6l-35.9,4.2l-29.2,3.8l-1.3-4.2l-24.2,3.9v5.8l-55.5,7.1l-34.3,7.9L205.8,368
		l-20.4,7.1l-3.1-5.6l-21,7.8l1.3,4.5L111,397.6l-9.6-28.2L76.9,319L72,203.5l14.6-0.8V198l18.5,1.3L112.6,202.7z"/>
	<polygon class="st5" points="269.1,303.9 262.9,324.4 271.3,349.6 284,347.7 282.3,333.4 275.1,334.6 275.1,329.7 280.7,329.7 
		284,329.3 282.9,320.2 285.2,320.2 286.2,329.3 287.4,329.1 287.9,334.6 289.3,334.6 288.9,328.9 301.9,327.1 302.9,334.9 
		305.1,334.9 303.9,326.8 301.5,312 280.7,315.2 278.6,302.2 	"/>
	<polygon class="st2" points="251,189 272.7,180.9 274.1,184.1 292.1,178.2 290.4,172.5 319.8,163.5 325.8,183.8 269.1,202.2 
		251.9,193.3 	"/>
	<polygon class="st5" points="351.3,332.5 347.3,305.6 350.4,304.4 349,299.5 347.3,300 346.4,295.6 375.7,286.1 396.6,283.6 
		400.2,296.7 383.2,303 386.2,311.6 387.6,316 383.7,317.6 382.2,313.2 375.7,316 378.5,323.6 381.5,322.3 385.2,332.5 352.6,336.9 
			"/>
	<path class="st5" d="M147.1,310.5l-0.8-27l57.6-2.6v8.5H203c0.3,3.1,0.6,5.7,0.9,7.8l-27.5,12.7L147.1,310.5z"/>
	<path class="st5" d="M347.9,121.7l6.8,24.2l13.8-4.3l1.6,6.4l-42.8,13.4l4.4,13.6l27.5,13.3c1.8-6.3,8-11.6,18.5-16.2l0.2-22.9
		l-7-25L347.9,121.7z"/>
	<path class="st5" d="M72,203.5l14.6-0.7V198l18.4,1.3l7.6,3.4l7,12.9v17.8c0.7,4.9,4,10.2,9.7,16l-7.1,10.2l-11.1,0.8l-0.4-16.2
		l-1.5-17.2L90,228l-0.4-10l-17.1,0.9L72,203.5z"/>
	<polygon class="st5" points="233.3,210.6 255.2,206.6 255.4,208.1 259.9,207.3 261.7,221.1 257.1,221.8 257.4,224 235,230.3 	"/>
	<polygon class="st5" points="170.3,157.2 171.1,186.7 185.4,185.6 185.4,175.2 188.3,175.2 188.3,185.6 197.4,185 197.4,178.1 
		203.1,178.1 203.1,188.2 171.1,190 171.6,215.2 201.2,214.5 219.9,199.3 216.8,163.6 199.7,152.5 	"/>
	<polygon class="st5" points="129.9,163.5 129.9,178 144.3,177.6 144.3,173.3 161.9,173.2 161.9,165.6 161.9,158.5 	"/>
	<polygon class="st5" points="139.5,189.9 139.5,193.6 162.5,192.4 162.5,184.2 152,184.2 152,180.4 148.1,180.4 148.1,184.2 
		136.8,184.2 136.8,189.9 	"/>
	<polygon class="st5" points="275,170.1 270.5,156.6 266.5,157.6 265.4,153.5 283.3,148.2 284.8,152.6 295.8,149.4 291.2,133.4 
		264.6,141.5 248.1,161.7 250.1,177.9 	"/>
	<polygon class="st5" points="444.7,233.5 464,230.7 468.2,258.9 443.3,262.5 444.3,269.4 447.3,268.9 448.7,275.5 445.1,276.3 
		446.9,282.7 437.3,285.5 435.1,279.7 430.2,281.4 427,258 422.9,256.4 421.7,251.2 425.4,250.8 422.5,241.6 431.8,240 432.7,247.6 
		446.5,245 	"/>
	<polygon class="st5" points="450.5,288.6 452.1,304.1 458.6,322 476.1,320 466.1,289.2 461.5,291 459.8,286.1 452.5,288.2 	"/>
	<polygon class="st5" points="115.4,166.1 121.1,196.8 129.7,203.8 157.5,205.3 162.9,196.4 162.9,192.2 133.5,193.8 129.8,190.4 
		129.8,163.5 	"/>
	<polygon class="st5" points="111.4,350.4 134.8,342.7 136.6,349.2 140.1,348.1 137.9,341.5 140.6,340.5 152.3,348.5 162.6,381.8 
		147.4,386.4 141.8,370.2 140.6,370.6 137.5,362.2 134.4,363.2 137.1,371.9 136.3,372.2 137.5,376.2 136.3,376.7 134.8,372.7 
		132.3,373.7 131.1,370.2 124.3,372.7 125.3,375.9 119.9,377.9 	"/>
	<path class="st5" d="M144.9,254.8c10.7,0.9,18.9-4.3,24.8-15.7l52.9-1.9l2.4,24.6l-17.6,1.5l-0.9-14.6l-21.9,1.5l0.4,13.6
		l-13.9,0.7l0.5,14.4l-25.2,0.7L144.9,254.8z"/>
	<path class="st5" d="M255.1,231.4l2.1,30.9l6.9-0.9l-0.9-4.6l9.9-1.4l-1.2-9.5l58.6-9.3l32-4.4c-4.1-5.9-6.5-10.1-7.3-12.7
		s-1.7-6.3-2.7-11.1l-11.1,1.8l-13.9-1L255.1,231.4z"/>
	<path class="st5" d="M438,163.1l25.2-3.6l2,14.9l-8.2,1.5l7.3,54.9l-46.2,6.7v1.5h-1.9l0.3,2.7l-0.6,0.5l-4.1-4.9
		c16.6-12.6,20.3-29.2,11.1-49.5l17.8-3.8L438,163.1z"/>
	<polygon class="st5" points="469.3,299.3 490.9,292 483.8,271.2 531.1,264 534.1,281.6 512.3,289.1 500.4,312.2 476.1,320 	"/>
	<path class="st5" d="M509.9,74l1.6,16.2l-3.4,0.5l-1-10.2l-5,0.4l1.1,10.5l-3.1,0.4l0.3,2.8l6.2-0.7l2.8,23.5l3-1l-0.4-7l11.8-1.8
		L522.1,87l4.7-0.2c-7.3-9.4-11.1-14.1-11.3-14.3l-3.8,1L509.9,74z"/>
	<polygon class="st5" points="278.6,302.2 314.6,296.9 323.3,304.3 322.3,305.9 326.9,335.6 326.9,341.2 306.3,344.3 303.9,326.6 
		301.5,312 280.7,315.2 	"/>
	<polygon class="st5" points="237.5,357.2 235.1,331.2 220.3,315 178.7,329 174.4,342.3 185.4,375 195.5,371.5 190.1,354.7 
		190.1,351.1 180.4,344.2 180.9,332.2 197.2,342.3 218.1,335.7 220.8,344.5 222,344.2 227.2,360.6 	"/>
	<path class="st5" d="M74.9,271.8l13.1-0.6l1.8,31.6c13.9-0.9,21.4-1.4,22.4-1.4l-1.1-31.7l10.5-0.4l3.3,16.3l0.4,26.4h-1.5
		l-14.5,7.3l-32.3-0.3L74.9,271.8z"/>
	<polygon class="st5" points="454.2,110.2 454.9,115.2 469.7,112.7 471.6,123.8 483.9,121.7 484.3,105.1 	"/>
	<path class="st5" d="M467.3,127.8l0.9,7.9l4.4-0.7l0.5,3.6l17.2-2.6c1.1-4.1,3-7.5,5.5-10.2c3.7-4.1,8.2-6.6,13.8-8.3l-2.8-23.6
		l-6.3,0.6l-2.4-17l9.1-1.3l-1.3-11.4c-7.5-4.3-17.5-6.1-29.9-5.3l5.6,11l6.9,0.6l4.1,7.8l-2.2,6.9l0.4,21.2l-3,16.5L467.3,127.8z"
		/>
	<path class="st5" d="M452.7,95c4.3-9.6,8.4-14.8,12.2-15.5c3.8-0.7,10-1.7,18.6-3l1.7,13.9L452.7,95z"/>
	<polygon class="st5" points="72.7,218.9 89.7,218 90.1,228 95.5,227.7 95.5,233.6 105.6,233.3 105.6,236.8 102.5,237 102.8,256.6 
		95.5,256.9 95.5,260.7 74.8,262.2 	"/>
	<path class="st5" d="M398.4,140.2h8.9c-0.3-9.2,1.9-16.1,6.5-20.9c6.9-7.1,12.7-11.7,15.3-12.6c1.8-0.7,4.1-1.5,6.9-2.6
		c7.9-5.8,12.6-10.2,14.1-13.1c1.5-2.9,2.5-5.2,3.2-6.9l5.1-6l6.8-4.8l-1.6-8.9l-66.3,46c0,0.9,0,1.9,0,3.1c0,1.2,0,2.5,0,4.5
		c0,0.7,0.1,1.7,0.1,2.4c0.1,1.2,0.1,2.3,0.2,3.8C397.8,126.9,398,132.3,398.4,140.2z"/>
	<polygon class="st5" points="457.7,98 459.1,106.8 483,102.8 481.7,93.9 	"/>
	<polygon class="st5" points="295.8,149.4 298.7,148.4 299.2,150.3 312.7,146.1 316.7,144.8 318.9,153.1 319.8,156.1 279.5,168.3 
		277.5,161.4 272.7,163.1 270.6,156.6 266.5,157.6 265.4,153.5 283.3,148.2 284.8,152.6 	"/>
	<polygon class="st5" points="133.1,226.8 139.4,240 135.2,241.9 129,229.2 	"/>
	<polygon class="st5" points="111.4,350.4 101.5,369.7 111,397.6 122.2,394.2 113.7,366.8 116.1,365.6 	"/>
	<polygon class="st5" points="411.7,143.7 419.2,142 419.7,152.1 412.9,153.1 	"/>
	<polygon class="st5" points="156.3,343.9 163.9,365.3 174.7,361.8 167.8,339.5 	"/>
	<polygon class="st5" points="436,112 437.3,120.8 444.6,119.6 443.3,110.8 	"/>
	<polygon class="st5" points="437.9,125.3 439.3,133.8 446.3,132.8 445.8,128.6 451.5,127.3 450.7,122.9 445.2,123.9 	"/>
	<polygon class="st5" points="328.1,305.3 341,303 345,333.6 332.8,335.6 	"/>
	<polygon class="st5" points="400.9,282.7 409.4,309.2 424.3,304.4 416.1,281.1 	"/>
	<polygon class="st5" points="223.6,211.9 224.9,228.4 231.2,228.4 231.2,210.9 	"/>
	<path class="st5" d="M274.7,273.2l1.1,8.8l33.9-5.2l-1.1-5.2l-2.1,0.4l-0.7-3.4l2.8-0.6c-1-5.4-1.5-8.3-1.5-8.8l-12.7,1.8l0.4,8.7
		l-4.5,0.8v-5.7l-1.6-0.9l-1.3-5.4h-10v5.3l-3.7,0.8L274.7,273.2z"/>
	<rect x="385.1" y="159.4" class="st5" width="9.3" height="10.6"/>
	<polygon class="st5" points="400.3,159.5 408.7,158.5 409.6,168.2 407.2,171.3 400.3,168.9 	"/>
	<polygon class="st5" points="413.4,129 415,138.1 422.8,136.6 421.1,127.8 	"/>
	<path class="st5" d="M433.8,291.5l16.7-3l1.6,15.5l6.5,17.9l-14,1.4c-3.4-9.5-5.3-14.5-5.6-15.2C438.7,307.6,437,302,433.8,291.5z"
		/>
	<polygon class="st5" points="466.1,289.2 470.3,287.7 468.7,282.7 473.1,281.1 474.9,286.1 478.3,296.3 469.3,299.3 	"/>
	<polygon class="st5" points="184.6,220.6 183.9,225.8 207.5,229.9 208.4,224.5 	"/>
	<polygon class="st5" points="136.4,269.8 137.5,283.7 129.1,284.2 129.1,272.4 134.6,257.2 140,259.7 	"/>
	<polygon class="st5" points="175.2,267.9 188.9,267.3 189.5,281.6 175.2,282.1 175.2,277.8 178.1,277.8 178.1,272.5 175.2,272.5 	
		"/>
	<polygon class="st5" points="193.2,266.7 193.8,281.3 204,280.9 203.9,266.1 	"/>
	<polygon class="st5" points="188.3,253.7 188.6,263.9 202.7,263.7 202.7,256.5 193.2,256.4 193.2,253.3 188.3,253.3 	"/>
	<polygon class="st5" points="234.1,262.5 248.2,260.9 246.4,238 232.4,239 	"/>
	<polygon class="st5" points="371.1,124.1 372.7,130.1 397.7,124.1 397.4,117.9 	"/>
	<polygon class="st5" points="431.3,112.6 432.5,121.9 425,122.7 423.9,113.4 	"/>
	<polygon class="st5" points="435.9,148.3 437.2,157 456.1,154.2 455.9,152 457.6,148.5 460.6,148.1 485.6,144 485.6,136.7 
		459.8,140.6 460.1,144.3 	"/>
	<polygon class="st5" points="400.3,296.5 402.1,302.2 406.6,300.5 409.4,309 404.8,310.9 391.6,315.3 390.1,310.7 387.5,301.3 	"/>
	<polygon class="st5" points="197.2,342.2 206,367.9 195.6,371.5 190,354.8 190,351 180.3,344.1 180.9,332.2 	"/>
	<polygon class="st5" points="210,266.4 210.7,294.2 227.3,289.6 225.5,264.4 	"/>
	<polygon class="st5" points="257.6,268 259,283.9 269.9,282.5 268.3,266.5 	"/>
	<polygon class="st5" points="388.4,327.7 397.5,324 398.6,327.1 389.1,330.8 	"/>
	<polygon class="st5" points="412.9,158.8 417.1,170 424.1,167.3 419.5,156.2 	"/>
	<polygon class="st5" points="478.7,302 482.6,300.5 485.6,309.7 481.9,311.2 	"/>
	<rect x="161.7" y="223.9" class="st5" width="7.6" height="7.3"/>
	<polygon class="st5" points="94.7,291.7 101.9,291.3 101.9,293 105.3,293.1 105.3,296.5 101.9,296.5 101.9,302 94.7,302.5 	"/>
	<polygon class="st5" points="193.4,269.3 197.1,269.3 197.1,272.9 193.6,272.9 	"/>
	<path class="st5" d="M375.4,241c13.1,4.7,25.5,3.4,36.4-3.9l4.1,4.9c-12,9.6-26.5,11.4-42.7,5.2l1.6-4.4L375.4,241z"/>
	<polygon class="st5" points="425.5,127.1 426.9,136 434.3,134.7 433.4,125.9 	"/>
	<polygon class="st5" points="463.6,128 464.4,135.2 459.2,136.3 460.1,144.4 431.6,149 433.9,166.3 427.4,167.3 423.8,143.9 
		425.9,140.1 451.2,135.9 454.9,129.5 	"/>
	<polygon class="st5" points="492,169.6 496.2,198.9 510.4,197.5 506.4,167.5 	"/>
	<polygon class="st5" points="520.6,108.2 522,115.5 524.8,115.2 525,128.2 508.4,130.5 506.3,118.6 512.5,116.5 512.1,109.4 	"/>
	<polygon class="st5" points="214.4,336.8 217.3,345.3 206.2,349.1 206.7,350.5 200.8,352.7 200.2,351.1 197.2,342.3 	"/>
	<polygon class="st5" points="316.6,256 317.6,266.2 322.3,265.4 322.9,269.1 321.2,269.4 322.9,277.1 332.9,277.1 329.1,254.4 	"/>
	<ellipse class="st5" cx="389.3" cy="199.4" rx="13.9" ry="13.8"/>
	<polygon class="st5" points="343.3,203.4 345.7,198.8 348.2,193.6 329.2,184 325.8,188.4 321.4,192.1 322.4,203.4 	"/>
	<polygon class="st5" points="362.6,208.5 366.7,221.7 371.9,220.3 367.2,206.3 	"/>
	<polygon class="st5" points="408.7,209.6 411.2,210.7 413.5,211.6 407.8,225.1 403,222.9 	"/>
	<polygon class="st5" points="93.8,281.8 93.8,287.8 106.6,287.8 106.6,281.8 102.9,281.8 102.9,275.1 93.8,274.9 	"/>
	<polygon class="st5" points="294.7,242.2 296.5,255.2 309.1,253.2 307.2,240.2 	"/>
	<polygon class="st5" points="271,303.6 271.7,309.9 276.2,309 275.6,303 	"/>
	<path class="st5" d="M429.8,166.9c0.9,9.1,1.5,13.8,1.9,14.1l4.6-0.5l-2.2-14.3L429.8,166.9z"/>
	<polygon class="st5" points="416.2,311.6 417.4,314.9 424.3,312.5 423.6,309.2 	"/>
	<polygon class="st5" points="237.5,268.5 238.3,275.3 248.2,274 247.6,267.3 	"/>
	<path class="st5" d="M510.8,82.1c0.1,0,2.5-0.3,7.3-1l0.6,6.3l-7.4,1C510.9,84.3,510.7,82.1,510.8,82.1z"/>
	<path class="st5" d="M447.7,107.7c1.6,0,2.9-1.3,2.9-2.9c0-1.6-1.3-2.9-2.9-2.9c-1.6,0-2.9,1.3-2.9,2.9
		C444.7,106.4,446,107.7,447.7,107.7z"/>
	<polygon class="st5" points="384.6,139.5 385.5,148.7 393.6,148.2 392.4,138.5 	"/>
	<polygon class="st5" points="487.9,298.8 491,307.6 495.4,306.2 492.6,297.1 	"/>
	<polygon class="st5" points="451.2,268.2 452.3,274.6 463.2,273.2 462.3,266.8 	"/>
	<polygon class="st5" points="508.8,134.5 509.5,140 510.6,145.7 515.9,145.1 514.6,139.3 515.5,133.4 	"/>
	<path class="st5" d="M469,264.3c1.7,0.1,4.4,0.3,8,0.6l0.7,5.1l5.8-0.9l0.3,2.1l22.5-3.4l-2.2-13.8l27.5-4.3l-2.3-16.1l-13.1,1.9
		l-6.7-46.7l14.1-1.8l-2.4-23.2l4.3-20l-0.5-15.7l-16.7,2.4l-2.1-12c-12.7,5.5-18.3,15.7-16.7,30.6l-27.3,4.3l2.8,20.9l-8.4,1.3
		L464,231l2.1,14.5c0.9,6.1,1.5,10.5,1.8,13.2c0.3,2.8,0.6,4.6,0.8,5.6"/>
	<polygon class="st2" points="344.2,121.3 351.5,146.1 324.4,154.5 321.3,143.6 325.6,142.3 321.7,129.9 323.9,129.1 322.2,124 
		334.5,120.3 	"/>
	<path class="st2" d="M366.1,235.6c4.6,3.1,7.7,4.9,9.3,5.5l-6.7,19l-27.4,14.8l-3.8-27l-9.1,1.2v1.7l-11.6,2l-1.5-8.5L366.1,235.6z
		"/>
	<polygon class="st2" points="269.3,207.1 307.2,195.7 309.3,200.6 289,213 286.2,208.6 282.2,211.1 283.4,216.2 269.3,220.3 	"/>
</g>
<g id="F3" class="st0">
	<polygon class="st2" points="135,322 145.3,330.4 153,356.3 151,357.7 153,363.4 101,380.5 91.3,352.2 101,332.5 	"/>
	<polygon class="st2" points="150,328.2 156.3,347.3 167.4,343.4 160.2,323.9 	"/>
	<polygon class="st2" points="169.4,310.7 211,296.3 223.6,313.1 227,338 173,355.6 164,320 	"/>
	<polygon class="st2" points="255.1,287.2 248.7,307.3 256.9,331.1 312.8,323.4 308,288.2 299.9,280 261.2,285.9 261.2,287.2 
		257.5,288.2 256.9,286.6 	"/>
	<polygon class="st2" points="313.9,287.4 316,307.9 326.9,306.4 325,286 	"/>
	<polygon class="st2" points="330.4,283.2 333.5,282.2 334.2,286.4 331.1,287.6 336.2,319.2 356.8,316.2 348.1,290.8 351.5,290.2 
		350.9,286.4 369,280.8 366.1,270.2 363.9,267.7 361.1,267.7 330.4,277.8 	"/>
	<polygon class="st2" points="368,267.3 369,269.2 372.2,278.1 375.4,278.8 386.6,275.2 391.6,290.2 405.9,285 410.9,298.7 
		422.3,294.4 418,281.9 415.9,281.9 410.3,265.6 408,265.6 407,261.4 	"/>
	<polygon class="st2" points="354.4,288.6 368.5,283.9 370.7,289.4 372.2,289 370.3,283.2 383.1,279.1 384.4,283.2 388.6,281.3 
		391.6,290.2 405.9,285 410.8,298.6 401.1,302.3 402,310.6 356.9,316.2 348,290.7 352.9,290.2 356,299.2 358.1,298.3 	"/>
	<polygon class="st2" points="516,238.3 517,249.9 512.1,251.4 517,285 489.6,294.2 458,304.1 426.6,307.3 410.9,260.8 410,253.2 	
		"/>
	<polygon class="st2" points="512.1,175.2 516,238.3 429.4,250.4 425.1,227.2 420.8,228.1 419.5,221 413.2,222.2 411.8,212.8 
		414,212.8 417,214.2 418.2,216 418.2,218 422.9,216.9 421,200.8 434.1,186.5 	"/>
	<polygon class="st2" points="398.1,226.3 403.9,220.2 413,220.2 411.8,212.7 407,212.7 402.1,213.4 393.7,220.2 	"/>
	<polygon class="st2" points="405,225.2 413.8,224.2 413.2,222.2 419.6,221 420.8,228 425,227.3 429.4,250.4 410,253.2 406.8,237.1 
			"/>
	<path class="st2" d="M363.9,233.5c6.6,1.1,12.3,1.4,16.9,0.7c4.6-0.7,8.9-2.3,12.9-5l6.2,10l3.4,16.4l-36,4.8l-9.1-13L363.9,233.5z
		"/>
	<path class="st2" d="M372.2,226.5l7.7-0.3l7.4-2.1l0.8,8.3c-2,1-4.5,1.6-7.4,2c-2.9,0.4-5.9,0.4-9.1,0.1L372.2,226.5z"/>
	<polygon class="st2" points="323,266.2 347.2,252.1 352.2,264.9 325,273.6 	"/>
	<polygon class="st2" points="292.2,266.3 293,275.5 301,273.6 312.8,274.4 311.3,265.4 302.3,265.4 	"/>
	<polygon class="st2" points="285.8,268.1 286.8,276.2 264.9,279.8 263.3,271 	"/>
	<path class="st2" d="M209,281.3l43.4-7.6c-0.2,3.9-0.6,6.6-1,8.2c-2,7.3-7,12.1-15.1,14.4C225.6,299.3,216.5,294.3,209,281.3z"/>
	<polygon class="st2" points="199.8,283.2 199.8,294.7 176.5,302.8 174,294.7 	"/>
	<polygon class="st2" points="142.1,299.3 168.6,297.2 171,304.7 146.2,313 145.3,305.9 	"/>
	<polygon class="st2" points="112.4,267.5 116.1,279.1 116.4,296.3 101.5,302.8 65.2,304.9 64,235.7 104.7,234.2 115,229.2 
		116.9,230.9 118.3,241.4 110,259.3 111.2,264 100.4,264 100.4,255.8 101.5,255.8 101.5,252.7 83,253.8 83,267.1 81.7,267.1 
		81.7,270.2 98.4,269.2 98.4,279.1 91.5,279.1 91.5,284.2 101.5,284.2 101.5,270.2 104.7,270.2 104.7,269.2 109.3,269.2 
		109.3,267.5 	"/>
	<polygon class="st2" points="76.8,187.4 89,189.2 102.5,193 108.3,200.8 112,224.2 109.8,224.2 109.8,227.5 114,227.5 115,229.2 
		104.8,234.4 64.1,235.7 63,188.2 	"/>
	<polygon class="st2" points="77.1,183 94.8,184.4 98.4,186.7 104.8,180.2 102.4,176.2 99.6,159.2 105.4,158.2 107,169.3 
		112.3,182.2 120.2,188.2 108.4,201.8 102.5,193 89,189.2 77.1,187.4 	"/>
	<polygon class="st2" points="105.2,151.4 146.3,145 146.3,159.2 133.4,159.3 133.4,162.1 144,162.1 144,169.2 133.4,170.2 
		133.4,174.1 128.4,175.2 128.4,177.5 141.9,177.5 142.5,186.7 119.7,188.2 112.4,182.5 107,169.2 105.2,158.2 	"/>
	<polygon class="st2" points="170,141 146.2,145 147.7,189.2 153,192.2 157.3,196.5 170,195.7 168.9,163.3 171,162.8 	"/>
	<polygon class="st2" points="121.4,202.4 125,199.2 130.5,196.8 135,195.9 140.5,195.9 149,199.3 154.5,209.2 154.5,215.8 
		151.7,222.2 149,225.8 145.9,227.9 141.2,229.5 136.3,231.4 130.5,230.9 127.1,229.5 124.5,226.4 118.1,213.6 119.2,206.4 	"/>
	<polygon class="st2" points="123.8,242.6 131.3,244.3 132.4,284.2 122.2,285 120.4,270.8 122.2,265.7 116.9,263.8 	"/>
	<path class="st2" d="M137,266.4c0.3,0,8.1-0.4,23.4-1.1v3.9h15.4v9.2h3.8l0.4,5.8l-15.5,8.1l-26.7,1.9
		C137.1,275.7,136.8,266.4,137,266.4z"/>
	<polygon class="st2" points="135.9,238.3 140.6,238.3 146.8,236.1 152.5,232.2 154,231.4 158.2,226.5 159.5,223.4 186,222.2 
		186,233 181.1,233.6 181.1,237 177.1,237 177.1,234.9 174.2,234.9 174.2,248 164.6,248.3 164.6,247.1 160.5,247.6 161.5,261.2 
		136.6,262.7 	"/>
	<polygon class="st2" points="164.5,256.4 167,256.4 167,262.3 164.8,262.3 165,266.4 178.7,265.3 178.4,250.6 164.3,251.4 	"/>
	<polygon class="st2" points="218.2,263.1 219.1,272.1 196.4,276.2 180.3,284.2 178.9,265.2 	"/>
	<polygon class="st2" points="196.2,249.7 202,249.5 202,250.4 209.5,250.2 209.5,248.7 216.5,248 218.2,263.1 197,264.2 	"/>
	<polygon class="st2" points="182.1,250.2 193,250 193,253.1 196.4,252.9 197,264.2 182.1,264.9 181.2,252.9 	"/>
	<polygon class="st2" points="181,240.8 191.5,240.8 191.5,247.3 181.2,247.5 	"/>
	<polygon class="st2" points="190.4,221.7 213.5,220.2 216.2,244 211,245.6 205,246.2 205,244.9 202.4,244.9 202.4,246.2 
		196.2,246.7 195.4,233.7 191,233.7 	"/>
	<polygon class="st2" points="220,223.2 222,222.8 224.5,222.2 228.3,222.2 231.2,222.2 233.4,221.7 236,221.7 237.2,242.3 
		234.3,243 232.1,243.3 229.7,243.7 227,244 224.5,244 222,244.3 	"/>
	<polygon class="st2" points="239.7,216.1 260.3,209.2 264,236.9 259.4,237.6 259.9,243 242.1,246.2 	"/>
	<polygon class="st2" points="243.5,250.4 244.6,267.7 295.2,260.2 292.5,243 280,244.5 280.5,252.2 277,252.6 276.6,245.6 
		274.3,246.2 273.8,239.6 268,240.2 268,241.8 264,242.7 264,246.2 254.8,247.8 254.8,249.2 252,249.6 251.7,247.8 247.4,248.7 
		247.7,249.6 	"/>
	<polygon class="st2" points="313.9,239.9 315.1,248.3 334,245.8 335,252.7 321.7,260.7 295.2,260.1 292.6,243 	"/>
	<polygon class="st2" points="292.6,228.3 301.5,227 302,230.3 304.9,229.9 304.5,226.6 312,225.2 313.9,240 294.8,242.7 	"/>
	<polygon class="st2" points="348.7,218 361,224.9 358.4,230.2 357.2,230.9 352.3,243 335,252.7 334.1,245.8 325.7,246.9 325.7,244 
		320.6,244 320.6,239.6 317.8,239.6 317.4,238.3 319,237.6 319,235.4 316.7,235.4 315.9,224.9 345,220.2 	"/>
	<polygon class="st2" points="281.8,229.5 287.9,228.9 289.1,238.3 283.3,239.3 	"/>
	<polygon class="st2" points="263.3,208.7 266.9,237.3 277,236.1 276,226.5 333.5,219.2 344.3,218 347,215.1 343.7,210.8 
		340.8,205.2 338.5,199.3 337.4,193.4 331,195.2 314,193.4 	"/>
	<polygon class="st2" points="377.9,217.1 372.2,217.4 366.6,216.3 361.2,214.2 356.6,212.2 353.2,209.2 350.7,206.4 346.6,193 
		346.9,186.7 347.6,182.5 349.6,178.5 352.8,174.6 357.3,170.7 368,166.6 374,166.1 379.9,166.1 384.4,166.6 389,168.1 392.1,170.2 
		394.9,173 396.6,177.5 397.6,182.5 397.2,187.4 401.6,190.2 391.8,208.7 385.6,205.2 	"/>
	<polygon class="st2" points="405.5,172.8 406.8,176.2 410.3,180.2 414.6,183.2 418.7,184 419.5,184.9 447.7,181.4 444.8,159.9 
		443.4,145.7 438.5,146.3 438.5,149.2 434.2,150.2 433.9,147.1 420,149.2 422.6,171.7 414.6,172.8 414.6,171.2 	"/>
	<polygon class="st2" points="405.5,172.8 406.8,176.2 410.3,180.2 414.6,183.2 418.7,184 419.5,184.9 447.7,181.4 444.8,159.9 
		443.4,145.7 438.5,146.3 438.5,149.2 434.2,150.2 433.9,147.1 420,149.2 422.6,171.7 414.6,172.8 414.6,171.2 	"/>
	<polygon class="st2" points="490.8,130.6 493.7,155 492,155.2 493.7,165.4 490.3,166.1 491,172.5 447.5,179.7 446.6,173.4 
		451.8,172.5 447.5,145.7 469.2,142.2 468.5,134.2 	"/>
	<polygon class="st2" points="490.8,54.5 485,62 492.3,116.9 480,118.5 481.4,132.2 490.8,130.6 493.8,155 499.3,154.2 501.5,168.1 
		494.7,169.2 495.8,177.5 512.1,175.2 505.8,70.2 499.3,61.2 	"/>
	<polygon class="st2" points="166.3,208 169.3,216.2 194.7,214.1 195.8,209.2 209,209.2 209.5,198.9 196.3,199.3 192.5,205.2 
		189.7,205.2 187.9,200.2 	"/>
	<polygon class="st2" points="223.9,194.9 223.4,190.2 233,188.9 233.8,193.7 248.7,191.9 250,203.2 243.6,204.2 244,208 
		235.6,210.6 222,211.9 216.9,212.8 214.9,195.9 	"/>
	<polygon class="st2" points="260.2,186.7 259,193.4 261.2,202.6 296.8,192.2 292.6,177.5 	"/>
	<polygon class="st2" points="333,179.2 327.7,188.2 310.1,187.9 305.1,178.2 313.2,169.1 	"/>
	<polygon class="st2" points="177.6,156.1 177.6,170.2 184.7,170.2 184.7,163.3 186.6,163.3 186.2,156.6 188.5,156.6 189.2,172.9 
		177.6,172.9 177.6,174.1 174.8,174.1 174.8,195.2 189.7,194.2 204.3,186.5 215.4,184.4 214,163.3 204.3,164.9 203.4,149.8 
		188,138.2 170,141 170.6,154.2 177.6,154.6 	"/>
	<polygon class="st2" points="238.7,160.2 241.5,178.9 215.3,184.4 214,163.3 	"/>
	<polygon class="st2" points="259,149.8 260.7,155.8 248.7,159.3 249.6,163.3 239.6,166.1 238.7,160.2 236,160.2 235.1,146.2 
		251.8,127.2 307.6,110.2 316,138.2 294.6,145.1 293.4,141.8 288.3,143.1 286.2,135.2 284.5,136.1 288.3,148.5 272.2,152.9 
		271,149.8 264.9,152.2 263.3,148.5 	"/>
	<polygon class="st2" points="253.5,181 268,177.3 268.6,178.5 282.2,174.6 280.7,169 279.4,169 278.6,166.5 279.8,166.1 
		276.5,154.2 262.8,158.9 263.3,160.2 260.1,161.4 259.4,160.6 239.6,166.1 241.5,178.9 247,178.5 250,179.2 	"/>
	<polygon class="st2" points="285.5,152.8 292.2,150.8 292.2,149.5 298,147.7 298.5,148.8 305.2,146.7 305.2,145.5 311.6,143.5 
		315.6,156.8 315.6,159.3 308.8,161.9 303.6,167.9 285.5,173 284,167.4 285,167.4 284.6,164.3 283.3,164.9 279.9,153.2 285,151.7 	
		"/>
	<polygon class="st2" points="321.1,150.6 317.4,151.9 319,156.8 318.3,161.4 336.4,169.2 349.4,164.9 354.5,160.2 377.7,154.8 
		373,137.5 371.9,135.2 372.2,128.8 375.4,123.6 362.5,123.6 352.5,126.7 353.7,131.7 337.2,136.9 337.2,136.1 332.9,137.5 
		335.2,146.4 329.8,147.9 327.7,140.2 319,143.1 	"/>
	<polygon class="st2" points="353.3,109.9 353.8,112.2 348.1,114.2 352.4,126.6 343.7,129.6 342.5,125.7 335.2,127.4 336.3,131.7 
		331.1,133.3 331.5,135.2 325.6,137.8 323.6,131.7 318.3,133.3 319.1,136.5 315.8,137.8 307.6,110.2 321.4,106.5 	"/>
	<polygon class="st2" points="376.4,129.2 388.6,125.1 392.6,136.2 380,141 	"/>
	<polygon class="st2" points="380.8,104.2 381.4,97 396.6,85.9 408.6,103.6 394.7,111.2 387.2,120.7 381.4,123.6 362.4,123.6 
		352.3,126.7 348,114.2 354,112.2 353.5,109.9 	"/>
	<polygon class="st2" points="381.4,144.4 393.2,140.2 397,158.2 389.6,156.1 384.4,155.8 	"/>
	<polygon class="st2" points="398,112.5 422.9,108.9 424.4,119.5 398.8,122.8 	"/>
	<polygon class="st2" points="439.7,54.6 396.5,85.9 408.6,103.6 416.8,98.9 421,94 423.2,90.9 429.8,76.6 433.1,72.7 444.2,64 
		442.6,59.2 	"/>
	<polygon class="st2" points="398.8,127.4 397.3,129.6 400.4,153.3 411.8,151.6 414.1,166.1 418.3,165.7 413.2,125.3 	"/>
	<polygon class="st2" points="456.7,106.5 458.7,108.2 459.4,113.2 458.7,114.2 459.4,115.5 460.9,116.9 462,116.9 462,120 
		451.5,121.5 452.2,125 462.7,123.4 462.7,127.2 462,127.4 463.2,135.7 451,137.4 450,133.4 442.5,134.5 441.9,130.6 438.2,131.9 
		439.3,140.8 420,143.7 418.7,134.8 414.5,135.7 413.2,125.1 424,123.4 427.3,121.5 429.4,117.3 432.6,111.2 434.5,109.9 
		438.2,109.2 	"/>
	<polygon class="st2" points="436.3,98.6 437.2,105.6 467.3,101.1 465.7,94 	"/>
	<polygon class="st2" points="437.2,85.9 438.5,94.7 460.5,91.6 459.7,82.2 	"/>
	<polygon class="st2" points="433.7,77.6 463.6,73.2 464.5,79.2 434.6,83.7 	"/>
	<polygon class="st2" points="442.7,68.1 460.6,65.1 461.2,69.5 443.8,72.2 	"/>
	<polygon class="st2" points="450.8,61.2 455,60.2 462.7,59.8 471.3,60.2 477.5,61.2 478.6,64 479.4,66.6 478.1,68.5 485.8,67.3 
		485,62 490.8,54.5 487,51.5 474.9,46.8 469.6,46.2 462.7,46.2 457.1,46.8 449,49.2 445.2,49.9 439.7,54.5 442.5,59.2 444.3,64 	"/>
	<polygon class="st2" points="468.9,71.3 475.4,70.2 480.9,105.6 474.9,106.7 	"/>
	<polygon class="st2" points="485.7,67.3 492.3,116.9 474,119.3 472.7,110.2 482.5,108.5 476.9,69.5 478.5,68.2 	"/>
	<polygon class="st2" points="468,104.7 462.1,105.6 461.1,107.3 461.7,111.2 464.6,115.5 465.4,121.9 466.4,124.2 469.3,124 
		470,129.3 467.5,129.6 468.4,134.2 481.4,132 480,118.8 474,119.3 472.6,110.2 	"/>
</g>
<g id="F4" class="st0">
	<polygon class="st6" points="224.5,314 248.7,308.1 256.9,332.4 312.7,324.3 312,319 335,315.4 335.9,320.3 402,311.4 401.1,303.1 
		422.2,295.7 426.2,308.1 458,304.8 518,285.8 512,252.2 517,250.7 505.8,71.1 500,62 487.1,51.8 474,46.9 462.6,46.9 458.1,46.9 
		445.2,50.6 380.7,97.8 380.7,104.3 355,110.6 320.7,107.1 251.7,128 235.2,146.6 236,161 204.3,165 203.5,150 187.7,139 
		104.9,152.1 104.9,158.1 99.1,159 101.8,177 104.9,180.9 99.1,187.4 95.4,185.1 76.7,184 76.7,188.2 61.9,189 64.8,305.5 
		101.8,303.8 116.1,297 139.3,296 146.8,317.9 100.8,333.3 91.3,353 100.8,381.2 153,364.4 151,358.6 170.9,351.4 173,357 
		227,338.9 	"/>
	<polygon class="st2" points="306,287.2 309.7,316.7 311.5,319 312.3,324.2 256.7,333 247.6,308 255.3,284 298,278.3 	"/>
	<polygon class="st2" points="311.5,286.2 322.4,285 325.1,305.6 313.8,306.9 	"/>
	<polygon class="st2" points="328.1,277.5 357.8,267.9 394.2,262 405.9,301.2 400.7,303.4 401.4,312 335.6,320.8 334.7,315.9 
		332.9,316 329.8,289.1 334.7,287.5 332.1,280.6 328.8,281 	"/>
	<polygon class="st2" points="428.7,256.4 432.5,292.5 405.9,301 394.2,262 	"/>
	<polygon class="st2" points="356.5,232.2 364.3,235 374.4,236.1 379.6,236 388.2,233.2 394.5,230 402.6,242 404.4,257 355.5,264.3 
		327.9,274.5 320.7,275.6 318.4,262 322.2,262 344.5,248 351.8,244.4 	"/>
	<polygon class="st2" points="393.5,219.5 412.3,217.1 413.3,225 404.4,226 405.9,235.8 403,236 405.9,239.5 409,259.5 428.7,256.2 
		427.6,247.2 434.3,246.1 432.3,233.9 420,224 417.4,221.9 415.5,214.1 412.3,212 405.9,212.6 399.3,214 396.6,216 	"/>
	<polygon class="st2" points="313.2,230 329.5,227.6 346.7,220 362,227.6 359.2,233 356.4,232.2 351.8,244.4 344,248.3 322,262 
		318.2,262 318.2,260 316.3,259.3 315,249.5 326,248 325,245.3 320.5,245.3 319.9,241 314.2,241 	"/>
	<polygon class="st2" points="384.1,223.2 388.4,233.1 379.4,236 372.7,236.1 364.2,235 365.5,224 374.8,225 	"/>
	<polygon class="st2" points="438.6,235 440.1,245.3 467.7,241.6 467.7,243.6 463.6,244.9 463.6,247.2 460.5,247.6 459.7,246 
		450.9,247.2 451.3,253.1 498.9,246.5 496.7,226 	"/>
	<polygon class="st2" points="435,249.2 446.8,247.6 447.3,253.4 435.9,255 	"/>
	<polygon class="st2" points="457.4,305.6 487.8,295 516.8,286.2 511.2,252.4 516.8,251 505.8,72 498.8,62 487.8,52.5 480.5,50.1 
		484.1,87 487.1,86.9 489.9,104.6 495.7,103.8 496.2,114.7 491.4,115 491.4,117.6 488.8,117.9 490.7,132.3 467.4,135.8 468.2,143 
		446.4,146 448.1,159.3 487.8,154 489.3,166.4 498.8,165 499.5,173.4 494.6,174 495.7,180.2 500.2,179.5 501.3,185.6 498.8,186 
		499.5,191.9 502.2,191.9 505.8,217.1 502.2,218.1 502.2,221.4 498.8,221.9 499.5,230 508.4,229.1 508.4,235.4 501.3,236 
		501.3,239.9 498.8,239.9 498.8,246.4 428.8,256.4 432.5,292.5 421.7,296 426.1,308.7 	"/>
	<polygon class="st2" points="438.1,225 488,217.1 490.5,215.9 494,212.6 497.4,206.3 496.7,199.3 495.1,193 492.9,190 489.4,186 
		484.5,183.8 432.9,191.6 428.9,193 414,193 414,205.2 423.7,205.2 423.7,207.2 424.9,216 426.3,218.8 428.9,221.9 432.9,224 	"/>
	<polygon class="st2" points="404.3,172.4 412.4,171 412.9,172.4 424.1,171 421.6,149 432.3,147.7 432.6,150.1 437.1,149.6 
		437.1,146.7 441.4,146 442.9,159.9 487.8,154.1 489.9,172.9 469.9,176.8 433.1,182 417.5,183.9 409.6,181 404.9,177 404.3,174 	"/>
	<polygon class="st2" points="464.3,120.8 478.9,119.3 479.3,123.3 482.2,123 483.3,133.4 469.7,135.4 468.2,124.6 465.4,125.1 
		464.3,123.5 	"/>
	<polygon class="st2" points="462.3,107 462.3,104.3 464.9,104.1 464.9,106.4 467.1,106.3 467.4,110.3 471.3,110.3 472.5,109.1 
		479.5,109.9 480.5,116.2 463.8,118.7 463.8,114.6 460.3,114.7 460.3,107.2 	"/>
	<polygon class="st2" points="490.1,108.3 483.1,109.2 483.3,115.3 496.2,114.7 495.6,103.9 489.9,104.6 	"/>
	<polygon class="st2" points="465,66.6 466.3,70 466.3,73 467.4,80.1 468.6,89 468.6,91.7 471.6,98.2 472.7,106.3 486.3,105.1 
		484.1,87 481.1,56.3 	"/>
	<polygon class="st2" points="430,62.4 435.6,70.9 440.4,66.6 445.4,64 454.8,62 459.2,62 461.1,62.4 463.7,64.6 465,66.4 
		481.1,56.3 480.5,50 474.2,47.4 469.1,47 462.7,47 452.6,48 442.1,53.3 	"/>
	<polygon class="st2" points="459.2,67 460,72.7 439.4,74.5 439.4,70.5 443.8,68.5 	"/>
	<polygon class="st2" points="432.2,79 460.6,75 460.9,80.5 432.9,84.3 	"/>
	<polygon class="st2" points="436.7,87 437.9,95.6 460.5,92.3 459.5,83.5 	"/>
	<polygon class="st2" points="434.4,99.7 435.2,105.1 463.9,100.6 463,95.2 	"/>
	<polygon class="st2" points="422.5,104.6 432.3,104.1 431.8,96.4 421.2,98.8 	"/>
	<polygon class="st2" points="460.8,117.9 462.8,135.4 450.3,137 450.3,134 441.9,135.8 441.5,131.7 454,129.7 452.2,117.9 
		435.3,121 434.7,117 428.6,117 429.7,110.7 456.2,107 458.1,108.8 458.1,113.7 458.5,116 	"/>
	<polygon class="st2" points="396.4,130 397.7,128 411.7,126 421,124.5 424.4,123.5 427.1,121.5 428.8,117 434.8,117 436.7,132.3 
		434.1,133 434.8,141 418.7,143.9 417.5,135 413.2,135.5 418.2,166.6 414,167 411.4,151.9 399.7,153.5 	"/>
	<polygon class="st2" points="391.4,143.7 392.7,152 383.9,154 382.7,145.4 	"/>
	<polygon class="st2" points="376.5,128 391.4,125.4 393.3,139.2 379,142.4 	"/>
	<polygon class="st2" points="398.3,111.7 399.2,122.1 421.9,119 421.2,108.8 	"/>
	<polygon class="st2" points="384.2,95.5 391.9,114.9 400.5,107 410.2,103.2 414.7,101.1 420.4,96 425.2,88.9 426.1,85.9 
		429.7,77.7 432.6,74 435.5,70.9 430,62.4 	"/>
	<polygon class="st2" points="353.7,111 358.1,126.4 372.1,124 383.4,122.1 387.2,121.3 391.9,114.7 384.2,95.2 380.1,98 
		380.1,105.4 	"/>
	<polygon class="st2" points="369.8,129 375.6,152 372.7,151.9 363.4,153 358.8,154.1 347.6,160.3 340.3,168.9 316.5,159.3 
		315.4,150.5 317.8,149.7 316.5,144.5 327.4,141 328.9,146.7 333.9,145.1 331.1,137 	"/>
	<polygon class="st2" points="367.6,168 373.9,167 380.5,167 388.8,169.1 394.4,174 396.9,178.9 396.9,182.6 396.9,188 401,191.6 
		390.1,209.1 385.3,205.2 377.2,218.4 371.5,218.8 361.9,216 360.8,218.4 354.8,215 355.5,212.6 352.1,210 350,207.2 346.1,194.2 
		343.6,195.4 339.6,187 343.6,176.8 347.2,177.6 350,174 349.2,169.1 366.7,164.7 	"/>
	<polygon class="st2" points="332.1,174.8 328.7,187 301.3,187.7 297.1,184.3 295.2,172.9 308.7,168 	"/>
	<polygon class="st2" points="331.5,193 340.8,210 327,221.9 305.3,224 303.7,218.4 312.7,206 325.5,204 324.1,193 	"/>
	<polygon class="st2" points="307,237.5 309.3,252.4 308.1,252.4 308.1,255 310.1,255 310.1,260 308.5,261.2 296.1,261.3 293.4,240 
			"/>
	<polygon class="st2" points="258.8,247.2 262.4,266.8 296.1,261.3 293.4,240 285.2,241 285.2,242.8 279.2,243.2 279.8,251.6 
		276.7,251.9 276.1,246.5 273.6,246.8 272.9,242.2 267.7,242.8 268,247.5 266.5,247.7 267.3,253.8 265.1,254 263.9,246.4 	"/>
	<polygon class="st2" points="134.1,322.8 139.2,327 141.4,335 143,335 143.7,336.3 145.5,335 153.6,358 149.9,359.8 151.5,364.5 
		99.8,381.5 90.6,353.4 100.4,334 	"/>
	<polygon class="st2" points="165.6,326 167.1,312.3 208.4,298.3 223.5,314.2 226.9,339 172.7,357.3 170.2,351.8 171.5,351 
		170.2,344.7 171.5,343.1 	"/>
	<polygon class="st2" points="147.6,329.5 160.9,324.2 162.5,329.2 160.9,329.8 163.1,335.6 164.6,335 167.1,343.1 153.8,348.9 
		151.2,340 152.7,340 150.7,334 149.4,334.6 	"/>
	<polygon class="st2" points="241.1,249.8 255.3,247.2 257.7,260 260.9,259.3 262.4,267.3 243.3,269.5 	"/>
	<polygon class="st2" points="223.1,261.3 237,259.3 238,269.5 224,271.9 	"/>
	<polygon class="st2" points="215,248 217.7,272.8 202.5,275.6 192.3,280.6 191.6,253.4 195,253.4 195,249.5 204.6,249 204.6,250.2 
		207.9,250 207.9,248.3 	"/>
	<polygon class="st2" points="142.7,266 160.4,264.9 160.4,268.9 174.3,269 174.3,278.3 178.5,278.3 178.5,274 177,274 177,271 
		192.1,270.5 192.1,280.6 165.3,293.8 149.4,294.5 143.8,278.3 	"/>
	<polygon class="st2" points="118.7,290.2 134.3,289.1 134.3,293 118.7,294.2 	"/>
	<polygon class="st2" points="123.5,245.3 128.4,245.3 129.1,243.2 134.8,244.3 136.1,278.3 127.1,278.3 125.5,272.9 125.5,267.9 
		120.7,267 	"/>
	<polygon class="st2" points="111.3,267.3 114.8,276.2 115.7,297.8 100.2,304 98.8,284 101.8,284 100.2,268.5 	"/>
	<polygon class="st2" points="63.1,253.4 82.3,252.4 82.3,266.3 78.2,266.6 78.2,269.5 90.7,269.1 90.7,271.9 76.9,272.8 
		76.9,275.6 91.3,275.6 91.3,276.7 94.7,276.7 94.7,280 90.7,280.6 90.7,285 84.4,285.2 84.4,288.5 98.9,287.5 100.1,304 
		64.7,305.6 	"/>
	<polygon class="st2" points="97.2,255.5 97.2,266 85.4,266.3 85.4,260 89.7,260 89.7,256 	"/>
	<polygon class="st2" points="109.5,263.2 109.5,258.8 118.8,235 112.7,227.6 108.8,219.5 98.9,220.6 98.9,232.2 81.7,233 
		81.7,229.2 95.2,229.1 95.2,218.4 86.3,218.4 86.3,220 81.7,220.4 81,216 62,217.1 63.4,253.4 100.6,252 100.6,263.2 	"/>
	<polygon class="st2" points="76.1,188.9 76.1,184.2 95.5,185.6 98,188 101.6,184.2 114.7,195.4 108.6,201.6 108.6,215.3 98,216 
		97.4,212 73.7,212.6 73.7,216.3 62,217.1 61.5,188.9 	"/>
	<polygon class="st2" points="126.2,194.6 152.4,204.8 150.5,210 153.7,213.1 153.7,217.1 151.3,222.7 148.6,226.5 143.7,229.6 
		135.8,232.2 129.7,231.6 126.2,230.3 123.3,227.6 117.3,213.7 117.3,210.4 118.8,206.8 121.2,202.9 124.4,199.5 	"/>
	<polygon class="st2" points="140.9,178.3 141.3,187 121,187.7 114.6,195.4 101.6,184.2 103.6,181 100.9,177.6 99,159.8 104.2,159 
		104.2,152.4 144.4,146.1 145,159.3 132.6,159.3 132.6,161.9 141.6,161.9 141.6,170.7 133.8,170.7 133.8,167 130.4,167 130.4,174.4 
		126.7,174.4 126.7,178.3 	"/>
	<polygon class="st2" points="172.8,141.4 173.2,151.4 168.6,151.4 169.8,170.7 167.4,171 168,192.5 157.1,193 145.9,188.6 
		144.6,146.1 	"/>
	<polygon class="st2" points="187.4,138.7 203.1,150 203.1,155 184.3,156.1 184.3,168.7 183,170.5 173.1,170.5 172.5,154.1 
		187,153.5 187,151 173.3,151.4 172.9,141.4 	"/>
	<polygon class="st2" points="173.5,192 187.8,191.4 201.7,183.9 230,178.6 227.8,162.4 203.8,165.4 202.9,155 187.3,155.9 
		187.3,173.4 173.5,173.4 	"/>
	<polygon class="st2" points="256.2,126.8 319.9,107 353.3,110.7 355.6,118.7 344.9,122.5 346.7,128 337,130.6 335.1,125.8 
		332,126.8 333.8,134 330,134.6 329,137.3 325.3,138.7 324.1,134.6 327.5,133.5 326.5,129.5 322.6,130.6 321,124 314.5,126 
		317.7,136.4 307.4,139 308.8,143.4 302.1,145.7 301.1,142 295,143.7 294,139 284.2,142 280.5,131.1 278.3,132 282.8,147 
		264.2,153.1 262.9,149 258.3,151 256.8,146.5 261.6,144.5 	"/>
	<polygon class="st2" points="278.2,154.1 283,169.9 313.7,160.3 308.8,143.4 299.3,146.7 299.7,147.7 296.5,148.8 296,147.7 
		289.4,149.8 289.7,151 287.2,151.7 286.6,150.5 281.2,152 281.4,153.1 	"/>
	<polygon class="st2" points="274.4,154 278.7,171 265.7,175 260.5,158.1 	"/>
	<polygon class="st2" points="234.2,147.4 251.2,128 256.3,126.9 261.5,144.5 256.8,146.5 265.8,174.9 252.9,178.9 241.3,176.3 
		229.9,178.6 227.8,162.4 235.3,161.4 	"/>
	<polygon class="st2" points="159.4,197.3 188.8,196.3 188.8,215.5 159.4,215.9 	"/>
	<polygon class="st2" points="141.6,238 148.7,235 151.9,232.6 156.1,227.6 158.8,223 185,221.9 185.7,233.1 179.8,233.5 
		179.8,236.8 173.3,237.3 173.3,247 159.8,248 160.2,260.4 142.9,261.2 	"/>
	<polygon class="st2" points="165.6,251 177.2,250.2 177.7,257.6 180.8,257.6 180.8,250 188.6,249.8 189.2,263.3 191.8,263.3 
		192.1,270.5 183.1,270.7 183.1,263.7 180.8,263.7 180.8,265 166.1,265.3 	"/>
	<polygon class="st2" points="193.2,200.3 204.9,190 238.5,182.6 252.4,186 255.7,200 246.5,205.2 228.3,212.6 214.6,214.1 
		203,214.1 194.6,212 	"/>
	<rect x="180.2" y="239" class="st2" width="9.8" height="7.1"/>
	<polygon class="st2" points="188.6,221 212.3,220.4 214.4,244.4 203.6,246 194.4,246 194.4,233 188.6,233 	"/>
	<polygon class="st2" points="217.8,220.4 223.2,219.5 223.2,223.3 229.8,223.3 229.8,219.5 234.7,218.8 237.3,244.4 219.8,245.3 	
		"/>
	<polygon class="st2" points="237.5,215 259.2,208.8 263.5,241.4 240.8,245 	"/>
	<polygon class="st2" points="262,208 305,194 323.8,193 325.6,204 312.6,206.1 301.7,220.8 274.7,225.6 276.1,234.5 268.7,235.6 
		267,227 264.7,227.6 	"/>
	<polygon class="st2" points="280.2,229.2 289.1,227.6 290.2,237 281.4,238.2 	"/>
	<polygon class="st2" points="291.2,222.7 302,220.8 303.5,218.8 305.3,224 306.4,235 293.3,236.7 	"/>
	<polygon class="st2" points="257.6,182.3 284.7,176 287.5,189 281.5,190.9 279.8,198.3 262.5,202.3 261.4,199.4 259.8,199.4 
		257.1,185.2 258.2,184.9 	"/>
</g>
<g id="F5" class="st0">
	<polygon class="st7" points="147.6,318.9 147.6,323.9 136.1,328.4 142.7,335.3 150,358.9 149.2,360 151.1,365.5 99.8,381.5 
		90.6,353.4 100.4,334 	"/>
	<polygon class="st2" points="147.6,318.9 147.6,323.9 136.1,328.4 142.7,335.3 150,358.9 149.2,360 151.1,365.5 99.8,381.5 
		90.6,353.4 100.4,334 	"/>
	<polygon class="st7" points="162.5,327.8 166.3,319 165.6,317 158.1,320 157,316.7 208.4,298.3 223.5,314.2 226.9,339 172.7,357.3 
		171.2,351.6 176.7,349.4 175.8,345.7 169.1,347.4 	"/>
	<polygon class="st2" points="162.5,327.8 166.3,319 165.6,317 158.1,320 157,316.7 208.4,298.3 223.5,314.2 226.9,339 172.7,357.3 
		171.2,351.6 176.7,349.4 175.8,345.7 169.1,347.4 	"/>
	<polygon class="st7" points="148,331.3 157.8,328.2 164,347.4 154.2,350.8 	"/>
	<polygon class="st2" points="148,331.3 157.8,328.2 164,347.4 154.2,350.8 	"/>
	<polygon class="st7" points="308.8,290 312.3,318.9 311.5,319 312.3,324.2 256.7,333 247.6,308 255.3,284 298,278.3 	"/>
	<polygon class="st2" points="308.8,290 312.3,318.9 311.5,319 312.3,324.2 256.7,333 247.6,308 255.3,284 298,278.3 	"/>
	<polygon class="st7" points="315,290.2 325.9,289 328.6,309.6 317.3,310.9 	"/>
	<polygon class="st2" points="315,290.2 325.9,289 328.6,309.6 317.3,310.9 	"/>
	<polygon class="st7" points="332,283.2 331.1,279 364.2,268.8 413.2,261.2 422.9,296.1 400.7,303.4 401.4,312 335.6,320.8 
		335.6,315.4 332.8,292 332.8,289.1 335.6,288 334.2,284 333.5,282.3 	"/>
	<polygon class="st2" points="332,283.2 331.1,279 364.2,268.8 414,261.6 423.2,295.8 400.7,303.4 401.4,312 335.6,320.8 
		335.6,315.4 332.8,292 332.8,289.1 335.6,288 334.2,284 333.5,282.3 	"/>
	<polygon class="st7" points="518,251.7 511.8,253 518,286.9 460,305.8 426.6,308.7 423.5,297 414,261.6 412.7,251.7 404.4,236.1 
		406.9,236 405.9,226.2 414.9,225.3 414,218.4 404.3,220 410.8,211.2 414.9,201.1 416,194.8 416,189.4 421.7,189 419.2,166.8 
		414.5,167.2 413.3,153.5 417.6,153 414.9,136 443,131.6 443.5,135.4 451,134.1 451.4,136 456,135.4 454.2,124 463.3,123 
		463.9,126.4 467.6,126 468.2,129 470.6,129 469.8,123 467,123.1 465.9,120.6 483.3,118 485.4,133.4 492.4,132.5 489.5,113.2 
		509.2,110.7 	"/>
	<polygon class="st2" points="518,251.7 511.8,253 518,286.9 460,305.8 426.6,308.7 423.5,297 414,261.6 412.7,251.7 404.4,236.1 
		406.9,236 405.9,226.2 414.9,225.3 414,218.4 404.3,220 410.8,211.2 414.9,201.1 416,194.8 416,189.4 421.7,189 419.2,166.8 
		414.5,167.2 413.3,153.5 417.6,153 414.9,136 443,131.6 443.5,135.4 451,134.1 451.4,136 456,135.4 454.2,124 463.3,123 
		463.9,126.4 467.6,126 468.2,129 470.6,129 469.8,123 467,123.1 465.9,120.6 483.3,118 485.4,133.4 492.4,132.5 489.5,113.2 
		509.2,110.7 	"/>
	<polygon class="st7" points="465.7,72.3 469,69.2 483.9,68 489.9,113 457,117.8 456,106 465.7,102.6 469,96.6 470.1,90.9 468.1,80 
			"/>
	<polygon class="st2" points="465.7,72.3 469,69.2 483.9,68 489.9,113 457,117.8 456,106 465.7,102.6 469,96.6 470.1,90.9 468.1,80 
			"/>
	<polygon class="st7" points="451,106 452.6,118 440.2,120.7 441,127.7 450.7,126.5 451,130.2 454.5,129.7 455.4,134.9 452,135.4 
		451.4,133.7 444,134.9 443.4,131.2 414.4,135.4 415.6,146 411.4,146.7 408,125.4 416.3,124 425,122.7 427.3,121.3 435.5,108.6 	"/>
	<polygon class="st2" points="451,106 452.6,118 440.2,120.7 441,127.7 450.7,126.5 451,130.2 455.1,129.6 456,135.4 451.4,136 
		451,134.1 443.5,135.4 443,131.6 414.9,136 416.4,145.9 411.4,146.7 408,125.4 416.3,124 425,122.7 427.3,121.3 435.5,108.6 	"/>
	<polygon class="st7" points="415.3,73 426.5,87.9 432.5,78 439.4,72.2 448.4,68.7 459.2,68.7 465.7,72.2 468.9,69.2 483.9,68 
		481.7,49.1 473.9,46.9 470.6,46.3 452,46.3 	"/>
	<polygon class="st2" points="415.3,73 426.5,87.9 432.5,78 439.4,72.2 448.4,68.7 459.2,68.7 465.7,72.2 468.9,69.2 483.9,68 
		481.7,49.1 473.9,46.9 470.6,46.3 452,46.3 	"/>
	<polygon class="st7" points="506.7,70 509.5,110.4 489.9,112.9 481.7,49.1 489.2,52.6 498.9,59.7 503.5,65 	"/>
	<polygon class="st2" points="354.9,111.3 381.4,105.1 381.4,98 415.2,73 426.5,87.9 421.7,95 417.6,98 409.7,105.1 404.3,106 
		399.8,107.7 394.2,112.7 389.9,117.8 386.5,121.3 379,123.6 360,127.5 	"/>
	<polygon class="st7" points="354.9,111.3 381.4,105.1 381.4,98 415.2,73 426.5,87.9 421.7,95 417.6,98 409.7,105.1 404.3,106 
		399.8,107.7 394.2,112.7 389.9,117.8 386.5,121.3 379,123.6 360,127.5 	"/>
	<polygon class="st2" points="436.8,77.6 437.1,82 460,79 459.6,74.5 	"/>
	<polygon class="st7" points="436.8,77.6 437.1,82 460,79 459.6,74.5 	"/>
	<polygon class="st2" points="437.5,85.2 460,81.7 461.3,90.3 439.2,94 	"/>
	<polygon class="st7" points="437.5,85.2 460,81.7 461.3,90.3 439.2,94 	"/>
	<rect x="426.6" y="95.9" class="st2" width="5.3" height="4.9"/>
	<rect x="426.6" y="95.9" class="st7" width="5.3" height="4.9"/>
	<polygon class="st2" points="435.5,97.9 464.3,93.3 464.8,98.8 436.2,103.7 	"/>
	<polygon class="st7" points="435.5,97.9 464.3,93.3 464.8,98.8 436.2,103.7 	"/>
	<polygon class="st2" points="404,109.8 423.1,106.4 424.9,118.8 404.9,122.3 399,120.1 398.3,113 	"/>
	<polygon class="st7" points="404,109.8 423.1,106.4 424.9,118.8 404.9,122.3 399,120.1 398.3,113 	"/>
	<polygon class="st2" points="375,127.6 391.7,124.4 393.9,139.3 377.3,142.2 	"/>
	<polygon class="st7" points="375,127.6 391.7,124.4 393.9,139.3 377.3,142.2 	"/>
	<polygon class="st2" points="399.6,129.6 404.3,129.2 404.4,133.5 400.3,134 	"/>
	<polygon class="st7" points="399.6,129.6 404.3,129.2 404.4,133.5 400.3,134 	"/>
	<polygon class="st2" points="398.3,137.1 407.2,135.7 408.7,149.9 400.4,151 	"/>
	<polygon class="st7" points="398.3,137.1 407.2,135.7 408.7,149.9 400.4,151 	"/>
	<polygon class="st2" points="382.7,146.7 392.7,144.6 393.5,151.3 383.5,153 	"/>
	<polygon class="st7" points="382.7,146.7 392.7,144.6 393.5,151.3 383.5,153 	"/>
	<polygon class="st2" points="319.3,124.7 305.5,129 315.4,160 335.1,163 361.1,154.7 378,153 369.8,129 353.7,133.2 349,116.4 
		355.6,114.5 354.9,111.1 323.1,107.3 314.8,109 	"/>
	<polygon class="st7" points="319.3,124.7 305.5,129 315.4,160 335.1,163 361.1,154.7 378,153 369.8,129 353.7,133.2 349,116.4 
		355.6,114.5 354.9,111.1 323.1,107.3 314.8,109 	"/>
	<polygon class="st2" points="282.5,133.2 284.1,132.9 284.7,135.6 283.6,136 286.5,147 294.7,144.8 295.6,149 279.5,154.1 
		284.7,171.2 306.4,164.5 309.4,161.9 315.4,160 305.5,129 319.3,124.7 314.7,109 278.7,120.1 	"/>
	<polygon class="st7" points="282.5,133.2 284.1,132.9 284.7,135.6 283.6,136 286.5,147 294.7,144.8 295.6,149 279.5,154.1 
		284.7,171.2 306.4,164.5 309.4,161.9 315.4,160 305.5,129 319.3,124.7 314.7,109 278.7,120.1 	"/>
	<polyline class="st2" points="278.7,120.1 281.9,131.2 271.4,134.5 272.2,137 280.9,134.5 284.6,148.1 273.2,151.5 272.2,149 
		264.2,151.5 263.5,149 258.6,151.2 251.1,128.6 	"/>
	<polygon class="st7" points="251.7,128 278.7,120.1 281.9,131.2 271.4,134.5 272.2,137 280.9,134.5 284.6,148.1 273.2,151.5 
		272.2,149 264.2,151.5 263.5,149 258.8,151 251.2,129 	"/>
	<polygon class="st2" points="239.9,177.7 253.4,181.6 281.2,172.5 275.4,155.3 261.2,159 251.1,128.6 234.7,147 235.7,160.6 	"/>
	<polygon class="st7" points="239.9,177.7 253.4,181.6 281.2,172.5 275.4,155.3 261.2,159 251.1,128.6 234.7,147 235.7,160.6 	"/>
	<polygon class="st2" points="325.6,177.8 336,174.7 334.4,171.4 346.4,166 347.9,170 361.2,166 369.9,165 382.7,166 385.9,168.1 
		389.9,168.9 395.6,174 398.3,180.9 399.2,186 404,189.9 395.6,202 403,207 391,221.8 386.9,224.9 377.3,227.4 369.9,227.4 
		364.3,224.9 350.1,215.9 346.4,211.2 350.9,207 347.1,194.8 325.6,199.3 	"/>
	<polygon class="st7" points="325.6,177.8 336,174.7 334.4,171.4 346.4,166 347.9,170 361.2,166 369.9,165 382.7,166 385.9,168.1 
		389.9,168.9 395.6,174 398.3,180.9 399.2,186 404,189.9 395.6,202 403,207 391,221.8 386.9,224.9 377.3,227.4 369.9,227.4 
		364.3,224.9 350.1,215.9 346.4,211.2 350.9,207 347.1,194.8 325.6,199.3 	"/>
	<polygon class="st2" points="360,230.2 356.7,235.9 350.6,246.1 322.5,262.2 318.4,262.2 313.7,226.2 326.3,216 347.3,228.1 	"/>
	<polygon class="st7" points="358.1,233 350.6,246.5 322.5,262.2 318.4,262.2 313.7,226.2 326.3,216 347.3,228.1 	"/>
	<polygon class="st2" points="393.5,227.4 384.2,231.8 378.3,233 371.1,233 364.2,231.8 360,230.2 356.7,235.9 350.6,246.1 
		322.5,262.2 318.4,262.2 321,275.6 328.1,274.5 355.9,265 405.3,257.9 404.3,242.8 395.5,229.8 	"/>
	<polygon class="st7" points="393.5,227.4 384.2,231.8 378.3,233 371.1,233 364.2,231.8 360,230.2 358.5,233 350.6,246.1 
		322.5,262.2 318.4,262.2 321,275.6 328.1,274.5 355.9,265 405.3,257.9 404.3,242.8 395.5,229.8 	"/>
	<polygon class="st2" points="265,185 310.1,170.6 313.2,174.5 320,175.4 315.4,201.1 311.5,202 313.2,208.3 316,208.3 307,218 
		282.1,221.2 280.2,210.5 276,211.3 275.2,206.5 271,207 	"/>
	<polygon class="st7" points="265,185 310.1,170.6 313.2,174.5 320,175.4 315.4,201.1 311.5,202 313.2,208.3 316,208.3 307,218 
		282.1,221.2 280.2,210.5 276,211.3 275.2,206.5 271,207 	"/>
	<polygon class="st2" points="184.1,202 188.6,201.1 201.5,190.9 239.9,183 246.7,183.7 254.7,187 254.7,188 260.5,187.3 
		263.5,210.8 257.7,212 237.3,218.4 218.3,222 185,224 	"/>
	<polygon class="st7" points="184.1,202 188.6,201.1 201.5,190.9 239.9,183 246.7,183.7 254.7,187 254.7,188 260.5,187.3 
		263.5,210.8 257.7,212 237.3,218.4 218.3,222 185,224 	"/>
	<polygon class="st2" points="193.2,168.8 204.6,165.1 236,161 239.9,177.8 213.7,183.1 202.1,185.1 196.8,188.1 194,187.1 	"/>
	<polygon class="st7" points="193.2,168.7 204.6,165 236,160.9 239.9,177.8 213.7,183 202.1,185 196.8,188 194,187 	"/>
	<polygon class="st2" points="159.6,171.6 188,170.8 187.3,151.5 190.4,151.5 190.4,168.8 193.2,168.8 204.6,165.1 203.5,150.3 
		187.3,138.8 158,143.6 	"/>
	<polygon class="st7" points="159.7,171.5 188,170.8 187.3,151.4 190.4,151.4 190.4,168.8 193.2,168.8 204,165 203.5,150.2 
		187.3,138.7 158,143.6 	"/>
	<polygon class="st2" points="143.9,146 158,143.6 160.4,187.3 146.4,188 	"/>
	<polygon class="st7" points="143.9,146 158,143.7 160.5,187.7 146.4,188 	"/>
	<polygon class="st2" points="173.5,171.2 173.5,174.6 188.6,174 188.6,187.3 190.5,191.4 188.1,192.9 173.1,193.7 160.4,187.3 
		159.6,171.5 	"/>
	<polygon class="st7" points="173.5,171.2 173.5,174.6 188.6,174 188.6,187.3 190.6,191.4 188.2,192.9 173.2,193.7 160.4,187.3 
		159.6,171.5 	"/>
	<polygon class="st2" points="173.5,224.8 173.2,202 159.4,197.4 152,196 142.7,194.8 133.3,194.8 128.1,196 118.7,204 116,211.2 
		123.4,227.4 114.4,253 120.7,268 136.1,268.8 134.3,240.5 139.8,240 144.6,238.3 148.6,236 153.6,232.4 156.1,229 157.9,225.4 	"/>
	<polygon class="st7" points="173.5,224.8 173.2,202 159.4,197.4 152,196 142.7,194.8 133.3,194.8 128.1,196 118.7,204 116,211.2 
		123.4,227.4 114.4,253 120.7,268 136.1,268.8 134.3,240.5 139.8,240 144.6,238.3 148.6,236 153.6,232.4 156.1,229 157.9,225.4 	"/>
	<polygon class="st2" points="120.3,149.5 143.9,146 144.7,159.4 141.9,159.4 141.9,170.5 136.1,170.5 136.1,166.9 130.2,167.2 
		130.5,174.5 121.1,174.5 120.3,149.6 	"/>
	<polygon class="st7" points="120.3,149.5 144,146 144.6,159.4 141.9,159.4 141.9,170.5 136.1,170.5 136.1,166.9 130.2,167.2 
		130.6,174.4 121.1,174.4 	"/>
	<polygon class="st2" points="101.6,183.8 113.8,196 119.6,189 141.6,188.5 141.2,177.5 126.9,178.3 126.9,174.5 121.1,174.5 
		120.3,149.6 103.5,152.4 103.5,158.5 98,159.5 101.2,177.5 103.9,181.3 	"/>
	<polygon class="st7" points="101.6,183.8 113.8,196 119.6,189 141.6,188.5 141.2,177.5 126.9,178.3 126.9,174.5 121.1,174.5 
		120.3,149.6 103.5,152.4 103.5,158.5 98,159.5 101.2,177.5 103.9,181.3 	"/>
	<polygon class="st2" points="76.9,217 109.3,216 108.7,201 113.8,196 101.7,183.7 97.8,188 94.5,185 76,184 	"/>
	<polygon class="st7" points="76.9,217 109.3,216 108.7,201 113.8,196 101.7,183.7 97.8,188 94.5,185 76,184 	"/>
	<polygon class="st2" points="60.7,189.4 76.1,189 76.9,217 80.3,216.9 80.3,219.2 85.9,219.2 85.9,222 91.3,222 91.3,218.4 
		95.4,218.4 95.4,230.5 71.7,231.4 71.7,224 61.9,224 	"/>
	<polygon class="st7" points="60.7,189.4 76,189 77.1,217 80.3,217 80.3,219.2 85.9,219.2 85.9,222 91.3,222 91.3,218.4 95.4,218.4 
		95.4,230.5 71.7,231.4 71.7,224 61.9,224 	"/>
	<polygon class="st2" points="64.1,306.1 100.9,304.8 100.2,284.8 96.7,285 96.3,273.5 89.1,273.5 89.1,271 76.4,271.5 76.4,268.2 
		85,267.9 83.7,236.7 70.3,237.5 70.3,235.1 73,235.1 73,231.3 71.7,231.3 71.7,224 62,224 	"/>
	<polygon class="st7" points="64,306.1 100.8,304.8 100.1,284.8 96.7,285 96.3,273.5 89.1,273.5 89.1,271 76.3,271.5 76.3,268.2 
		84.9,268 83.6,236.8 70.2,237.5 70.2,235.1 72.9,235.1 72.9,231.4 71.7,231.4 71.7,224 61.9,224 	"/>
	<polyline class="st2" points="100.8,304.8 99.5,269.8 113.3,269.5 114.4,298.6 	"/>
	<polygon class="st7" points="99.5,269.8 113.3,269.5 114.4,298.6 101.2,304.8 101,304.8 	"/>
	<polygon class="st2" points="97.1,221.2 108.9,221 109.6,242.3 104.9,253 110.5,264.2 95.8,265 95.8,267.3 84.9,268 83.5,234.1 
		98.7,234.1 98.7,230 97.1,230 	"/>
	<polygon class="st7" points="97.2,221.2 108.9,221 109.7,242.3 105,253 110.6,264.2 95.9,265 95.9,267.3 85,268 83.6,234.1 
		98.8,234.1 98.8,230 97.2,230 	"/>
	<rect x="146.5" y="282" class="st2" width="12.9" height="8.1"/>
	<rect x="146.5" y="282" class="st7" width="12.9" height="8.1"/>
	<polygon class="st2" points="162.9,252.6 191.6,251 192,262.6 188.8,263 188.8,268.2 177,269 177,267.5 163.2,268.2 163.2,263 
		165.9,263 165.6,257.9 162.9,257.9 	"/>
	<polygon class="st7" points="162.9,252.6 191.6,251 192,262.6 188.8,263 188.8,268.2 177,269 177,267.5 163.2,268.2 163.2,263 
		165.9,263 165.6,257.9 162.9,257.9 	"/>
</g>
<g id="F6" class="st0">
	<polygon class="st2" points="496.6,294.4 375.7,312.9 370.1,301.5 368.7,284.9 358.6,270.6 362.7,258.9 372,245 376.2,229.9 
		374.7,214.9 369.3,204.9 362.1,196.5 349.3,189.3 348.7,181.7 487.6,160.9 	"/>
	<polygon class="st7" points="496.6,294.4 375.7,312.9 370.1,301.5 368.7,284.9 358.6,270.6 362.7,258.9 372,245 376.2,229.9 
		374.7,214.9 369.3,204.9 362.1,196.5 349.3,189.3 348.7,181.7 487.6,160.9 	"/>
	<polygon class="st2" points="388.3,91.6 398.6,105.9 409.2,103.1 449.7,96.9 445.3,65.9 421.7,66.9 	"/>
	<polygon class="st7" points="388.3,91.6 398.6,105.9 409.2,103.1 449.7,96.9 445.3,65.9 421.7,66.9 	"/>
	<polygon class="st2" points="483.9,93.8 483.9,101.9 459.7,104.2 458.2,91.5 463.3,90.9 462.3,84.9 448.7,86.5 445.5,65.9 
		448.7,66.9 462.9,72.5 472.6,79.6 480.5,87.9 	"/>
	<polygon class="st7" points="483.9,93.8 483.9,101.9 459.7,104.2 458.2,91.5 463.3,90.9 462.3,84.9 448.7,86.5 445.5,65.9 
		448.7,66.9 462.9,72.5 472.6,79.6 480.5,87.9 	"/>
	<polygon class="st2" points="344.1,122.9 387.7,91.8 397.4,105.9 389,105.9 392.5,128.9 366.4,133.9 	"/>
	<polygon class="st7" points="344.1,122.9 387.7,91.8 397.4,105.9 389,105.9 392.5,128.9 366.4,133.9 	"/>
	<polygon class="st2" points="406.7,114.5 432.1,110.9 432.1,116.9 407.4,120.4 	"/>
	<polygon class="st7" points="406.7,114.5 432.1,110.9 432.1,116.9 407.4,120.4 	"/>
	<polygon class="st2" points="448.7,105.9 483.9,102.9 485.5,131.3 487.6,159.9 443.5,166.5 442.5,159.3 445.6,158.2 444.6,153.5 
		440.8,154.3 436.5,126.1 451.4,123.9 	"/>
	<polygon class="st7" points="448.7,105.9 483.9,102.9 485.5,131.3 487.6,159.9 443.5,166.5 442.5,159.3 445.6,158.2 444.6,153.5 
		440.8,154.3 436.5,126.1 451.4,123.9 	"/>
	<polygon class="st2" points="367,162.8 372.6,161.9 374.7,176.9 349.3,180.7 342.7,136.2 343.6,123.8 365.9,134.8 369.2,155.4 
		365.6,156.9 	"/>
	<polygon class="st7" points="367,162.8 372.6,161.9 374.7,176.9 349.3,180.7 342.7,136.2 343.6,123.8 365.9,134.8 369.2,155.4 
		365.6,156.9 	"/>
	<polygon class="st2" points="375.7,135.9 403.7,131.3 409.2,171.9 381.7,175.9 	"/>
	<polygon class="st7" points="375.7,135.9 403.7,131.3 409.2,171.9 381.7,175.9 	"/>
	<polygon class="st2" points="407.1,130.9 434,126.9 437.6,152.7 436.2,153 436.9,157.9 435.1,158.2 436.2,168 413.1,171.3 	"/>
	<polygon class="st7" points="407.1,130.9 434,126.9 437.6,152.7 436.2,153 436.9,157.9 435.1,158.2 436.2,168 413.1,171.3 	"/>
</g>
<g id="F7">
	<g class="st0">
		<polygon class="st2" points="498.6,291 377.7,309.5 372.1,298.1 370.7,281.5 360.6,267.2 364.7,255.5 374,241.6 378.2,226.5 
			376.7,211.5 371.3,201.5 364.1,193.1 382.9,197.5 380.1,177.9 464.8,166.1 465.6,167.5 476.7,165.5 483.5,210.7 487.5,210.2 
			482,166.1 490.4,164.5 		"/>
		<polygon class="st2" points="498.6,291 377.7,309.5 372.1,298.1 370.7,281.5 360.6,267.2 364.7,255.5 374,241.6 378.2,226.5 
			376.7,211.5 371.3,201.5 364.1,193.1 382.9,197.5 380.1,177.9 464.8,166.1 465.6,167.5 476.7,165.5 483.5,210.7 487.5,210.2 
			482,166.1 490.4,164.5 		"/>
		<polygon class="st2" points="387.2,90.5 396.9,104.8 410.7,103.3 423,101.7 428.6,94.4 451.2,91.5 447.3,62.5 423.7,63.5 		"/>
		<polygon class="st2" points="387.2,90.5 396.9,104.8 410.7,103.3 423,101.7 428.6,94.4 451.2,91.5 447.3,62.5 423.7,63.5 		"/>
		<polygon class="st2" points="485.9,90.4 488.5,130.5 471.5,132.6 469.5,116.8 473.1,115.9 472.7,110.4 468.1,111.5 466.9,103.5 
			462,104.5 460.2,88.1 465.3,87.5 464.3,81.5 450.7,83.1 447.5,62.5 450.7,63.5 464.9,69.1 474.6,76.2 482.5,84.5 		"/>
		<polygon class="st2" points="485.9,90.4 488.5,130.5 471.5,132.6 469.5,116.8 473.1,115.9 472.7,110.4 468.1,111.5 466.9,103.5 
			462,104.5 460.2,88.1 465.3,87.5 464.3,81.5 450.7,83.1 447.5,62.5 450.7,63.5 464.9,69.1 474.6,76.2 482.5,84.5 		"/>
		<polygon class="st2" points="346.1,119.5 379.7,95.5 386,103.5 388.7,101.7 390.4,104.5 392.5,124.5 465.6,113.2 468.9,141.5 
			458.4,143 459.6,159 446.2,160.6 446.5,163 429,165.3 428.6,163 424,163.5 424,159.8 414.8,161.8 414.3,157.3 408,158.5 
			409.1,168.5 383.9,171.6 383.7,168.9 370.6,170.2 370.6,172.7 351.3,175.5 		"/>
		<polygon class="st2" points="346.1,119.5 379.7,95.5 386,103.5 388.7,101.7 390.4,104.5 392.5,124.5 465.6,113.2 468.9,141.5 
			458.4,143 459.6,159 446.2,160.6 446.5,163 429,165.3 428.6,163 424,163.5 424,159.8 414.8,161.8 414.3,157.3 408,158.5 
			409.1,168.5 383.9,171.6 383.7,168.9 370.6,170.2 370.6,172.7 351.3,175.5 		"/>
		<polygon class="st2" points="408.7,111.1 434.1,107.5 434.1,113.5 409.4,117 		"/>
		<polygon class="st2" points="408.7,111.1 434.1,107.5 434.1,113.5 409.4,117 		"/>
		<polygon class="st2" points="471.9,136.3 488.4,134.3 489.6,155.9 469.3,158.9 467.6,146.6 473.1,145.4 		"/>
		<polygon class="st2" points="471.9,136.3 488.4,134.3 489.6,155.9 469.3,158.9 467.6,146.6 473.1,145.4 		"/>
	</g>
	<g class="st0">
		<rect x="332.5" y="181.8" class="st8" width="148" height="157.6"/>
	</g>
	<polygon class="st9" points="475.5,315.9 354.6,334.4 349,322.9 347.6,306.3 337.5,292 341.6,280.4 350.9,266.5 355.1,251.4 
		353.6,236.4 347.6,224.4 349.9,220.6 354.6,223.1 359.8,222.4 357.5,206.4 363.1,206.4 362.7,200.5 452.6,186.8 461.1,242.9 
		465.5,242.9 458.9,191 467.3,189.3 	"/>
	<g class="st0">
		<rect x="318" y="75.4" class="st10" width="153.9" height="145.2"/>
	</g>
	<polygon class="st11" points="323,144.4 356.6,120.4 413,80.4 441.5,94.1 449.8,99 460.1,109.4 462.7,114.3 466.9,181.3 386,193.4 
		366.9,196.2 366.2,194.3 360.8,196.4 360.6,193.7 340.6,200.4 341.6,207 338.3,215.5 329.6,210.2 	"/>
	<g>
		<polygon class="st7" points="496.2,295.3 375.4,313.8 369.8,302.4 368.4,285.7 358.2,271.5 362.4,259.8 371.7,245.9 375.9,230.8 
			374.4,215.8 368.4,203.8 370.7,200.1 375.4,202.5 380.5,201.8 378.3,185.8 383.9,185.8 383.4,179.9 473.4,166.2 481.8,222.3 
			486.2,222.3 479.7,170.4 488.1,168.7 		"/>
		<polygon class="st7" points="343.8,123.8 377.4,99.8 433.7,59.8 462.2,73.6 470.5,78.4 480.9,88.8 483.5,93.7 487.7,160.7 
			406.8,172.8 387.7,175.7 387,173.8 381.5,175.8 381.4,173.1 361.4,179.8 362.4,186.5 359.1,195 350.3,189.7 		"/>
	</g>
</g>
</svg>
