<svg id="图层_1" data-name="图层 1" xmlns="http://www.w3.org/2000/svg" xmlns:xlink="http://www.w3.org/1999/xlink" viewBox="0 0 580.53 428.56"><defs><clipPath id="clip-path" transform="translate(5 5)"><path d="M50.14,177.65l-4-35,8.67-2.21-1.47-8.39L157.7,115.68l20.93,13.74,3.27,37.47,38.6-6,9.95-3.77-3.4-12.73-6.55,2-3-19.36,20.69-25.13,85.91-26.08,45.07,4.73,32.63-7.76v-9.4l82.08-57.1Q498,.34,498.54.3q21.85-1.74,37.08,6.56,4.51,2.44,12,9.63,3.75,4.91,6.51,8.35c2.76,3.45,5,6.74,7.13,9.27a52,52,0,0,0-5.68.23l3.52,34.54.57,35.79-5.19,24.75,2.84,28.36L540,160.11l8.33,58.13,16.39-2.4L570,253.28l-3.57.91,4,20.61-27,9.28-14.72,28.6-30.1,9.57q-12,1.59-21.31,2.45t-17.3,1.75l-20.41-8.09-12.75,4.5v10.61l-44.31,5.19-36,4.72-1.55-5.2L314.92,343v7.13l-68.49,8.73-42.33,9.8-38.92,13.22L140,390.62l-3.77-6.95-26,9.67,1.56,5.54L48.16,418.56,36.31,383.67,6,321.31,0,178.59l18-.94v-5.83l22.8,1.59Z" style="fill:none;clip-rule:evenodd"/></clipPath><clipPath id="clip-path-2" transform="translate(5 5)"><polygon points="243.38 302.7 235.67 328.06 246.13 359.21 261.78 356.87 259.67 339.19 250.78 340.61 250.78 334.63 257.66 334.63 261.78 334.04 260.37 322.84 263.25 322.84 264.46 334.04 266 333.83 266.58 340.61 268.32 340.6 267.8 333.58 283.82 331.36 285.12 341 287.83 341 286.34 331.02 283.31 312.72 257.66 316.7 255.08 300.54 243.38 302.7" style="fill:none;clip-rule:evenodd"/></clipPath><clipPath id="clip-path-3" transform="translate(5 5)"><polygon points="221 160.72 247.76 150.7 249.5 154.67 271.81 147.37 269.67 140.23 305.96 129.18 313.35 154.25 243.37 177 222.16 166 221 160.72" style="fill:none"/></clipPath><clipPath id="clip-path-4" transform="translate(5 5)"><polygon points="344.83 338.05 339.95 304.83 343.77 303.34 342.02 297.28 339.95 297.85 338.81 292.39 374.95 280.72 400.73 277.63 405.22 293.74 384.23 301.58 387.94 312.23 389.72 317.59 384.89 319.63 383.05 314.25 374.95 317.59 378.41 327.05 382.2 325.46 386.67 338.05 346.45 343.5 344.83 338.05" style="fill:none;clip-rule:evenodd"/></clipPath><clipPath id="clip-path-5" transform="translate(5 5)"><path d="M92.79,310.79l-1-33.42L163,274.2v10.56H161.8q.57,5.69,1.15,9.63l-34,15.75Z" style="fill:none;clip-rule:evenodd"/></clipPath><clipPath id="clip-path-6" transform="translate(5 5)"><path d="M340.71,77.56l8.38,29.88,17-5.29,2,7.87-52.85,16.56,5.47,16.77,34,16.39q3.39-11.6,22.86-20l.27-28.32-8.59-30.88Z" style="fill:none;clip-rule:evenodd"/></clipPath><clipPath id="clip-path-7" transform="translate(5 5)"><path d="M0,178.56l18-.9v-5.84l22.77,1.6,9.35,4.24,8.66,15.89v22q1.34,9.12,12,19.74L62.09,248l-13.67,1L48,229l-1.81-21.27-23.9,1.13-.46-12.34L.73,197.63Z" style="fill:none;clip-rule:evenodd"/></clipPath><clipPath id="clip-path-8" transform="translate(5 5)"><polygon points="199.13 187.42 226.15 182.42 226.39 184.33 232 183.28 234.2 200.41 228.53 201.23 228.88 203.98 201.24 211.76 199.13 187.42" style="fill:none;clip-rule:evenodd"/></clipPath><clipPath id="clip-path-9" transform="translate(5 5)"><polygon points="121.35 121.36 122.41 157.81 140.03 156.51 140.03 143.67 143.58 143.67 143.58 156.51 154.78 155.79 154.78 147.19 161.89 147.19 161.89 159.72 122.41 161.94 122.97 193.11 159.5 192.21 182.64 173.38 178.74 129.3 157.66 115.52 121.35 121.36" style="fill:none;clip-rule:evenodd"/></clipPath><clipPath id="clip-path-10" transform="translate(5 5)"><polygon points="71.47 129.18 71.47 147.1 89.25 146.56 89.25 141.31 111 141.17 111.05 131.74 111.05 123 71.47 129.18" style="fill:none;clip-rule:evenodd"/></clipPath><clipPath id="clip-path-11" transform="translate(5 5)"><polygon points="83.29 161.78 83.29 166.41 111.8 164.88 111.8 154.75 98.74 154.75 98.74 150.06 93.97 150.06 93.97 154.75 79.96 154.75 79.96 161.78 83.29 161.78" style="fill:none;clip-rule:evenodd"/></clipPath><clipPath id="clip-path-12" transform="translate(5 5)"><polygon points="250.66 137.32 245.15 120.69 240.17 121.92 238.84 116.82 260.93 110.24 262.69 115.74 276.27 111.69 270.69 92 237.82 102 217.42 126.97 219.89 146.98 250.66 137.32" style="fill:none;clip-rule:evenodd"/></clipPath><clipPath id="clip-path-13" transform="translate(5 5)"><polygon points="459.99 215.97 483.84 212.22 489.01 247.06 458.32 251.52 459.52 259.99 463.28 259.46 465.03 267.61 460.52 268.55 462.8 276.55 450.9 280 448.16 272.81 442.19 274.87 438.2 245.95 433.19 244 431.64 237.56 436.26 237 432.63 225.69 444.1 223.72 445.28 233.1 462.3 229.93 459.99 215.97" style="fill:none;clip-rule:evenodd"/></clipPath><clipPath id="clip-path-14" transform="translate(5 5)"><polygon points="466.95 284.09 468.88 303.1 476.84 325.32 498.34 322.84 486.23 284.82 480.98 286.79 478.82 280.64 468.52 283.7 466.95 284.09" style="fill:none;clip-rule:evenodd"/></clipPath><clipPath id="clip-path-15" transform="translate(5 5)"><polygon points="53.54 132.37 60.62 170.34 71.26 178.92 105.58 180.78 112.25 169.79 112.21 164.64 75.91 166.56 71.4 162.38 71.4 129.19 53.54 132.37" style="fill:none;clip-rule:evenodd"/></clipPath><clipPath id="clip-path-16" transform="translate(5 5)"><polygon points="48.63 360.2 77.49 350.65 79.75 358.63 84.05 357.27 81.39 349.15 84.73 347.97 99.17 357.83 111.84 399 93.08 404.65 86.19 384.67 84.73 385.1 80.89 374.75 77 375.98 80.42 386.72 79.37 387.15 80.89 392.02 79.37 392.62 77.49 387.74 74.45 389.01 73.03 384.67 64.52 387.74 65.81 391.7 59.19 394.13 48.63 360.2" style="fill:none;clip-rule:evenodd"/></clipPath><clipPath id="clip-path-17" transform="translate(5 5)"><path d="M90.06,242q19.78,1.69,30.58-19.44L186,220.29l3,30.35-21.78,1.88-1.13-18L139,236.41l.51,16.8-17.14.9.59,17.8-31.1.85Z" style="fill:none;clip-rule:evenodd"/></clipPath><clipPath id="clip-path-18" transform="translate(5 5)"><path d="M226.06,213.05l2.54,38.24,8.5-1.08L236,244.47l12.18-1.73L246.62,231,319,219.5,358.52,214q-7.57-10.87-9.07-15.69c-1-3.21-2.1-7.8-3.3-13.75l-13.76,2.19-17.21-1.29Z" style="fill:none;clip-rule:evenodd"/></clipPath><clipPath id="clip-path-19" transform="translate(5 5)"><path d="M451.85,128.64l31.07-4.49,2.45,18.44-10.15,1.79,9.07,67.81-57,8.24v1.9H425l.34,3.34-.73.68-5-6.35q30.84-23.4,13.68-61l22-4.73Z" style="fill:none;clip-rule:evenodd"/></clipPath><clipPath id="clip-path-20" transform="translate(5 5)"><polygon points="490.58 296.97 517.25 288.04 508.4 262.3 566.88 253.34 570.53 275.14 543.62 284.39 528.92 313.01 498.92 322.58 490.58 296.97" style="fill:none;clip-rule:evenodd"/></clipPath><clipPath id="clip-path-21" transform="translate(5 5)"><path d="M540.7,18.58l2,20.06-4.21.6L537.2,26.59l-6.13.49,1.37,13-3.8.51.41,3.44,7.7-.81,3.46,29.06L543.89,71l-.45-8.63,14.61-2.17L555.8,34.65l5.75-.21Q548,17.1,547.64,16.82l-4.74,1.24Z" style="fill:none;clip-rule:evenodd"/></clipPath><clipPath id="clip-path-22" transform="translate(5 5)"><polygon points="255.12 300.57 299.56 294 310.23 303.25 308.99 305.17 314.69 341.89 314.69 348.85 289.24 352.58 286.33 330.75 283.36 312.69 257.72 316.62 255.12 300.57" style="fill:none;clip-rule:evenodd"/></clipPath><clipPath id="clip-path-23" transform="translate(5 5)"><polygon points="204.28 368.56 201.34 336.49 183.12 316.47 131.78 333.7 126.46 350.18 140.05 390.54 152.53 386.26 145.85 365.44 145.85 360.99 133.87 352.54 134.47 337.7 154.59 350.18 180.38 341.98 183.69 352.82 185.22 352.54 191.64 372.83 204.28 368.56" style="fill:none;clip-rule:evenodd"/></clipPath><clipPath id="clip-path-24" transform="translate(5 5)"><path d="M3.6,263l16.18-.8,2.23,39q25.73-1.65,27.65-1.71l-1.41-39.15,13-.52,4,20.14.54,32.64H63.92l-17.93,9-39.94-.41Z" style="fill:none;clip-rule:evenodd"/></clipPath><clipPath id="clip-path-25" transform="translate(5 5)"><polygon points="471.86 63.32 472.8 69.42 491 66.37 493.43 80.07 508.56 77.5 509.06 56.95 471.86 63.32" style="fill:none;clip-rule:evenodd"/></clipPath><clipPath id="clip-path-26" transform="translate(5 5)"><path d="M488.05,85.07l1.09,9.76,5.4-.84.64,4.41,21.28-3.15a30.66,30.66,0,0,1,6.74-12.63c4.6-5,10.13-8.18,17-10.2l-3.46-29.23-7.73.7-2.93-21,11.24-1.63L535.73,7.13q-13.89-8-37-6.49l6.9,13.55,8.49.73,5.05,9.69-2.75,8.49.44,26.24-3.74,20.43Z" style="fill:none;clip-rule:evenodd"/></clipPath><clipPath id="clip-path-27" transform="translate(5 5)"><path d="M470,44.52q8-17.85,15-19.21T508,21.57l2.16,17.24Z" style="fill:none;clip-rule:evenodd"/></clipPath><clipPath id="clip-path-28" transform="translate(5 5)"><polygon points="0.87 197.6 21.89 196.5 22.34 208.84 29.01 208.51 29.01 215.83 41.43 215.37 41.43 219.82 37.72 220 38.02 244.22 29.01 244.55 29.01 249.28 3.42 251.13 0.87 197.6" style="fill:none;clip-rule:evenodd"/></clipPath><clipPath id="clip-path-29" transform="translate(5 5)"><path d="M403,100.42h11q-.49-17,8.06-25.8C430.57,65.83,437.69,60.2,441,59q3.27-1.21,8.48-3.27,14.69-10.77,17.4-16.22T470.78,31l6.31-7.39,8.42-6L483.6,6.5,401.79,63.34c0,1.06,0,2.34,0,3.85s0,3.15,0,5.57c0,.83.11,2,.16,3,.09,1.49.16,2.78.22,4.69Q402.37,85.67,403,100.42Z" style="fill:none;clip-rule:evenodd"/></clipPath><clipPath id="clip-path-30" transform="translate(5 5)"><polygon points="476.25 48.22 477.98 59.05 507.43 54.08 505.85 43.09 476.25 48.22" style="fill:none;clip-rule:evenodd"/></clipPath><clipPath id="clip-path-31" transform="translate(5 5)"><polygon points="276.27 111.69 279.92 110.49 280.53 112.83 297.24 107.6 302.18 106 304.87 116.31 305.96 120.03 256.21 135.08 253.72 126.59 247.8 128.69 245.16 120.69 240.17 121.92 238.84 116.82 260.92 110.24 262.69 115.75 276.27 111.69" style="fill:none;clip-rule:evenodd"/></clipPath><clipPath id="clip-path-32" transform="translate(5 5)"><polygon points="75.49 207.4 83.21 223.73 77.98 226.07 70.42 210.31 75.49 207.4" style="fill:none;clip-rule:evenodd"/></clipPath><clipPath id="clip-path-33" transform="translate(5 5)"><polygon points="48.63 360.2 36.44 384 48.14 418.56 61.99 414.28 51.52 380.47 54.45 378.93 48.63 360.2" style="fill:none;clip-rule:evenodd"/></clipPath><clipPath id="clip-path-34" transform="translate(5 5)"><polygon points="419.44 104.65 428.68 102.53 429.33 115.05 420.91 116.28 419.44 104.65" style="fill:none;clip-rule:evenodd"/></clipPath><clipPath id="clip-path-35" transform="translate(5 5)"><polygon points="104.09 352.14 113.47 378.61 126.78 374.23 118.31 346.75 104.09 352.14" style="fill:none;clip-rule:evenodd"/></clipPath><clipPath id="clip-path-36" transform="translate(5 5)"><polygon points="449.41 65.52 451.06 76.33 460.03 74.88 458.44 64.08 449.41 65.52" style="fill:none;clip-rule:evenodd"/></clipPath><clipPath id="clip-path-37" transform="translate(5 5)"><polygon points="451.8 81.94 453.47 92.43 462.11 91.18 461.48 85.98 468.53 84.47 467.61 79 460.82 80.18 451.8 81.94" style="fill:none;clip-rule:evenodd"/></clipPath><clipPath id="clip-path-38" transform="translate(5 5)"><polygon points="316.21 304.38 332.1 301.57 337.03 339.44 322 341.88 316.21 304.38" style="fill:none;clip-rule:evenodd"/></clipPath><clipPath id="clip-path-39" transform="translate(5 5)"><polygon points="406.12 276.54 416.6 309.22 435.05 303.31 424.88 274.47 406.12 276.54" style="fill:none;clip-rule:evenodd"/></clipPath><clipPath id="clip-path-40" transform="translate(5 5)"><polygon points="187.2 188.96 188.76 209.43 196.52 209.43 196.52 187.77 187.2 188.96" style="fill:none;clip-rule:evenodd"/></clipPath><clipPath id="clip-path-41" transform="translate(5 5)"><path d="M250.31,264.78l1.29,10.89,41.89-6.45-1.35-6.41-2.61.47-.83-4.22,3.44-.76q-1.83-9.95-1.83-10.89l-15.7,2.26.45,10.71-5.5,1v-7l-2-1.12-1.66-6.72H253.54v6.59L249,254Z" style="fill:none;clip-rule:evenodd"/></clipPath><clipPath id="clip-path-42" transform="translate(5 5)"><rect x="386.6" y="124.08" width="11.44" height="13.05" style="fill:none"/></clipPath><clipPath id="clip-path-43" transform="translate(5 5)"><polygon points="405.37 124.17 415.68 123.03 416.79 135.01 413.88 138.79 405.37 135.85 405.37 124.17" style="fill:none;clip-rule:evenodd"/></clipPath><clipPath id="clip-path-44" transform="translate(5 5)"><polygon points="421.52 86.53 423.48 97.75 433.18 95.93 431.08 85.04 421.52 86.53" style="fill:none;clip-rule:evenodd"/></clipPath><clipPath id="clip-path-45" transform="translate(5 5)"><polygon points="492.75 303.62 502.13 300.31 508.66 319.41 498.75 322.58 492.75 303.62" style="fill:none;clip-rule:evenodd"/></clipPath><clipPath id="clip-path-46" transform="translate(5 5)"><path d="M446.7,287.41l20.66-3.66,2,19.14,8,22.15L460,326.78q-6.31-17.55-6.87-18.73T446.7,287.41Z" style="fill:none;clip-rule:evenodd"/></clipPath><clipPath id="clip-path-47" transform="translate(5 5)"><polygon points="486.62 284.52 491.8 282.69 489.8 276.55 495.25 274.5 497.5 280.67 501.7 293.35 490.57 296.97 486.62 284.52" style="fill:none;clip-rule:evenodd"/></clipPath><clipPath id="clip-path-48" transform="translate(5 5)"><polygon points="139.03 199.69 138.18 206.22 167.28 211.22 168.4 204.61 139.03 199.69" style="fill:none;clip-rule:evenodd"/></clipPath><clipPath id="clip-path-49" transform="translate(5 5)"><polygon points="79.56 260.53 80.88 277.77 70.47 278.34 70.47 263.74 77.34 245.03 84 248.1 79.56 260.53" style="fill:none;clip-rule:evenodd"/></clipPath><clipPath id="clip-path-50" transform="translate(5 5)"><polygon points="127.4 258.17 144.37 257.42 145.03 275.12 127.4 275.79 127.4 270.47 131.06 270.47 131.06 263.92 127.4 263.92 127.4 258.17" style="fill:none;clip-rule:evenodd"/></clipPath><clipPath id="clip-path-51" transform="translate(5 5)"><polygon points="149.66 256.66 150.41 274.8 162.95 274.23 162.86 255.93 149.66 256.66" style="fill:none;clip-rule:evenodd"/></clipPath><clipPath id="clip-path-52" transform="translate(5 5)"><polygon points="143.62 240.66 143.98 253.22 161.32 253 161.32 244.1 149.63 244.04 149.63 240.2 143.62 240.2 143.62 240.66" style="fill:none;clip-rule:evenodd"/></clipPath><clipPath id="clip-path-53" transform="translate(5 5)"><polygon points="200.16 251.51 217.52 249.54 215.31 221.24 198.02 222.54 200.16 251.51" style="fill:none;clip-rule:evenodd"/></clipPath><clipPath id="clip-path-54" transform="translate(5 5)"><polygon points="369.25 80.47 371.32 87.84 402.15 80.47 401.79 72.76 369.25 80.47" style="fill:none;clip-rule:evenodd"/></clipPath><clipPath id="clip-path-55" transform="translate(5 5)"><polygon points="443.61 66.19 445.11 77.7 435.84 78.77 434.45 67.19 443.61 66.19" style="fill:none;clip-rule:evenodd"/></clipPath><clipPath id="clip-path-56" transform="translate(5 5)"><polygon points="449.28 110.31 450.9 121.1 474.27 117.66 474.03 114.91 476.16 110.67 479.81 110.11 510.71 105 510.71 96.07 478.78 100.88 479.21 105.39 449.28 110.31" style="fill:none;clip-rule:evenodd"/></clipPath><clipPath id="clip-path-57" transform="translate(5 5)"><polygon points="405.31 293.56 407.55 300.63 413.11 298.49 416.59 308.98 410.92 311.29 394.64 316.76 392.72 311.05 389.53 299.5 405.31 293.56" style="fill:none;clip-rule:evenodd"/></clipPath><clipPath id="clip-path-58" transform="translate(5 5)"><polygon points="154.57 350.09 165.4 381.82 152.57 386.25 145.71 365.6 145.71 360.91 133.74 352.42 134.46 337.63 154.57 350.09" style="fill:none;clip-rule:evenodd"/></clipPath><clipPath id="clip-path-59" transform="translate(5 5)"><polygon points="170.37 256.29 171.21 290.72 191.74 284.98 189.59 253.86 170.37 256.29" style="fill:none;clip-rule:evenodd"/></clipPath><clipPath id="clip-path-60" transform="translate(5 5)"><polygon points="229.13 258.3 230.83 278.01 244.33 276.25 242.34 256.46 229.13 258.3" style="fill:none;clip-rule:evenodd"/></clipPath><clipPath id="clip-path-61" transform="translate(5 5)"><polygon points="390.65 332.17 401.91 327.55 403.24 331.37 391.56 335.91 390.65 332.17" style="fill:none;clip-rule:evenodd"/></clipPath><clipPath id="clip-path-62" transform="translate(5 5)"><polygon points="422.33 121.88 424.15 136.5 433.32 135.28 430.96 120.62 422.33 121.88" style="fill:none;clip-rule:evenodd"/></clipPath><clipPath id="clip-path-63" transform="translate(5 5)"><polygon points="502.15 300.29 506.95 298.51 510.65 309.81 506.06 311.75 502.15 300.29" style="fill:none;clip-rule:evenodd"/></clipPath><clipPath id="clip-path-64" transform="translate(5 5)"><rect x="110.78" y="203.77" width="9.35" height="9.02" style="fill:none"/></clipPath><clipPath id="clip-path-65" transform="translate(5 5)"><polygon points="28.02 287.64 36.95 287.14 36.95 289.2 41.13 289.35 41.13 293.55 36.95 293.55 36.95 300.31 28.02 300.91 28.02 287.64" style="fill:none;clip-rule:evenodd"/></clipPath><clipPath id="clip-path-66" transform="translate(5 5)"><polygon points="149.87 259.87 154.47 259.87 154.47 264.34 150.11 264.34 149.87 259.87" style="fill:none;clip-rule:evenodd"/></clipPath><clipPath id="clip-path-67" transform="translate(5 5)"><path d="M375.11,224.91q24.31,8.76,44.46-4.74l5,6.09q-22.22,17.82-52.29,6.41l2-5.4Z" style="fill:none;clip-rule:evenodd"/></clipPath><clipPath id="clip-path-68" transform="translate(5 5)"><polygon points="436.45 84.12 438.2 95.12 447.38 93.57 446.19 82.69 436.45 84.12" style="fill:none;clip-rule:evenodd"/></clipPath><clipPath id="clip-path-69" transform="translate(5 5)"><polygon points="483.48 85.33 484.52 94.22 478.07 95.52 479.21 105.53 444.01 111.19 446.88 132.61 438.84 133.8 434.35 104.98 436.96 100.27 468.17 95.09 472.72 87.17 483.48 85.33" style="fill:none;clip-rule:evenodd"/></clipPath><clipPath id="clip-path-70" transform="translate(5 5)"><polygon points="518.57 136.69 523.71 172.95 541.31 171.24 536.3 134.1 518.57 136.69" style="fill:none;clip-rule:evenodd"/></clipPath><clipPath id="clip-path-71" transform="translate(5 5)"><polygon points="553.93 60.81 555.65 69.89 559.1 69.5 559.36 85.51 538.81 88.43 536.23 73.68 543.89 71.06 543.41 62.35 553.93 60.81" style="fill:none;clip-rule:evenodd"/></clipPath><clipPath id="clip-path-72" transform="translate(5 5)"><polygon points="175.8 343.38 179.46 353.88 165.66 358.53 166.31 360.3 159.01 363 158.31 361.01 154.6 350.22 175.8 343.38" style="fill:none;clip-rule:evenodd"/></clipPath><clipPath id="clip-path-73" transform="translate(5 5)"><polygon points="302 243.53 303.26 256.08 309.11 255.13 309.79 259.72 307.67 260.08 309.79 269.58 322.08 269.58 317.45 241.56 302 243.53" style="fill:none;clip-rule:evenodd"/></clipPath><clipPath id="clip-path-74" transform="translate(5 5)"><ellipse cx="391.77" cy="173.53" rx="17.11" ry="17.08" style="fill:none"/></clipPath><clipPath id="clip-path-75" transform="translate(5 5)"><polygon points="334.95 178.43 337.98 172.85 341 166.31 317.52 154.49 313.35 159.96 307.98 164.47 309.16 178.43 334.95 178.43" style="fill:none;clip-rule:evenodd"/></clipPath><clipPath id="clip-path-76" transform="translate(5 5)"><polygon points="358.75 184.73 363.92 201.13 370.24 199.33 364.5 182.05 358.75 184.73" style="fill:none;clip-rule:evenodd"/></clipPath><clipPath id="clip-path-77" transform="translate(5 5)"><polygon points="415.77 186.1 418.85 187.46 421.6 188.66 414.62 205.26 408.63 202.58 415.77 186.1" style="fill:none;clip-rule:evenodd"/></clipPath><clipPath id="clip-path-78" transform="translate(5 5)"><polygon points="26.88 275.35 26.88 282.85 42.66 282.85 42.66 275.35 38.11 275.35 38.11 267.12 26.88 266.86 26.88 275.35" style="fill:none;clip-rule:evenodd"/></clipPath><clipPath id="clip-path-79" transform="translate(5 5)"><polygon points="275.01 226.45 277.14 242.55 292.75 240 290.4 224 275.01 226.45" style="fill:none;clip-rule:evenodd"/></clipPath><clipPath id="clip-path-80" transform="translate(5 5)"><polygon points="245.74 302.35 246.57 310.1 252.15 309 251.36 301.6 245.74 302.35" style="fill:none;clip-rule:evenodd"/></clipPath><clipPath id="clip-path-81" transform="translate(5 5)"><path d="M441.73,133.33q1.61,17,2.29,17.37l5.63-.64-2.75-17.65Z" style="fill:none;clip-rule:evenodd"/></clipPath><clipPath id="clip-path-82" transform="translate(5 5)"><polygon points="424.99 312.22 426.43 316.3 434.99 313.36 434.14 309.19 424.99 312.22" style="fill:none;clip-rule:evenodd"/></clipPath><clipPath id="clip-path-83" transform="translate(5 5)"><polygon points="204.34 258.91 205.33 267.32 217.57 265.72 216.84 257.39 204.34 258.91" style="fill:none;clip-rule:evenodd"/></clipPath><clipPath id="clip-path-84" transform="translate(5 5)"><path d="M541.82,28.57c.1,0,3.12-.4,9.06-1.18l.73,7.84-9.14,1.29Q541.68,28.57,541.82,28.57Z" style="fill:none;clip-rule:evenodd"/></clipPath><clipPath id="clip-path-85" transform="translate(5 5)"><path d="M463.82,60.24a3.6,3.6,0,1,0-3.6-3.59A3.6,3.6,0,0,0,463.82,60.24Z" style="fill:none;clip-rule:evenodd"/></clipPath><clipPath id="clip-path-86" transform="translate(5 5)"><polygon points="385.93 99.55 387.12 110.88 397.12 110.28 395.6 98.27 385.93 99.55" style="fill:none;clip-rule:evenodd"/></clipPath><clipPath id="clip-path-87" transform="translate(5 5)"><polygon points="513.49 296.44 517.4 307.3 522.83 305.48 519.32 294.23 513.49 296.44" style="fill:none;clip-rule:evenodd"/></clipPath><clipPath id="clip-path-88" transform="translate(5 5)"><polygon points="468.18 258.58 469.51 266.42 483.07 264.77 481.93 256.86 468.18 258.58" style="fill:none;clip-rule:evenodd"/></clipPath><clipPath id="clip-path-89" transform="translate(5 5)"><polygon points="539.29 93.28 540.17 100.13 541.5 107.12 548.09 106.44 546.51 99.27 547.63 91.91 539.29 93.28" style="fill:none;clip-rule:evenodd"/></clipPath><clipPath id="clip-path-90" transform="translate(5 5)"><path d="M536.21,73.62q-23.54,10.23-20.56,37.82L482,116.78l3.42,25.84L475,144.25l8.93,68.3,2.59,17.95q1.69,11.25,2.27,16.36a61.85,61.85,0,0,0,1.05,6.93q-2.83-.22.33,0l9.87.71.91,6.29,7.17-1.1.31,2.61,27.74-4.17-2.69-17,34-5.32-2.85-19.9-16.21,2.33-8.27-57.77,17.4-2.17-2.92-28.68,5.25-24.67-.57-19.42-20.58,2.94Z" style="fill:none;clip-rule:evenodd"/></clipPath><clipPath id="clip-path-91" transform="translate(5 5)"><polygon points="336.04 77.03 345.09 107.66 311.67 118 307.78 104.53 313.12 103 308.29 87.66 311 86.64 308.98 80.35 324.09 75.78 336.04 77.03" style="fill:none"/></clipPath><clipPath id="clip-path-92" transform="translate(5 5)"><path d="M363.16,218.22q8.47,5.78,11.45,6.78l-8.32,23.48-33.78,18.24-4.74-33.33-11.2,1.54V237l-14.35,2.46L300.34,229Z" style="fill:none"/></clipPath><clipPath id="clip-path-93" transform="translate(5 5)"><polygon points="243.58 183 290.38 169 292.97 175 267.94 190.39 264.5 184.89 259.57 188 261.05 194.29 243.58 199.38 243.58 183" style="fill:none"/></clipPath></defs><title>银泰</title><g style="clip-path:url(#clip-path)"><rect width="580.35" height="428.56" style="fill:#0f0e11"/></g><g style="clip-path:url(#clip-path-2)"><rect x="235.67" y="300.54" width="62.16" height="68.67" style="fill:#481284"/></g><g style="clip-path:url(#clip-path-3)"><rect x="221" y="129.18" width="102.35" height="57.82" style="fill:#481284"/></g><g style="clip-path:url(#clip-path-4)"><rect x="338.81" y="277.63" width="76.41" height="75.87" style="fill:#2c0189"/></g><g style="clip-path:url(#clip-path-5)"><rect x="91.78" y="274.2" width="81.17" height="46.6" style="fill:#2c0189"/></g><g style="clip-path:url(#clip-path-6)"><rect x="315.23" y="77.56" width="72.58" height="92.18" style="fill:#2c0189"/></g><g style="clip-path:url(#clip-path-7)"><rect y="171.82" width="80.8" height="87.16" style="fill:#2c0189"/></g><g style="clip-path:url(#clip-path-8)"><rect x="199.13" y="182.42" width="45.07" height="39.33" style="fill:#2c0189"/></g><g style="clip-path:url(#clip-path-9)"><rect x="121.35" y="115.52" width="71.29" height="87.6" style="fill:#2c0189"/></g><g style="clip-path:url(#clip-path-10)"><rect x="71.47" y="123" width="49.58" height="34.1" style="fill:#235cc2"/></g><g style="clip-path:url(#clip-path-11)"><rect x="79.96" y="150.06" width="41.83" height="26.36" style="fill:#235cc2"/></g><g style="clip-path:url(#clip-path-12)"><rect x="217.42" y="92" width="68.85" height="64.98" style="fill:#235cc2"/></g><g style="clip-path:url(#clip-path-13)"><rect x="431.64" y="212.22" width="67.37" height="77.78" style="fill:#235cc2"/></g><g style="clip-path:url(#clip-path-14)"><rect x="466.95" y="280.64" width="41.39" height="54.69" style="fill:#235cc2"/></g><g style="clip-path:url(#clip-path-15)"><rect x="53.54" y="129.19" width="68.71" height="61.59" style="fill:#1e1f28"/></g><g style="clip-path:url(#clip-path-16)"><rect x="48.63" y="347.97" width="73.21" height="66.68" style="fill:#1e1f28"/></g><g style="clip-path:url(#clip-path-17)"><rect x="90.06" y="220.29" width="108.9" height="62.47" style="fill:#273a62"/></g><g style="clip-path:url(#clip-path-18)"><rect x="226.06" y="184.58" width="142.46" height="76.71" style="fill:#273a62"/></g><g style="clip-path:url(#clip-path-19)"><rect x="419.57" y="124.15" width="75.79" height="112.2" style="fill:#273a62"/></g><g style="clip-path:url(#clip-path-20)"><rect x="490.58" y="253.34" width="89.95" height="79.24" style="fill:#1e1f28"/></g><g style="clip-path:url(#clip-path-21)"><rect x="528.64" y="16.82" width="42.91" height="65.47" style="fill:#1e1f28"/></g><g style="clip-path:url(#clip-path-22)"><rect x="255.12" y="294" width="69.57" height="68.58" style="fill:#1e1f28"/></g><g style="clip-path:url(#clip-path-23)"><rect x="126.46" y="316.47" width="87.82" height="84.06" style="fill:#1e1f28"/></g><g style="clip-path:url(#clip-path-24)"><rect x="3.6" y="259.85" width="72.18" height="71.79" style="fill:#1e1f28"/></g><g style="clip-path:url(#clip-path-25)"><rect x="471.86" y="56.95" width="47.2" height="33.12" style="fill:#273a62"/></g><g style="clip-path:url(#clip-path-26)"><rect x="488.05" y="0.4" width="62.18" height="108" style="fill:#273a62"/></g><g style="clip-path:url(#clip-path-27)"><rect x="470.02" y="21.57" width="50.13" height="32.95" style="fill:#273a62"/></g><g style="clip-path:url(#clip-path-28)"><rect x="0.87" y="196.49" width="50.56" height="64.64" style="fill:#273a62"/></g><g style="clip-path:url(#clip-path-29)"><rect x="401.77" y="6.5" width="93.75" height="103.92" style="fill:#273a62"/></g><g style="clip-path:url(#clip-path-30)"><rect x="476.25" y="43.09" width="41.17" height="25.96" style="fill:#273a62"/></g><g style="clip-path:url(#clip-path-31)"><rect x="238.84" y="106" width="77.12" height="39.08" style="fill:#0f9ee9"/></g><g style="clip-path:url(#clip-path-32)"><rect x="70.42" y="207.4" width="22.79" height="28.67" style="fill:#0f9ee9"/></g><g style="clip-path:url(#clip-path-33)"><rect x="36.44" y="360.2" width="35.55" height="68.35" style="fill:#0f9ee9"/></g><g style="clip-path:url(#clip-path-34)"><rect x="419.44" y="102.53" width="19.89" height="23.75" style="fill:#0f9ee9"/></g><g style="clip-path:url(#clip-path-35)"><rect x="104.09" y="346.75" width="32.69" height="41.86" style="fill:#0f9ee9"/></g><g style="clip-path:url(#clip-path-36)"><rect x="449.41" y="64.08" width="20.62" height="22.25" style="fill:#1e1f28"/></g><g style="clip-path:url(#clip-path-37)"><rect x="451.8" y="79" width="26.73" height="23.43" style="fill:#0f9ee9"/></g><g style="clip-path:url(#clip-path-38)"><rect x="316.21" y="301.57" width="30.82" height="50.31" style="fill:#0f9ee9"/></g><g style="clip-path:url(#clip-path-39)"><rect x="406.12" y="274.47" width="38.93" height="44.75" style="fill:#1e1f28"/></g><g style="clip-path:url(#clip-path-40)"><rect x="187.2" y="187.77" width="19.32" height="31.66" style="fill:#0f9ee9"/></g><g style="clip-path:url(#clip-path-41)"><rect x="248.98" y="246.49" width="54.51" height="39.18" style="fill:#0f9ee9"/></g><g style="clip-path:url(#clip-path-42)"><rect x="386.6" y="124.08" width="21.44" height="23.05" style="fill:#0f9ee9"/></g><g style="clip-path:url(#clip-path-43)"><rect x="405.37" y="123.03" width="21.42" height="25.76" style="fill:#0f9ee9"/></g><g style="clip-path:url(#clip-path-44)"><rect x="421.52" y="85.04" width="21.66" height="22.71" style="fill:#0f9ee9"/></g><g style="clip-path:url(#clip-path-45)"><rect x="492.75" y="300.31" width="25.91" height="32.27" style="fill:#1e1f28"/></g><g style="clip-path:url(#clip-path-46)"><rect x="446.7" y="283.75" width="40.61" height="53.04" style="fill:#0f9ee9"/></g><g style="clip-path:url(#clip-path-47)"><rect x="486.62" y="274.5" width="25.07" height="32.47" style="fill:#235cc2"/></g><g style="clip-path:url(#clip-path-48)"><rect x="138.18" y="199.69" width="40.22" height="21.53" style="fill:#0f9ee9"/></g><g style="clip-path:url(#clip-path-49)"><rect x="70.47" y="245.03" width="23.53" height="43.31" style="fill:#0f9ee9"/></g><g style="clip-path:url(#clip-path-50)"><rect x="127.4" y="257.42" width="27.63" height="28.37" style="fill:#0f9ee9"/></g><g style="clip-path:url(#clip-path-51)"><rect x="149.66" y="255.93" width="23.28" height="28.87" style="fill:#0f9ee9"/></g><g style="clip-path:url(#clip-path-52)"><rect x="143.62" y="240.2" width="27.7" height="23.02" style="fill:#0f9ee9"/></g><g style="clip-path:url(#clip-path-53)"><rect x="198.02" y="221.24" width="29.5" height="40.27" style="fill:#0f9ee9"/></g><g style="clip-path:url(#clip-path-54)"><rect x="369.25" y="72.76" width="42.91" height="25.09" style="fill:#0f9ee9"/></g><g style="clip-path:url(#clip-path-55)"><rect x="434.45" y="66.19" width="20.67" height="22.58" style="fill:#1e1f28"/></g><g style="clip-path:url(#clip-path-56)"><rect x="449.28" y="96.07" width="71.43" height="35.03" style="fill:#0f9ee9"/></g><g style="clip-path:url(#clip-path-57)"><rect x="389.53" y="293.56" width="37.06" height="33.2" style="fill:#0f9ee9"/></g><g style="clip-path:url(#clip-path-58)"><rect x="133.74" y="337.63" width="41.65" height="58.62" style="fill:#0f9ee9"/></g><g style="clip-path:url(#clip-path-59)"><rect x="170.37" y="253.86" width="31.37" height="46.86" style="fill:#1e1f28"/></g><g style="clip-path:url(#clip-path-60)"><rect x="229.13" y="256.46" width="25.2" height="31.54" style="fill:#0f9ee9"/></g><g style="clip-path:url(#clip-path-61)"><rect x="390.65" y="327.55" width="22.59" height="18.36" style="fill:#032c70"/></g><g style="clip-path:url(#clip-path-62)"><rect x="422.34" y="120.62" width="20.99" height="25.89" style="fill:#0f9ee9"/></g><g style="clip-path:url(#clip-path-63)"><rect x="502.15" y="298.51" width="18.5" height="23.24" style="fill:#1e1f28"/></g><g style="clip-path:url(#clip-path-64)"><rect x="110.78" y="203.77" width="19.35" height="19.02" style="fill:#0f9ee9"/></g><g style="clip-path:url(#clip-path-65)"><rect x="28.02" y="287.14" width="23.1" height="23.77" style="fill:#0f9ee9"/></g><g style="clip-path:url(#clip-path-66)"><rect x="149.87" y="259.87" width="14.6" height="14.47" style="fill:#0f9ee9"/></g><g style="clip-path:url(#clip-path-67)"><rect x="372.31" y="220.17" width="62.29" height="26.96" style="fill:#0f9ee9"/></g><g style="clip-path:url(#clip-path-68)"><rect x="436.45" y="82.69" width="20.93" height="22.43" style="fill:#1e1f28"/></g><g style="clip-path:url(#clip-path-69)"><rect x="434.35" y="85.33" width="60.17" height="58.47" style="fill:#1e1f28"/></g><g style="clip-path:url(#clip-path-70)"><rect x="518.57" y="134.11" width="32.74" height="48.85" style="fill:#4d6fb5"/></g><g style="clip-path:url(#clip-path-71)"><rect x="536.23" y="60.81" width="33.14" height="37.61" style="fill:#0f9ee9"/></g><g style="clip-path:url(#clip-path-72)"><rect x="154.6" y="343.38" width="34.86" height="29.62" style="fill:#222729"/></g><g style="clip-path:url(#clip-path-73)"><rect x="302" y="241.56" width="30.08" height="38.02" style="fill:#0f9ee9"/></g><g style="clip-path:url(#clip-path-74)"><rect x="374.66" y="156.45" width="44.22" height="44.17" style="fill:#0f9ee9"/></g><g style="clip-path:url(#clip-path-75)"><rect x="307.98" y="154.49" width="43.02" height="33.93" style="fill:#0f9ee9"/></g><g style="clip-path:url(#clip-path-76)"><rect x="358.76" y="182.05" width="21.48" height="29.08" style="fill:#0f9ee9"/></g><g style="clip-path:url(#clip-path-77)"><rect x="408.63" y="186.1" width="22.97" height="29.16" style="fill:#0f9ee9"/></g><g style="clip-path:url(#clip-path-78)"><rect x="26.88" y="266.86" width="25.78" height="25.98" style="fill:#0f9ee9"/></g><g style="clip-path:url(#clip-path-79)"><rect x="275.01" y="224" width="27.74" height="28.55" style="fill:#0f9ee9"/></g><g style="clip-path:url(#clip-path-80)"><rect x="245.74" y="301.6" width="16.41" height="18.5" style="fill:#481284"/></g><g style="clip-path:url(#clip-path-81)"><rect x="441.73" y="132.41" width="17.93" height="28.29" style="fill:#0f9ee9"/></g><g style="clip-path:url(#clip-path-82)"><rect x="424.99" y="309.19" width="20.01" height="17.11" style="fill:#1e1f28"/></g><g style="clip-path:url(#clip-path-83)"><rect x="204.34" y="257.39" width="23.24" height="19.93" style="fill:#0f9ee9"/></g><g style="clip-path:url(#clip-path-84)"><rect x="541.8" y="27.39" width="19.81" height="19.14" style="fill:#222729"/></g><g style="clip-path:url(#clip-path-85)"><rect x="460.22" y="53.05" width="17.2" height="17.19" style="fill:#0f9ee9"/></g><g style="clip-path:url(#clip-path-86)"><rect x="385.93" y="98.27" width="21.19" height="22.61" style="fill:#0f9ee9"/></g><g style="clip-path:url(#clip-path-87)"><rect x="513.49" y="294.23" width="19.34" height="23.07" style="fill:#1e1f28"/></g><g style="clip-path:url(#clip-path-88)"><rect x="468.18" y="256.86" width="24.89" height="19.56" style="fill:#235cc2"/></g><g style="clip-path:url(#clip-path-89)"><rect x="539.29" y="91.91" width="18.8" height="25.21" style="fill:#4d6fb5"/></g><g style="clip-path:url(#clip-path-90)"><rect x="475.04" y="73.62" width="102.49" height="198.68" style="fill:#481284"/></g><g style="clip-path:url(#clip-path-91)"><rect x="307.78" y="75.78" width="47.31" height="52.22" style="fill:#273a62"/></g><g style="clip-path:url(#clip-path-92)"><rect x="300.34" y="218.22" width="84.26" height="58.5" style="fill:#235cc2"/></g><g style="clip-path:url(#clip-path-93)"><rect x="243.58" y="169" width="59.38" height="40.38" style="fill:#0f9ee9"/></g></svg>