<?xml version="1.0" encoding="utf-8"?>
<!-- Generator: Adobe Illustrator 23.0.1, SVG Export Plug-In . SVG Version: 6.00 Build 0)  -->
<svg version="1.1" id="B1" xmlns="http://www.w3.org/2000/svg" xmlns:xlink="http://www.w3.org/1999/xlink" x="0px" y="0px"
	 viewBox="0 0 580.1 428.6" style="enable-background:new 0 0 580.1 428.6;" xml:space="preserve">
<g>
	<g>
		<path style="fill:#3585C9;" d="M143.4,45.6h64.5c3.1,0,5.7,2.5,5.7,5.7v47.4c0,3.1-2.5,5.7-5.7,5.7h-64.5c-3.1,0-5.7-2.5-5.7-5.7
			V51.3C137.7,48.1,140.2,45.6,143.4,45.6z"/>
		<path style="fill:#3585C9;" d="M134.1,101.7V51.3c0-3.1-2.5-5.7-5.7-5.7H63.9c-3.1,0-5.7,2.5-5.7,5.7v109.3c0,3.1,2.5,5.7,5.7,5.7
			H98h36.1h34c3.1,0,5.7-2.5,5.7-5.7v-47.5c0-3.1-2.5-5.7-5.7-5.7h-28.4C136.6,107.4,134.1,104.9,134.1,101.7z"/>
		<path style="fill:#3585C9;" d="M222.3,45.6h64.5c3.1,0,5.7,2.5,5.7,5.7v47.4c0,3.1-2.5,5.7-5.7,5.7h-64.5c-3.1,0-5.7-2.5-5.7-5.7
			V51.3C216.6,48.1,219.1,45.6,222.3,45.6z"/>
		<path style="fill:#3585C9;" d="M301.3,45.6h49c3.1,0,5.7,2.5,5.7,5.7v47.4c0,3.1-2.5,5.7-5.7,5.7h-49c-3.1,0-5.7-2.5-5.7-5.7V51.3
			C295.6,48.1,298.1,45.6,301.3,45.6z"/>
		<path style="fill:#3585C9;" d="M364.2,45.6h49c3.1,0,5.7,2.5,5.7,5.7v47.4c0,3.1-2.5,5.7-5.7,5.7h-49c-3.1,0-5.7-2.5-5.7-5.7V51.3
			C358.5,48.1,361,45.6,364.2,45.6z"/>
		<path style="fill:#3585C9;" d="M427.8,45.6h88.1c3.1,0,5.7,2.5,5.7,5.7v47.4c0,3.1-2.5,5.7-5.7,5.7h-88.2c-3.1,0-5.7-2.5-5.7-5.7
			V51.3C422.1,48.1,424.6,45.6,427.8,45.6z"/>
		<path style="fill:#3585C9;" d="M427.8,107.4h88.1c3.1,0,5.7,2.5,5.7,5.7v47.4c0,3.1-2.5,5.7-5.7,5.7h-88.2c-3.1,0-5.7-2.5-5.7-5.7
			v-47.4C422.1,109.9,424.6,107.4,427.8,107.4z"/>
		<path style="fill:#3585C9;" d="M405.8,169.5h84.8c1.6,0,2.8,1.3,2.8,2.8v34.1c0,3.1-2.5,5.7-5.7,5.7h-82c-3.1,0-5.7-2.5-5.7-5.7
			v-31.3C400.1,172,402.6,169.5,405.8,169.5z"/>
		<path style="fill:#3585C9;" d="M405.7,215.3h82c3.1,0,5.7,2.5,5.7,5.7v31.3c0,3.1-2.5,5.6-5.6,5.6h-82.1c-3.1,0-5.6-2.5-5.6-5.6
			v-31.4C400.1,217.8,402.6,215.3,405.7,215.3z"/>
		<path style="fill:#3585C9;" d="M86.1,169.4h82.1c3.1,0,5.6,2.5,5.6,5.6v31.4c0,3.1-2.5,5.6-5.6,5.6H86.1c-3.1,0-5.6-2.5-5.6-5.6
			V175C80.5,171.9,83,169.4,86.1,169.4z"/>
		<path style="fill:#3585C9;" d="M86.2,215.3h81.9c3.1,0,5.7,2.5,5.7,5.7v31.2c0,3.1-2.5,5.7-5.7,5.7H86.2c-3.1,0-5.7-2.5-5.7-5.7
			V221C80.5,217.8,83,215.3,86.2,215.3z"/>
		<path style="fill:#3585C9;" d="M299.7,315.1h91.4c3.1,0,5.7,2.5,5.7,5.7v56.4c0,3.1-2.5,5.7-5.7,5.7h-91.4c-3.1,0-5.7-2.5-5.7-5.7
			v-56.4C294,317.6,296.5,315.1,299.7,315.1z"/>
		<path style="fill:#3585C9;" d="M194.5,315.1h91.3c3.1,0,5.7,2.6,5.7,5.7v56.3c0,3.1-2.6,5.7-5.7,5.7h-91.3c-3.1,0-5.7-2.6-5.7-5.7
			v-56.3C188.8,317.7,191.4,315.1,194.5,315.1z"/>
		<path style="fill:#3585C9;" d="M405.8,261.2h110.3c3.1,0,5.7,2.5,5.7,5.7v110.3c0,3.1-2.5,5.7-5.7,5.7H405.8
			c-3.1,0-5.7-2.5-5.7-5.7V266.9C400.1,263.7,402.6,261.2,405.8,261.2z"/>
		<path style="fill:#3585C9;" d="M69.8,261.2h110.3c3.1,0,5.6,2.5,5.6,5.6v110.3c0,3.1-2.5,5.6-5.6,5.6H69.8c-3.1,0-5.6-2.5-5.6-5.6
			V266.8C64.2,263.7,66.7,261.2,69.8,261.2z"/>
	</g>
	<path style="fill:#2D3B80;" d="M209.4,155H229c3.1,0,5.7,2.5,5.7,5.7V193c0,3.1-2.5,5.7-5.7,5.7h-19.7c-3.1,0-5.7-2.5-5.7-5.7
		v-32.4C203.7,157.5,206.2,155,209.4,155z"/>
	<path style="fill:#2D3B80;" d="M243.5,155h19.7c3.1,0,5.7,2.5,5.7,5.7V193c0,3.1-2.5,5.7-5.7,5.7h-19.7c-3.1,0-5.7-2.5-5.7-5.7
		v-32.4C237.8,157.5,240.3,155,243.5,155z"/>
	<path style="fill:#2D3B80;" d="M277.2,155h19.7c3.1,0,5.7,2.5,5.7,5.7V193c0,3.1-2.5,5.7-5.7,5.7h-19.7c-3.1,0-5.7-2.5-5.7-5.7
		v-32.4C271.5,157.5,274,155,277.2,155z"/>
	<g>
		<path style="fill:#2D3B80;" d="M311.6,155H367c3.1,0,5.7,2.5,5.7,5.7V193c0,3.1-2.5,5.7-5.7,5.7h-55.5c-3.1,0-5.7-2.5-5.7-5.7
			v-32.4C305.9,157.5,308.4,155,311.6,155z"/>
	</g>
	<path style="fill:#2D3B80;" d="M209.4,229.5H229c3.1,0,5.7,2.5,5.7,5.7v32.4c0,3.1-2.5,5.7-5.7,5.7h-19.7c-3.1,0-5.7-2.5-5.7-5.7
		v-32.4C203.7,232,206.2,229.5,209.4,229.5z"/>
	<path style="fill:#2D3B80;" d="M243.5,229.5h19.7c3.1,0,5.7,2.5,5.7,5.7v32.4c0,3.1-2.5,5.7-5.7,5.7h-19.7c-3.1,0-5.7-2.5-5.7-5.7
		v-32.4C237.8,232,240.3,229.5,243.5,229.5z"/>
	<path style="fill:#2D3B80;" d="M277.2,229.5h19.7c3.1,0,5.7,2.5,5.7,5.7v32.4c0,3.1-2.5,5.7-5.7,5.7h-19.7c-3.1,0-5.7-2.5-5.7-5.7
		v-32.4C271.5,232,274,229.5,277.2,229.5z"/>
	<path style="fill:#2D3B80;" d="M311.6,229.5H367c3.1,0,5.7,2.5,5.7,5.7v32.4c0,3.1-2.5,5.7-5.7,5.7h-55.5c-3.1,0-5.7-2.5-5.7-5.7
		v-32.4C305.9,232,308.4,229.5,311.6,229.5z"/>
</g>
</svg>
