<?xml version="1.0" encoding="utf-8"?>
<!-- Generator: Adobe Illustrator 23.0.1, SVG Export Plug-In . SVG Version: 6.00 Build 0)  -->
<svg version="1.1" id="B1" xmlns="http://www.w3.org/2000/svg" xmlns:xlink="http://www.w3.org/1999/xlink" x="0px" y="0px"
	 viewBox="0 0 580.1 428.6" style="enable-background:new 0 0 580.1 428.6;" xml:space="preserve">
<path style="opacity:0.3;fill:#4A7793;enable-background:new    ;" d="M540.1,155.5v-119c0-5.5-4.3-10-9.7-10.3l-56.9-3.5l0.5-8.2
	c0.1-1.8-1.3-3.4-3.1-3.5l-81.1-5c-1.8-0.1-3.4,1.3-3.5,3.1l-0.5,8.3l-12.4-0.8l-45.7-1V6.9c0-1.8-1.5-3.3-3.3-3.3h-81.2
	c-1.8,0-3.3,1.5-3.3,3.3V16l-33.3,0.8l-24.8,1.5l-0.6-9.2c-0.1-1.8-1.7-3.2-3.5-3.1L96.6,11c-1.8,0.1-3.2,1.7-3.1,3.5l0.6,9.1
	l-44.5,2.7c-5.5,0.3-9.7,4.8-9.7,10.3v119H53v116.1H39.9v120.5c0,5.5,4.3,10,9.7,10.3l44.4,2.7l-0.5,7.3c-0.1,1.8,1.3,3.4,3.1,3.5
	l81.1,5c1.8,0.1,3.4-1.3,3.5-3.1l0.5-7.5l24.9,1.5l33.3,0.8v8.5c0,1.8,1.5,3.3,3.3,3.3h81.2c1.8,0,3.3-1.5,3.3-3.3v-8.2l45.7-1.2
	l12.5-0.7l0.5,7.8c0.1,1.8,1.7,3.2,3.5,3.1l81.1-4.9c1.8-0.1,3.2-1.7,3.1-3.5l-0.5-7.6l56.9-3.3c5.4-0.3,9.7-4.8,9.7-10.3V271.6
	h-14.3V155.5H540.1z"/>
</svg>
