<?xml version="1.0" encoding="utf-8"?>
<!-- Generator: Adobe Illustrator 23.0.1, SVG Export Plug-In . SVG Version: 6.00 Build 0)  -->
<svg version="1.1" id="B1" xmlns="http://www.w3.org/2000/svg" xmlns:xlink="http://www.w3.org/1999/xlink" x="0px" y="0px"
	 viewBox="0 0 580.1 428.6" style="enable-background:new 0 0 580.1 428.6;" xml:space="preserve">

<g id="_x31_1层">
	<rect x="199.4" y="137.8" width="182.4" height="61"/>
	<rect x="199.4" y="230.1" width="182.4" height="61"/>
	<rect x="53.9" y="319.9" width="84.8" height="68.1"/>
	<rect x="53.9" y="262.7" width="84.8" height="57.2"/>
	<rect x="79.7" y="222.2" width="94.1" height="40.5"/>
	<rect x="425.8" y="262.2" width="99.5" height="28.8"/>
	<rect x="426.1" y="210.7" width="74.6" height="51.5"/>
	<rect x="426.1" y="157.6" width="74.6" height="53.1"/>
	<rect x="444.9" y="50.2" width="72.5" height="68.1"/>
	<rect x="363.6" y="50.2" width="70" height="68.1"/>
	<rect x="184.8" y="50.2" width="78.7" height="68.1"/>
	<rect x="273.8" y="51" width="78.7" height="68.1"/>
	<rect x="62.6" y="50.2" width="111.4" height="68.1"/>
	<rect x="79.7" y="178.7" width="94.1" height="43.4"/>
	<polygon points="79.7,132 54.9,132 54.9,157.3 79.7,157.3 79.7,178.7 173.7,178.7 173.7,132 	"/>
	<rect x="138.7" y="319.9" width="85.2" height="68.1"/>
	<rect x="224" y="319.7" width="68.1" height="68.1"/>
	<rect x="302.2" y="301" width="215.7" height="76.9"/>
</g>
</svg>
