<?xml version="1.0" encoding="utf-8"?>
<!-- Generator: Adobe Illustrator 22.1.0, SVG Export Plug-In . SVG Version: 6.00 Build 0)  -->
<svg version="1.1" id="_x5F__x5F__x5F_.2" xmlns="http://www.w3.org/2000/svg" xmlns:xlink="http://www.w3.org/1999/xlink" x="0px"
	 y="0px" viewBox="0 0 580.1 428.6" style="enable-background:new 0 0 580.1 428.6;" xml:space="preserve">
<g id="_x5F__x5F_">
</g>
<g id="_x5F__x5F__x28_0_x29_">
	<!--<g id="_x5F__x5F__1_" style="fill: #ff0000">-->
	<!--</g>-->
	<g style="fill: #0F0E11;">
    <path id="SVGID_1_" d="M54.9,182.6l-4-35l8.7-2.2l-1.5-8.4l104.4-16.4l20.9,13.7l3.3,37.5l38.6-6l9.9-3.8l-3.4-12.7l-6.6,2
				l-3-19.4l20.7-25.1l85.9-26.1l45.1,4.7l32.6-7.8v-9.4l82.1-57.1c9.4-3.9,14.3-5.9,14.7-5.9c14.6-1.2,26.9,1,37.1,6.6
				c3,1.6,7,4.8,12,9.6c2.5,3.3,4.7,6.1,6.5,8.4c2.8,3.5,5,6.7,7.1,9.3c-2.4,0-4.3,0.1-5.7,0.2l3.5,34.5l0.6,35.8l-5.2,24.8
				l2.8,28.4l-17.3,2.3l8.3,58.1l16.4-2.4l5.2,37.4l-3.6,0.9l4,20.6l-27,9.3l-14.7,28.6l-30.1,9.6c-8,1.1-15.1,1.9-21.3,2.5
				c-6.2,0.6-12,1.2-17.3,1.7l-20.4-8.1l-12.7,4.5v10.6l-44.3,5.2l-36,4.7l-1.5-5.2l-29.9,4.8v7.1l-68.5,8.7l-42.3,9.8L170,386.9
				l-25.2,8.7l-3.8-6.9l-26,9.7l1.6,5.5l-63.7,19.7l-11.8-34.9l-30.3-62.4l-6-142.7l18-0.9v-5.8l22.8,1.6L54.9,182.6Z"/>
	</g>
	<g style="fill: #2759A8;">
			<path id="SVGID_3_" d="M464.8,221l23.8-3.7l5.2,34.8l-30.7,4.5l1.2,8.5l3.8-0.5l1.8,8.1l-4.5,0.9l-18.3,6.3l-4-28.9l-6.6-8.4
				l4.6-0.6l-0.7-6.6c2.7-0.3,4.8-0.6,6.2-0.8c1.4-0.2,2.4-0.3,3-0.3l0.5,3.8l17-3.2L464.8,221z"/>
	</g>
	<g style="fill: #1F1F28;">
    <polygon id="SVGID_5_" points="58.3,137.4 65.4,175.3 76,183.9 110.4,185.8 117,174.8 117,169.6 80.7,171.6 76.2,167.4
				76.2,134.2 			"/>
	</g>
	<g style="fill: #1F1F28;">
    <polygon id="SVGID_7_" points="53.4,365.2 82.3,355.7 84.5,363.6 88.8,362.3 86.2,354.2 89.5,353 104,362.8 117,404.1
				97.9,410.1 91,389.7 89.5,390.1 85.7,379.7 81.8,381 85.2,391.7 84.1,392.2 85.7,397 84.1,397.6 82.3,392.7 79.2,394 77.8,389.7
				69.3,392.7 70.6,396.7 64,399.1 			"/>
	</g>
	<g style="fill: #263960;">
    <path id="SVGID_9_" d="M94.8,247c13.2,1.1,23.4-5.4,30.6-19.4l65.4-2.3l3,30.4l-21.8,1.9l-1.1-18l-27,1.9l0.5,16.8l-17.1,0.9
				l0.6,17.8l-31.1,0.8L94.8,247z"/>
	</g>
	<g style="fill: #263960;">
    <path id="SVGID_11_" d="M230.8,218.1l2.5,38.2l8.5-1.1l-1.1-5.7l12.2-1.7l-1.5-11.8l72.4-11.5l39.5-5.5c-5-7.2-8.1-12.5-9.1-15.7
				c-1-3.2-2.1-7.8-3.3-13.8l-13.8,2.2l-17.2-1.3L230.8,218.1z"/>
	</g>
	<g style="fill: #263960;">
			<path id="SVGID_13_" d="M456.6,133.6l31.1-4.5l2.4,18.4l-10.2,1.8l9.1,67.8l-57,8.2v1.9h-2.3l0.3,3.3l-0.7,0.7l-5-6.3
				c20.6-15.6,25.1-35.9,13.7-61l22-4.7L456.6,133.6z"/>
	</g>
	<g style="fill: #1F1F28;">
			<polygon id="SVGID_15_" points="495.4,302 522,293 513.2,267.3 571.7,258.3 575.3,280.1 548.4,289.4 533.7,318 503.7,327.6
				"/>
	</g>
	<g style="fill: #1F1F28;">
			<path id="SVGID_17_" d="M545.5,23.6l2,20.1l-14,2l0.4,3.4l7.7-0.8l3.5,29.1l3.7-1.3l-0.5-8.6l15.4-2.1l-3-25.6l5.7-0.2
				c-9-11.6-13.7-17.4-13.9-17.6l-4.7,1.2L545.5,23.6z"/>
	</g>
	<g style="fill: #1F1F28;">
    <polygon id="SVGID_19_" points="260.4,305.9 304.9,299.3 315.5,308.6 314.3,310.5 320,347.2 320,354.2 294.5,357.9 291.6,336.1
				288.7,318 263,321.9 			"/>
	</g>
	<g style="fill: #1F1F28;">
    <polygon id="SVGID_21_" points="209.1,374 206.1,341.5 187.9,321.5 136.6,338.7 131.2,355.2 145.1,395.9 157.5,391.7
				150.6,370.4 150.6,366 138.6,357.5 139.3,342.7 159.4,355.2 185.2,347 188.5,357.8 190,357.5 196.5,378.2 			"/>
	</g>
	<g style="fill: #1F1F28;">
			<path id="SVGID_23_" d="M8.4,268l16.2-0.8v5.7h-4.9l0.6,18.1h5.7l0.9,15.2c6.3-0.4,10.7-0.7,13.2-0.9c7.7-0.5,12.5-0.8,14.4-0.8 L53,265.4l13-0.5l4,20.1l0.5,32.6h-1.9l-17.9,9H11.4L8.4,268z"/>
	</g>
	<g style="fill: #263960;">
			<polygon id="SVGID_25_" points="476.6,68.3 477.6,74.4 495.8,71.4 498.2,85.1 513.3,82.5 513.8,62 			"/>
	</g>
	<g style="fill: #263960;">
			<path id="SVGID_27_" d="M492.8,90.1l1.1,9.8l5.4-0.8l0.6,4.4l21.3-3.3c3.6-11.6,11.5-19.2,23.7-22.8l-3.5-29.1l-7.7,0.7l-2.9-21l11.2-1.6l-1.6-14.1c-9.3-5.3-21.6-7.5-37-6.5l6.9,13.6l8.5,0.7l5,9.7l-2.7,8.5l0.4,26.2l-3.7,20.4L492.8,90.1z"/>
	</g>
	<g style="fill: #263960;">
			<path id="SVGID_29_" d="M474.8,49.5c5.3-11.9,10.4-18.3,15-19.2c4.7-0.9,12.3-2.1,22.9-3.7l2.2,17.2L474.8,49.5z"/>
	</g>
	<g style="fill: #263960;">
			<polygon id="SVGID_31_" points="5.6,202.6 26.7,201.5 27.1,213.8 33.8,213.5 33.8,254.3 8.2,256.1 			"/>
	</g>
	<g style="fill: #263960;">

			<polygon id="SVGID_33_" points="314,85.8 320.3,107.2 346,99.3 341.3,82.3 329.2,81.3 			"/>
	</g>
	<g style="fill: #263960;">
			<path id="SVGID_35_" d="M407.8,105.4h11c-0.3-11.3,2.4-19.9,8.1-25.8c8.5-8.8,15.7-14.4,18.9-15.6c2.2-0.8,5-1.9,8.5-3.3
				c9.8-7.2,15.6-12.6,17.4-16.2c1.8-3.6,3.1-6.5,3.9-8.5l6.3-7.4l8.4-6l-1.5-11l-82.2,57.2l0.6,21L407.8,105.4z"/>
	</g>
	<g style="fill: #263960;">
			<polygon id="SVGID_37_" points="481,53.2 482.8,64.1 512.2,59.1 510.6,48.1 			"/>
	</g>
	<g style="fill: #2759A8;">
			<polygon id="SVGID_39_" points="304.8,233.7 306.6,244.1 321.2,241.9 321.2,239.9 341.8,237.8 343.2,227.9 			"/>
	</g>
	<g style="fill: #2594D3;">
			<polygon id="SVGID_41_" points="253.5,259.2 258.4,258.3 258,251.4 264.9,251.2 270.8,251.2 272.2,258 274.4,259.2 274.4,268.5
				264.9,268.5 255.1,269.9 			"/>
	</g>
	<g style="fill: #222729;">

			<polygon id="SVGID_43_" points="165.9,364.7 169.1,373.7 165.7,374.9 162.8,365.8 			"/>
	</g>
	<g style="fill: #2594D3;">

			<polygon id="SVGID_45_" points="248.2,187.9 248.2,204.5 251.3,203.6 251.2,187.1 			"/>
	</g>
	<g style="fill: #2594D3;">
			<polygon id="SVGID_47_" points="286.9,176.5 291.5,183.8 297.6,180.1 295,174 			"/>
	</g>
	<g style="fill: #183261;">

			<polygon id="SVGID_49_" points="231.2,189.3 236.7,188.2 239,205.4 233.1,206.1 			"/>
	</g>
	<g style="fill: #2594D3;">
			<polygon id="SVGID_51_" points="281,116.5 284.7,115.5 285.3,117.8 302,112.6 304.9,122.7 309.6,121.3 310.7,125 261,140.1
				257.1,127.6 251.1,129.5 249.9,125.6 			"/>
	</g>
	<g style="fill: #2594D3;">

			<polygon id="SVGID_53_" points="80.3,212.4 88,228.7 82.8,231.1 75.2,215.3 			"/>
	</g>
	<g style="fill: #2759A8;">
			<rect id="SVGID_55_" x="41.7" y="220.3" width="4.6" height="4.5"/>
	</g>
	<g style="fill: #2594D3;">
			<polygon id="SVGID_57_" points="53.8,365.1 41.7,389.1 53.3,423.9 66.8,419.6 56.3,385.5 60.2,383.9 			"/>
	</g>
	<g style="fill: #2594D3;">
			<polygon id="SVGID_59_" points="424.2,109.7 433.5,107.5 434.1,120.1 425.7,121.3 			"/>
	</g>
	<g style="fill: #2594D3;">

			<polygon id="SVGID_61_" points="108.9,357.1 118.2,383.6 131.6,379.2 123.1,351.8 			"/>
	</g>
	<g style="fill: #1F1F28;">
			<polygon id="SVGID_63_" points="454.2,70.5 455.8,81.3 464.8,79.9 463.2,69.1 			"/>
	</g>
	<g style="fill: #2594D3;">

			<polygon id="SVGID_65_" points="456.6,86.9 458.2,97.4 466.9,96.2 465.6,85.2 			"/>
	</g>
	<g style="fill: #2594D3;">

			<polygon id="SVGID_67_" points="323.3,326.2 339.1,323.4 341.9,344 326.5,346.5 			"/>
	</g>
	<g style="fill: #1F1F28;">

			<polygon id="SVGID_69_" points="410.9,281.5 421.4,314.2 439.8,308.3 429.7,279.5 			"/>
	</g>
	<g style="fill: #2594D3;">

			<polygon id="SVGID_71_" points="192,194 193.5,214.4 201.3,214.4 201.3,192.8 			"/>
	</g>
	<g style="fill: #2594D3;">
			<path id="SVGID_73_" d="M255.1,269.8l1.3,10.9l41.9-6.5l-1.4-6.4l-2.6,0.5l-0.8-4.2l3.4-0.8c-1.2-6.6-1.8-10.3-1.8-10.9
				l-15.7,2.3l0.5,10.7L255.1,269.8z"/>
	</g>
	<g style="fill: #2594D3;">

			<rect id="SVGID_75_" x="391.4" y="129.1" width="11.4" height="13.1"/>
	</g>
	<g style="fill: #2594D3;">

			<polygon id="SVGID_77_" points="410.1,129.2 420.5,128 421.6,140 418.7,143.8 410.1,140.8 			"/>
	</g>
	<g style="fill: #2594D3;">

			<polygon id="SVGID_79_" points="426.3,91.5 428.3,102.7 438,100.9 435.9,90 			"/>
	</g>
	<g style="fill: #1F1F28;">

			<polygon id="SVGID_81_" points="497.5,308.6 506.9,305.3 513.4,324.4 503.5,327.6 			"/>
	</g>
	<g style="fill: #2594D3;">

			<path id="SVGID_83_" d="M451.5,292.4l20.7-3.7l2,19.1l8,22.1l-17.3,1.7c-4.2-11.7-6.5-17.9-6.9-18.7
				C457.6,312.3,455.4,305.4,451.5,292.4z"/>
	</g>
	<g style="fill: #2759A8;">
			<polygon id="SVGID_85_" points="491.4,289.5 502.3,285.7 506.5,298.3 495.4,302 			"/>
	</g>
	<g style="fill: #2594D3;">
			<polygon id="SVGID_87_" points="312.4,109.7 316.3,122.9 349.9,112.7 345.9,99.1 			"/>
	</g>
	<g style="fill: #2594D3;">
			<polygon id="SVGID_89_" points="269.4,189.8 272.7,195.5 291.7,183.6 288.1,178.1 			"/>
	</g>
	<g style="fill: #2594D3;">
			<polygon id="SVGID_91_" points="318.1,165 321.8,159.5 346.4,171.6 342.7,178 			"/>
	</g>
	<g style="fill: #2594D3;">
			<polygon id="SVGID_93_" points="143.8,204.7 143,211.2 172.1,216.2 173.2,209.6 			"/>
	</g>
	<g style="fill: #2594D3;">
			<rect id="SVGID_95_" x="31.7" y="271.8" width="11.2" height="8.6"/>
	</g>
	<g style="fill: #2594D3;">
			<rect id="SVGID_97_" x="41.7" y="294.2" width="4.3" height="4.3"/>
	</g>
	<g style="fill: #2594D3;">
			<polygon id="SVGID_99_" points="84.3,265.5 85.7,282.8 75.3,283.3 75.3,268.7 82.1,271.4 			"/>
	</g>
	<g style="fill: #2594D3;">
			<polygon id="SVGID_101_" points="117.4,281.2 128.4,281.1 128.4,286.7 117.4,286.7 			"/>
	</g>
	<g style="fill: #2594D3;">
			<polygon id="SVGID_103_" points="132.2,263.2 149.2,262.4 149.8,280.1 132.2,281.2 132.2,275.5 135.8,275.5 135.8,268.9
				132.2,268.9 			"/>
	</g>
	<g style="fill: #2594D3;">
			<polygon id="SVGID_105_" points="154.4,261.7 155.2,279.8 167.7,279.2 167.6,260.9 			"/>
	</g>
	<g style="fill: #2594D3;">
			<polygon id="SVGID_107_" points="148.4,245.7 148.8,258.2 159.2,257.9 159.2,249 154.4,249 154.4,245.2 148.4,245.2 			"/>
	</g>
	<g style="fill: #2594D3;">
			<polygon id="SVGID_109_" points="204.9,256.5 222.3,254.5 220.1,226.2 202.8,227.5 			"/>
	</g>
	<g style="fill: #2594D3;">
			<polygon id="SVGID_111_" points="374.3,85.8 376.1,92.8 407.1,85.7 406.9,78.1 			"/>
	</g>
	<g style="fill: #1F1F28;">
			<polygon id="SVGID_113_" points="448.4,71.2 449.9,82.7 440.6,83.8 439.2,72.2 			"/>
	</g>
	<g style="fill: #2594D3;">
			<polygon id="SVGID_115_" points="454.1,115.3 455.7,126.1 479.1,122.7 478.8,119.9 485.1,119.1 484,110.4 			"/>
	</g>
	<g style="fill: #2594D3;">
			<polygon id="SVGID_117_" points="483.4,106 494.2,104.3 494.6,114.3 484.6,115.5 			"/>
	</g>
	<g style="fill: #2594D3;">
			<polygon id="SVGID_119_" points="410.1,298.6 415.7,316.3 399.4,321.8 397.5,316 402.7,313.9 399.7,302.6 			"/>
	</g>
	<g style="fill: #2594D3;">
			<polygon id="SVGID_121_" points="159.3,355.1 170.2,387.3 157.5,391.7 150.5,370.6 150.5,365.9 138.5,357.4 139.2,342.6 			"/>
	</g>
	<g style="fill: #4B6AAA;">
			<polygon id="SVGID_123_" points="167.3,359 169.3,364.1 178.7,360.9 177,355.7 			"/>
	</g>
	<g style="fill: #183261;">
			<polygon id="SVGID_125_" points="23,183 34.9,182.1 53.2,188.4 55.1,182.9 45.6,178.5 23,177.2 			"/>
	</g>
	<g style="fill: #1F1F28;">
			<polygon id="SVGID_127_" points="175.1,261.3 176,295.7 196.5,290 194.4,258.9 			"/>
	</g>
	<g style="fill: #2594D3;">
			<polygon id="SVGID_129_" points="233.9,263.3 235.6,283 249.1,281.3 247.1,261.5 			"/>
	</g>
	<g style="fill: #183261;">
			<polygon id="SVGID_131_" points="395.4,337.2 406.7,332.6 408,336.4 396.3,340.9 			"/>
	</g>
	<g style="fill: #2594D3;">
			<polygon id="SVGID_133_" points="427.1,126.9 428.9,141.5 438.1,140.3 435.7,125.6 			"/>
	</g>
	<g style="fill: #1F1F28;">
			<polygon id="SVGID_135_" points="506.9,305.3 511.7,303.5 515.4,314.8 510.8,316.8 			"/>
	</g>
	<g style="fill: #2594D3;">
			<polygon id="SVGID_137_" points="244.9,127.1 267.9,120.4 266.2,114.9 243.6,121.7 			"/>
	</g>
	<g style="fill: #2594D3;">
			<polygon id="SVGID_139_" points="251.1,129.4 257,127.2 258.8,132.8 252.9,135 			"/>
	</g>
	<g style="fill: #2594D3;">
			<polygon id="SVGID_141_" points="317.9,108 320.5,118.1 315.3,119.4 312.5,109.7 			"/>
	</g>
	<g style="fill: #2594D3;">
			<polygon id="SVGID_143_" points="251.2,187.1 287,176.5 288,178.2 264.5,193 265.8,199.3 251.2,203.7 			"/>
	</g>
	<g style="fill: #2759A8;">
			<rect id="SVGID_145_" x="112.2" y="136.3" width="4" height="9.2"/>
	</g>
	<g style="fill: #2759A8;">
			<path id="SVGID_147_" d="M98.5,154.8c0,0,0,1.6,0,4.9l4.8-0.1v-4.8C100.1,154.8,98.5,154.8,98.5,154.8z"/>
	</g>
	<g style="fill: #2594D3;">
    <rect id="SVGID_149_" x="115.6" y="208.8" width="9.3" height="9"/>
	</g>
	<g style="fill: #2594D3;">

			<polygon id="SVGID_151_" points="32.8,292.6 41.7,292.1 41.7,305.3 32.8,305.9 			"/>
	</g>
	<g style="fill: #2594D3;">

			<polygon id="SVGID_153_" points="82.1,250 75.2,268.8 82.1,271.5 89.1,253 			"/>
	</g>
	<g style="fill: #2594D3;">
    <rect id="SVGID_155_" x="135.8" y="269" width="5.7" height="6.4"/>
	</g>
	<g style="fill: #2594D3;">
			<polygon id="SVGID_157_" points="154.6,264.9 159.3,264.9 159.3,269.3 154.9,269.3 			"/>
	</g>
	<g style="fill: #2594D3;">
			<polygon id="SVGID_159_" points="208.7,227.1 210.6,255.9 218,255 215.7,226.7 			"/>
	</g>
	<g style="fill: #2594D3;">

			<polygon id="SVGID_161_" points="295.3,229 297.6,245.4 292.1,245.9 289.9,229.9 			"/>
	</g>
	<g style="fill: #2594D3;">

			<path id="SVGID_163_" d="M379.9,229.9c16.2,5.8,31,4.3,44.5-4.7l5,6.1c-14.8,11.9-32.2,14-52.3,6.4l2-5.4L379.9,229.9z"/>
	</g>
	<g style="fill: #1F1F28;">

			<polygon id="SVGID_165_" points="441.2,89.1 443,100.1 452.2,98.6 451,87.7 			"/>
	</g>
	<g style="fill: #1F1F28;">

			<polygon id="SVGID_167_" points="488.3,90.3 489.3,99.2 482.9,100.5 484,110.5 448.8,116.2 451.7,137.6 443.6,138.8 439.1,110
				441.7,105.3 472.9,100.1 477.5,92.2 			"/>
	</g>
	<g style="fill: #1F1F28;">

			<polygon id="SVGID_169_" points="535.8,32 537.2,45.1 543.2,44.2 542,31.4 			"/>
	</g>
	<g style="fill: #2594D3;">

			<polygon id="SVGID_171_" points="494.4,108.9 499.6,108.6 500.2,116.9 494.7,117.2 			"/>

	</g>
	<g style="fill: #4B6AAA;">

			<polygon id="SVGID_173_" points="523.3,141.7 528.5,178 546.1,176.2 541.1,139.1 			"/>
	</g>
	<g style="fill: #2594D3;">

			<polygon id="SVGID_175_" points="558.7,65.8 560.4,74.9 564.5,74.4 564.5,90.4 543.5,93.4 540.8,78.7 548.7,76.1 548.2,67.4
				"/>
	</g>
	<g style="fill: #2594D3;">

			<polygon id="SVGID_177_" points="412.3,305.6 417.9,303.4 421.4,314.2 415.7,316.3 			"/>
	</g>
	<g style="fill: #2594D3;">

			<polygon id="SVGID_179_" points="321.2,307.4 323.3,326.2 339.1,323.6 335.7,304.6 			"/>
	</g>
	<g style="fill: #222729;">
			<polygon id="SVGID_181_" points="180.6,348.4 184.2,358.9 163,366.2 159.2,355 			"/>
	</g>
	<g style="fill: #2594D3;">
			<polygon id="SVGID_183_" points="306.8,248.5 308,261.1 313.9,260.1 314.6,264.7 312.4,265.1 314.6,274.6 326.9,274.6
				322.2,246.6 			"/>
	</g>
	<g style="fill: #2594D3;">
    <ellipse id="SVGID_185_" cx="396.6" cy="178.5" rx="17.1" ry="17.1"/>
	</g>
	<g style="fill: #2594D3;">
			<polygon id="SVGID_187_" points="302,112.6 304.8,122.8 309.7,121.4 307,110.9 			"/>
	</g>
	<g style="fill: #412575;">
			<polygon id="SVGID_189_" points="274.1,145.2 276.4,152.4 285.9,149.6 283.9,141.7 			"/>
	</g>
	<g style="fill: #2594D3;">
			<polygon id="SVGID_191_" points="341.8,110 343.2,114.7 347.8,113.3 346.5,108.6 			"/>
	</g>
	<g style="fill: #2594D3;">
			<polygon id="SVGID_193_" points="313.1,92.5 317.7,108.1 320.3,107.3 316,91.6 			"/>
	</g>
	<g style="fill: #2594D3;">
			<polygon id="SVGID_195_" points="339.7,183.4 342.8,177.9 318.1,165 312.8,169.5 313.9,183.4"/>
	</g>
	<g style="fill: #2594D3;">
			<polygon id="SVGID_197_" points="363.5,189.7 368.7,206.1 375,204.3 369.3,187.1 			"/>
	</g>
	<g style="fill: #2594D3;">
			<polygon id="SVGID_199_" points="420.5,191.1 423.6,192.5 426.4,193.7 419.4,210.3 413.4,207.6 			"/>
	</g>
	<g style="fill: #2759A8;">
			<polygon id="SVGID_201_" points="84.7,166.7 94.3,166.7 94.3,159.8 84.8,159.8 			"/>
	</g>
	<g style="fill: #2594D3;">
			<polygon id="SVGID_203_" points="31.7,280.3 31.7,287.8 47.4,287.8 47.4,280.3 42.9,280.3 			"/>
	</g>
	<g style="fill: #2594D3;">
			<polygon id="SVGID_205_" points="279.8,231.4 281.9,247.5 292.2,245.9 289.9,229.9 			"/>
	</g>
	<g style="fill: #2759A8;">
			<polygon id="SVGID_207_" points="332.3,237.9 337.3,271.6 349.2,265.1 360.5,259 353.8,226 338.6,228.6 339.1,237.1 			"/>
	</g>
	<g style="fill: #2594D3;">
			<path id="SVGID_209_" d="M494.1,104.3l27.1-4.3c-0.6,3.4-0.9,5.8-1,7.2c-0.3,4.1-0.1,7.2,0.2,9.3l-20.1,2.9l-0.8-10.8l-5.2,0.4
				L494.1,104.3z"/>
	</g>
	<g style="fill: #183261;">
			<polygon id="SVGID_211_" points="389.1,306.5 390.7,311.8 394.6,322.6 389.6,324.7 384.3,308.3 			"/>
	</g>
	<g style="fill: #2594D3;">
			<polygon id="SVGID_213_" points="394.2,304.6 397.5,316.1 402.7,314 399.8,302.5 			"/>
	</g>
	<g style="fill: #183261;">
			<polygon id="SVGID_215_" points="383.2,331.9 387,330.3 391.4,343.5 387.6,344 			"/>
	</g>
	<g style="fill: #183261;">
			<polygon id="SVGID_217_" points="346.7,302.2 348.5,308.4 354.4,306.1 352.5,300.2 			"/>
	</g>
	<g style="fill: #412575;">
			<polygon id="SVGID_219_" points="253.5,329.7 261.1,328.3 262.4,339.7 255,340.7 			"/>
	</g>
	<g style="fill: #412575;">
			<polygon id="SVGID_221_" points="250.5,307.4 251.3,315.1 256.9,314 256.1,306.6 			"/>
	</g>
	<g style="fill: #2594D3;">
			<path id="SVGID_223_" d="M446.5,138.3c1.1,11.3,1.8,17.1,2.3,17.4l5.6-0.6l-2.8-17.7L446.5,138.3z"/>
	</g>
	<g style="fill: #1F1F28;">
			<polygon id="SVGID_225_" points="429.8,317.2 431.2,321.3 439.8,318.4 438.9,314.2 			"/>
	</g>
	<g style="fill: #4B6AAA;">
			<polygon id="SVGID_227_" points="181.3,359.9 183.6,365.8 185.2,365.1 183,359.3 			"/>
	</g>
	<g style="fill: #2594D3;">
			<polygon id="SVGID_229_" points="209.1,263.9 210.1,272.3 222.4,270.7 221.6,262.4 			"/>
	</g>
	<g style="fill: #2759A8;">
			<polygon id="SVGID_231_" points="452.9,277.7 455.5,285.1 467.7,281.6 465.3,273.4 			"/>
	</g>
	<g style="fill: #2759A8;">
			<polygon id="SVGID_233_" points="494.4,281.5 496.5,287.7 502.3,285.7 500,279.4 			"/>
	</g>
	<g style="fill: #2594D3;">
			<polygon id="SVGID_235_" points="159.1,249 166.1,249 166.1,257.7 159.1,257.9 			"/>
	</g>
	<g style="fill: #2594D3;">
			<polygon id="SVGID_237_" points="465.6,85.2 472.4,84 473.4,89.5 466.2,90.9 			"/>
	</g>
	<g style="fill: #222729;">
			<path id="SVGID_239_" d="M546.6,33.6c0.1,0,3.1-0.4,9.1-1.2l0.7,7.8l-9.1,1.3C546.7,36.2,546.5,33.6,546.6,33.6z"/>
	</g>
	<g style="fill: #2594D3;">
			<path id="SVGID_241_" d="M468.6,65.2c2,0,3.6-1.6,3.6-3.6c0-2-1.6-3.6-3.6-3.6c-2,0-3.6,1.6-3.6,3.6
				C465,63.6,466.6,65.2,468.6,65.2z"/>
	</g>
	<g style="fill: #183261;">
			<polygon id="SVGID_243_" points="375.7,311.6 384.3,308.4 387.9,319.2 379.6,322.2 			"/>
	</g>
	<g style="fill: #412575;">
			<polygon id="SVGID_245_" points="270.7,338.8 271.9,345.3 273.8,345.3 272.5,338.5 			"/>
	</g>
	<g style="fill: #412575;">
			<polygon id="SVGID_247_" points="288.7,336.3 290.5,348 293.1,347.7 291.6,335.9 			"/>
	</g>
	<g style="fill: #2594D3;">
			<polygon id="SVGID_249_" points="390.7,104.6 391.9,115.9 401.9,115.3 400.4,103.3 			"/>
	</g>
	<g style="fill: #1F1F28;">
			<polygon id="SVGID_251_" points="518.3,301.4 522.2,312.3 527.6,310.5 524.1,299.2 			"/>
	</g>
	<g style="fill: #2759A8;">
			<polygon id="SVGID_253_" points="473,263.6 474.3,271.4 487.9,269.8 486.7,261.9 			"/>
	</g>
	<g style="fill: #4B6AAA;">
			<polygon id="SVGID_255_" points="544.1,98.3 544.9,105.1 546.3,112.1 552.9,111.4 551.3,104.3 552.4,96.9 			"/>
	</g>
	<g style="fill: #4B6AAA;">
			<polygon id="SVGID_257_" points="437.2,230.4 437.9,235.5 449.8,234 449,228.6 			"/>
	</g>
	<g style="fill: #412575;overflow:visible;">
			<polygon id="SVGID_259_" points="274.3,333.4 274.5,338.1 284.6,336.8 284.2,332.2 			"/>
	</g>
	<g style="fill: #412575;overflow:visible;">
			<path id="SVGID_261_" d="M541,78.6c-15.7,6.8-22.5,19.4-20.6,37.8l-33.7,5.3l3.4,25.8l-10.3,1.6l9.3,70l-40.3,7.2l5.7,39.6
				l50.3-6.5l0.9,6.3l7.2-1.1l0.3,2.6l27.7-4.2l-2.7-17l34.1-5.4l-2.7-19.6l-16.4,2.5l-8.4-58.2l17.4-2.2l-2.9-28.7l5.3-24.7V90.4
				l-21.1,3L541,78.6z"/>
	</g>
	<g style="fill: #2759A8;overflow:visible;">
      <path id="SVGID_263_" d="M545.6,71c-21.6,7.3-31.3,20.6-29,40l-34.5,5.4l4,27.2l-12.1,1.7l9.7,69.6l-39.4,6.1l7.4,48.9l49.6-5.5
          l1.2,6.5l8.5-2l0.7,2l33.2-4.6l-2-16.6l33.8-5.2l-2.9-28.6l-16.7,1.8l-6.8-48.9l16.1-1.5l-2.6-32.3l5.4-25.5v-23l-21.4,2.3
          L545.6,71z"/>
	</g>
  <path style="fill:none;stroke:#EDF1B7;stroke-width:1.9;stroke-miterlimit:10;" class="st132" d="M545.6,71c-21.6,7.3-31.3,20.6-29,40l-34.5,5.4l4,27.2l-12.1,1.7l9.7,69.6l-39.4,6.1l7.4,48.9l49.6-5.5
      l1.2,6.5l8.5-2l0.7,2l33.2-4.6l-2-16.6l33.8-5.2l-2.9-28.6l-16.7,1.8l-6.8-48.9l16.1-1.5l-2.6-32.3l5.4-25.5v-23l-21.4,2.3
      L545.6,71z"/>
	<g style="fill: #412575;">
			<polygon id="SVGID_265_" points="225.4,166.2 252.7,155.8 254,159.4 286,149.6 283.8,141.7 310.9,133.7 318.5,159.4 247.5,182.1
				227,171.2 			"/>
	</g>
	<g style="fill: #412575;">
			<polygon id="SVGID_267_" points="248.2,307.7 240.5,333.1 250.9,364.2 266.6,361.9 264.5,344.2 255.6,345.6 253.5,329.7
				261.1,328.3 262.4,339.6 266.6,339 265.1,327.8 268,327.8 269.2,339 274.5,338.2 274.5,333.5 284.1,332.2 284.4,336.8
				291.7,335.9 288.9,318 263.2,321.8 260.5,305.9 			"/>
	</g>
	<g style="fill: #26296A;">
			<polygon id="SVGID_269_" points="349.6,342.3 344.7,309.8 354.3,306.1 352.5,300.2 344.7,302.9 343.6,297.4 379.7,285.7
				405.5,282.6 410,298.7 375.7,311.6 387.6,344 351.5,349 			"/>
	</g>
	<g style="fill: #26296A;">
			<path id="SVGID_271_" d="M97.6,315.8l-1-33.4l20.8-1.2v5.2h10.9l0.1-5.3l39.3-1.9v10.6h-1.1c0.4,3.8,0.8,7,1.1,9.6l-34,15.8
				L97.6,315.8z"/>
	</g>
	<g style="fill: #26296A;">

			<path id="SVGID_273_" d="M345.4,83l8.5,29.4l17-5.3l2,7.9L320,131.6l5.5,16.8l34,16.4c2.3-7.7,9.9-14.4,22.9-20l0.3-28.3
				l-8.3-30.6L345.4,83z"/>
	</g>
	<g style="fill: #26296A;">

			<path id="SVGID_275_" d="M5.1,184.2l17.9-1.2l11.4-1l18.9,6.4l10.4,10.1v22c0.9,6.1,4.9,12.7,12,19.7l-8.7,12.6l-13.7,1l-0.5-20
				l-1.8-21.3L27,213.8l-0.5-12.3l-21.1,1.1L5.1,184.2z"/>
	</g>
	<g style="fill: #26296A;">

			<polygon id="SVGID_277_" points="203.9,192.4 230.9,187.4 233.7,209 206,216.8 			"/>
	</g>
	<g style="fill: #26296A;">

			<polygon id="SVGID_279_" points="126,126.7 127.2,162.8 144.8,161.5 144.8,148.7 148.4,148.7 148.4,161.5 159.6,160.8
				159.6,152.2 166.7,152.2 166.7,164.7 127.2,166.9 127.8,198.1 164.3,197.2 187.4,178.4 183.5,134.3 162.6,120.8 			"/>
	</g>
	<g style="fill: #2759A8;">
			<polygon id="SVGID_281_" points="75.8,134.4 75.8,152.1 94,151.6 94,146.3 112.1,145.8 112.1,136.7 115.8,136.7 115.8,128.5
				"/>
	</g>
	<g style="fill: #2759A8;">
			<path id="SVGID_283_" d="M353.3,226.3l2.7,24.9l-4.3-0.1l-4.5,0.9l1.5,13.4l22.3-12l8.4-23.2c-5.9-2.7-9.8-5-11.7-6.9l-2.4,1.4
				L353.3,226.3z"/>
	</g>
	<g style="fill: #2759A8;">

			<polygon id="SVGID_285_" points="88.1,167 88.1,171.4 116.6,169.9 116.6,159.2 93.8,160.1 93.8,167 			"/>
	</g>
	<g style="fill: #2759A8;">
			<polygon id="SVGID_287_" points="33.4,220.7 42.5,220.7 42.7,249 33.4,249.4 			"/>
	</g>
	<g style="fill: #2759A8;">
    <path id="SVGID_289_" d="M63.2,212.5v8.4c1.7,5.6,3.7,9.8,5.9,12.8c0,0-5.6,0.2-16.8,0.6L50.5,213L63.2,212.5z"/>
	</g>
	<g style="fill: #222729;">
			<polygon id="SVGID_291_" points="19.2,273.2 24.1,273.2 25.4,291.3 19.7,291.3 			"/>
	</g>
	<g style="fill: #2759A8;">
			<path id="SVGID_293_" d="M63.2,212.5v8.4c1.7,5.6,3.7,9.8,5.9,12.8c1.7,2.2,3.7,4.5,6.1,6.9l-8.7,12.6l-13.7,1l-0.5-20L50.5,213
				L63.2,212.5z"/>
	</g>
	<g style="fill: #2759A8;">
    <polygon id="SVGID_295_" points="346.3,242.5 347.3,251.9 351.7,251.1 356.1,251.2 355.5,246 351.4,246.2 350.9,242 			"/>
	</g>
	<g style="fill: #2759A8;">
			<polygon id="SVGID_297_" points="254.9,142.8 249.6,125.8 244.6,127.3 243.4,122 265.7,115.2 267.5,120.7 281.1,116.7
				275.4,97.7 242.9,107.1 222.3,132.1 224.7,152 			"/>
	</g>
	<g style="fill: #2759A8;">
			<polygon id="SVGID_299_" points="471.7,289.1 473.7,308.1 481.6,330.3 503.1,327.8 491,289.8 485.8,291.8 483.6,285.6
				473.3,288.7 			"/>
	</g>
	<g style="fill: #6095CF;">
    <circle id="SVGID_301_" cx="466.8" cy="313" r="7"/>
		<!--<g class="st151">-->
			<!--<g style="fill: #6095CF;overflow:visible;">-->
        <!--<rect id="SVGID_303_" x="454.8" y="301" width="24" height="24"/>-->
				<!--<g style="fill: #6095CF;overflow:visible;" class="st152">-->
          <!--<rect id="SVGID_305_" x="459.8" y="306" width="14" height="14"/>-->
				<!--</g>-->
			<!--</g>-->
		<!--</g>-->
	</g>
</g>
</svg>
