<?xml version="1.0" encoding="utf-8"?>
<!-- Generator: Adobe Illustrator 23.0.1, SVG Export Plug-In . SVG Version: 6.00 Build 0)  -->
<svg version="1.1" id="图层_1" xmlns="http://www.w3.org/2000/svg" xmlns:xlink="http://www.w3.org/1999/xlink" x="0px" y="0px"
	 viewBox="0 0 580 428" style="enable-background:new 0 0 580 428;" xml:space="preserve">
<style type="text/css">
	.st0{fill:#3269D7;}
	.st1{fill:#E26A1A;}
	.st2{fill:#0C3F72;}
</style>
<g>
	<rect x="192.2" y="340.3" style="fill:#3269D7;" width="29.3" height="29.3"/>
	<rect x="223.3" y="340.3" style="fill:#3269D7;" width="29.3" height="29.3"/>
	<rect x="270.5" y="346.9" style="fill:#E26A1A;" width="51.8" height="22.6"/>
	<rect x="170.4" y="319.3" style="fill:#E26A1A;" width="49.6" height="9.6"/>
	<rect x="221.4" y="279.2" style="fill:#0C3F72;" width="23" height="8"/>
	<polygon style="fill:#0C3F72;" points="200.8,279.2 200.8,291 189.2,291 189.2,279.2 170.4,279.2 170.4,291 170.4,292.9 170.4,317.5
		219.9,317.5 219.9,292.9 219.9,291 219.9,279.2 	"/>
	<rect x="116.1" y="279.2" style="fill:#0C3F72;" width="52.6" height="49.6"/>
	<rect x="115.1" y="229.6" style="fill:#0C3F72;" width="102.9" height="34.2"/>
	<rect x="245.3" y="279.2" style="fill:#0C3F72;" width="23" height="8"/>
	<rect x="221.4" y="288.7" style="fill:#3269D7;" width="46.8" height="28.7"/>
	<rect x="452.4" y="315.6" style="fill:#3269D7;" width="21.3" height="28.8"/>
	<rect x="437.7" y="315.6" style="fill:#3269D7;" width="13" height="4.3"/>
	<rect x="422" y="280.2" style="fill:#0C3F72;" width="51.7" height="34.3"/>
	<path style="fill:#3269D7;" d="M367.1,332.5h-28v-24.3c0-6.1,4.9-11,11-11h17V332.5z"/>
	<path style="fill:#3269D7;" d="M367.1,369.5h-16.9c-6.1,0-11-4.9-11-11v-24.2h28v35.2H367.1z"/>
	<path style="fill:#3269D7;" d="M396.7,332.5h-28v-35.3h17c6.1,0,11,4.9,11,11V332.5z"/>
	<path style="fill:#3269D7;" d="M385.7,369.5h-16.9v-35.3h28v24.2C396.7,364.6,391.8,369.5,385.7,369.5z"/>
	<rect x="171.1" y="383.9" style="fill:#3269D7;" width="47.2" height="18.2"/>
	<rect x="220.1" y="383.9" style="fill:#3269D7;" width="47.9" height="18.2"/>
	<rect x="269.9" y="383.9" style="fill:#3269D7;" width="50.1" height="18.2"/>
	<rect x="321.6" y="383.9" style="fill:#3269D7;" width="45.6" height="18.2"/>
	<rect x="368.8" y="383.9" style="fill:#3269D7;" width="49.8" height="18.2"/>
	<rect x="117.6" y="332.5" style="fill:#3269D7;" width="52.1" height="69.6"/>
	<polygon style="fill:#3269D7;" points="473.7,402.1 420.2,402.1 420.2,346.1 420,317.6 423.7,317.6 423.7,315.6 436.5,315.6 436.5,321
		451.2,321 451.2,346.1 473.7,346.1 	"/>
	<path style="fill:#3269D7;" d="M316.5,333.2h-24c-2.7,0-4.3-3.1-2.8-5.3l19.3-27.7c2.4-3.4,7.7-1.7,7.6,2.4L316.5,333.2z"/>
	<path style="fill:#3269D7;" d="M270.5,280.2h20.3c1.6,0,2.5,1.7,1.6,3L274,309.9c-1.1,1.6-3.6,0.8-3.6-1.1v-28.6L270.5,280.2L270.5,280.2z"/>
	<polygon style="fill:#3269D7;" points="266.3,203.4 293.3,263.8 219.9,263.8 219.9,229.7 	"/>
	<path style="fill:#3269D7;" d="M455.6,195.5v69h-70.4V224l13.4-7.6c6.3-4.5,8.5-6.5,13.6-11.2l9-9.7H455.6z"/>
	<path style="fill:#3269D7;" d="M437,163l19,0.1l-0.3,30.9l-33.1-0.3l3.8-6c4.7-6.5,7.3-14.3,9.1-19.8L437,163z"/>
	<path style="fill:#3269D7;" d="M418.6,76.9h65.5v84.6h-46.5l1.2-12.4c0.9-9.8,0.4-19.7-1.5-29.3l0,0c-2.2-10.9-6.2-21.5-11.8-31.1L418.6,76.9
		z"/>
	<path style="fill:#3269D7;" d="M117.2,100.8V165H95.9v50.9l121.3,0.1l23.8-15.6l-1.6-3.4c-5-10.2-8.8-21-11.3-32.1l0,0
		c-2.7-12-3.9-24.4-3.6-36.7l0.2-8.1L117.2,100.8z"/>
	<rect x="418.6" y="25.9" style="fill:#3269D7;" width="65.5" height="38"/>
	<path style="fill:#3269D7;" d="M241,105l20.9-2.9c5.5-0.8,10.7,2.9,11.9,8.3l14,64.2c0.1,0.6-0.2,1.1-0.8,1.2l-25.4,5.1
		c-3.7,0.7-7.3-1.7-7.9-5.4L241,105z"/>
	<path style="fill:#3269D7;" d="M322.9,78.5l20.7,5.5l15.7-5.5c-6.6-8.3-14.8-13.2-22.4-11.7C331.2,67.9,326.4,72.3,322.9,78.5z"/>
	<path style="fill:#3269D7;" d="M317.3,112l26-7.6V85.5l-21.1-5.8C317.8,88.3,315.8,100.1,317.3,112z"/>
	<path style="fill:#3269D7;" d="M317.9,116.1c1.6,8,3.5,14.9,6.3,20.3l18.9-5.6v-24.6l-25.7,7.4C317.6,114.4,317.8,115.3,317.9,116.1z"/>
	<path style="fill:#3269D7;" d="M371,137.1l-27.8-4.7l-18.2,5.3c5.3,9,13.5,13.5,28.1,11.5C362.4,148,368.1,143.6,371,137.1z"/>
	<path style="fill:#3269D7;" d="M371.8,106.4c-2-10.2-6.4-19.8-11.9-27l-15.5,6V131l27.1,4.8C374.5,128.2,374.1,118,371.8,106.4z"/>
	<path style="fill:#3269D7;" d="M320.7,30c-8.7,2.5-14.9,7.9-19.5,14.9l15.9,9.8c3.3-3.2,7.5-5.5,12.8-6.4c0.1,0,0.3,0,0.4-0.1l-0.2-19.8
		C327,28.6,323.9,29.1,320.7,30z"/>
	<path style="fill:#3269D7;" d="M338.7,29.1l-0.3,19.1c5.8,0.9,11,3.7,15.7,7.7l13-8.7C358.1,37.5,348.8,31.1,338.7,29.1z"/>
	<path style="fill:#3269D7;" d="M374.6,56.1l-12.3,8.6c2.3,3,4.4,6.1,6.5,9.5c1.9,3.1,3.7,6.3,5.4,9.6l13.6-7.9c-2.4-3.9-4.9-7.9-7.5-11.7
		C378.4,61.3,376.5,58.6,374.6,56.1z"/>
	<path style="fill:#3269D7;" d="M389.6,78.9l-14,7.6c4.9,9.8,8.9,20.2,11.3,30l17.5-6.4C400.9,100.4,395.8,89.6,389.6,78.9z"/>
	<path style="fill:#3269D7;" d="M407.5,157.1c2.7-8.2,3.6-16.8,2.8-24.7c-0.3-2.8-0.9-5.9-1.7-9.2l-19.6,4.3c0.4,5.8-1,11.9-4.2,17.4
		L407.5,157.1z"/>
	<path style="fill:#3269D7;" d="M383.3,147.1c-2.1,3-4.7,5.8-7.8,8.1c-1.5,1.1-3.1,2.3-4.9,3.3l19.7,24.6c7.4-6.4,12.7-14.4,16-22.9
		L383.3,147.1z"/>
	<path style="fill:#3269D7;" d="M367.8,160.2c-4,2.2-8.5,4-13.8,4.9c-0.4,0.1-0.7,0.1-1.1,0.2l4.4,31.7c0.1,0,0.3,0,0.4,0
		c11.7-1.3,21.4-5.3,29.2-11L367.8,160.2z"/>
	<path style="fill:#3269D7;" d="M330.5,192.4l11.5-28.3c-4.2-1.2-8.2-3.1-11.6-4.9c-5.2-2.8-9.5-5.5-13-10.1l-17.3,9.9
		C307.7,175.9,318.4,186.8,330.5,192.4z"/>
	<path style="fill:#3269D7;" d="M317.4,149.3c-3.9-5.1-6.8-12.3-9-24.4c-2.1-11.9-3.5-25.7-2.7-38.3l-16.4-2c-1.7,18.9,0.3,38.2,3,50.6
		c2,9.2,4.6,17.3,7.9,24.4L317.4,149.3z"/>
</g>
</svg>
